<svg version="1.2" baseProfile="tiny-ps" xmlns="http://www.w3.org/2000/svg" viewBox="0 0 615 304" width="615" height="304">
	<title>mico-logo-svg</title>
	<style>
		tspan { white-space:pre }
		.shp0 { fill: #000000 } 
		.shp1 { fill: #f7a116 } 
		.shp2 { fill: #efefef } 
		.shp3 { fill: none } 
		.shp4 { fill: #191915 } 
		.shp5 { fill: #08090c } 
		.shp6 { fill: #08090d } 
		.shp7 { fill: #010101 } 
		.shp8 { fill: #151514 } 
		.shp9 { fill: #f8b129 } 
		.shp10 { fill: #f8b029 } 
		.shp11 { fill: #f2b32a } 
		.shp12 { fill: #f5b72b } 
		.shp13 { fill: #f4b62b } 
		.shp14 { fill: #f5b62a } 
		.shp15 { fill: #f6b72b } 
		.shp16 { fill: #141113 } 
		.shp17 { fill: #0e0d12 } 
		.shp18 { fill: #141114 } 
		.shp19 { fill: #0c0b12 } 
		.shp20 { fill: #111013 } 
		.shp21 { fill: #131113 } 
		.shp22 { fill: #131214 } 
		.shp23 { fill: #e2ac2b } 
		.shp24 { fill: #876722 } 
		.shp25 { fill: #e1b02c } 
		.shp26 { fill: #eac22e } 
		.shp27 { fill: #dfaf2c } 
		.shp28 { fill: #cfa92b } 
		.shp29 { fill: #e7b52c } 
		.shp30 { fill: #e9b92d } 
		.shp31 { fill: #896d23 } 
		.shp32 { fill: #d2ad2c } 
		.shp33 { fill: #e0b82d } 
		.shp34 { fill: #e3b82d } 
		.shp35 { fill: #deb32c } 
		.shp36 { fill: #e3b62d } 
		.shp37 { fill: #e5ba2d } 
		.shp38 { fill: #ecbd2d } 
		.shp39 { fill: #e2ba2d } 
		.shp40 { fill: #f8b229 } 
		.shp41 { fill: #f8b329 } 
		.shp42 { fill: #f7b229 } 
		.shp43 { fill: #f7c12d } 
		.shp44 { fill: #f6b229 } 
		.shp45 { fill: #191917 } 
		.shp46 { fill: #191916 } 
		.shp47 { fill: #1f1e1d } 
		.shp48 { fill: #1b1a17 } 
		.shp49 { fill: #171614 } 
		.shp50 { fill: #131311 } 
		.shp51 { fill: #232221 } 
		.shp52 { fill: #171615 } 
		.shp53 { fill: #151413 } 
		.shp54 { fill: #100f0e } 
		.shp55 { fill: #d3ae2c } 
		.shp56 { fill: #e5bc2d } 
		.shp57 { fill: #e5a82c } 
		.shp58 { fill: #dcb32c } 
		.shp59 { fill: #1e1814 } 
		.shp60 { fill: #101013 } 
		.shp61 { fill: #241e14 } 
		.shp62 { fill: #211d15 } 
		.shp63 { fill: #2b2315 } 
		.shp64 { fill: #141313 } 
		.shp65 { fill: #221c14 } 
		.shp66 { fill: #191513 } 
		.shp67 { fill: #1a1512 } 
		.shp68 { fill: #1a1513 } 
		.shp69 { fill: #1c1814 } 
		.shp70 { fill: #141212 } 
		.shp71 { fill: #171312 } 
		.shp72 { fill: #181412 } 
		.shp73 { fill: #181513 } 
		.shp74 { fill: #2c2315 } 
		.shp75 { fill: #e9be2d } 
		.shp76 { fill: #ebb52b } 
		.shp77 { fill: #e6b22b } 
	</style>
	<g id="Layer">
		<g id="Layer">
			<path id="Layer" class="shp0" d="M318.9 60.9L306.3 60.9L306.3 55.4L337.6 55.4L337.6 60.9L325 60.9L325 111.7L318.8 111.7L318.8 60.9L318.9 60.9Z" />
			<path id="Layer" class="shp0" d="M348.3 52.7L348.3 74.8C349.8 71.4 353 68.9 358.4 68.9C364.6 68.9 369 72.7 369 81.8L369 111.7L362.9 111.7L362.9 83.1C362.9 77.9 361.4 74.4 356.2 74.4C350.4 74.4 348.3 79.2 348.3 86.5L348.3 111.8L342.2 111.8L342.2 52.7L348.3 52.7Z" />
			<path id="Layer" fill-rule="evenodd" class="shp0" d="M382.9 91.8C382.9 100 384.3 107.2 391 107.2C397.6 107.2 398.4 100.9 398.7 99.7L404.6 99.7C404.5 100.8 403.3 112.5 390.9 112.5C378.5 112.5 376.8 101.2 376.8 90.7C376.8 77.4 381.4 69 391.2 69C402.3 69 404.9 78.1 404.9 88.6C404.9 89.4 404.9 90.8 404.8 91.8C404.8 91.8 382.9 91.8 382.9 91.8ZM398.9 87.1C398.9 79.9 397.4 74.2 391.2 74.2C383.5 74.2 383.1 84.2 383 87.1L398.9 87.1Z" />
		</g>
		<g id="Layer">
			<path id="Layer" class="shp1" d="M356.3 164.2C356.3 152.6 356.5 139.9 356.7 132.7L356.5 132.7C354.2 144.8 349.7 168.8 345.1 189.9L335.7 189.9C332.3 170.6 327.6 145 325.4 132.5L325.1 132.5C325.5 140.2 325.8 154.2 325.8 165.6L325.8 190L316.4 190L316.4 124L331.7 124C335.8 143 339.5 163.7 340.9 173L341 173C342.3 164.7 347.2 142.3 351.3 124L366.3 124L366.3 189.8L356.4 189.8L356.4 164.2L356.3 164.2L356.3 164.2Z" />
			<path id="Layer" class="shp1" d="M388.3 124L388.3 189.8L378.1 189.8L378.1 124L388.3 124Z" />
			<path id="Layer" class="shp1" d="M437.5 171C437.2 174.5 435.8 190.9 418.3 190.9C400 190.9 398.1 173.7 398.1 156.7C398.1 136.1 403.9 123 419 123C435.9 123 437.1 137.9 437.3 142.8L427.1 142.8C426.9 140.6 426.7 131.8 418.8 131.8C410.4 131.8 408.7 142.6 408.7 156.9C408.7 169.8 410 182.3 418.5 182.3C426.1 182.3 426.9 173.8 427.2 171L437.5 171L437.5 171Z" />
			<path id="Layer" fill-rule="evenodd" class="shp1" d="M485.3 156.4C485.3 179.9 479.2 190.9 464.3 190.9C450.3 190.9 443.9 180.1 443.9 156.3C443.9 133 451.4 123 464.8 123C478.9 123 485.3 133.8 485.3 156.4ZM454.4 156.2C454.4 172.9 457.3 182.2 464.6 182.2C472.3 182.2 474.8 173.4 474.8 156.2C474.8 139.6 472.1 131.6 464.5 131.6C457.2 131.7 454.4 140.5 454.4 156.2Z" />
		</g>
		<g id="Layer">
			<path id="Layer" class="shp0" d="M314.9 204.7L336.9 204.7L336.9 209.4L320.2 209.4L320.2 225.3L335.9 225.3L335.9 229.9L320.2 229.9L320.2 252.4L315 252.4L314.9 204.7L314.9 204.7Z" />
			<path id="Layer" fill-rule="evenodd" class="shp0" d="M369.4 228.1C369.4 244.4 365.5 253.1 355.2 253.1C345.4 253.1 341.3 244.7 341.3 228.2C341.3 212 346.1 204 355.4 204C365.3 204 369.4 212 369.4 228.1ZM346.7 228.1C346.7 241.7 349.4 248.5 355.4 248.5C361.5 248.5 364 241.8 364 228.1C364 214.2 361.3 208.5 355.3 208.5C349.5 208.6 346.7 215.1 346.7 228.1Z" />
			<path id="Layer" class="shp0" d="M382 204.7L382 238.1C382 243.4 383.5 248.5 389.8 248.5C396.1 248.5 397.6 244.2 397.6 238L397.6 204.6L402.8 204.6L402.8 238.1C402.8 246.8 399.7 253 389.6 253C379.9 253 376.6 247.1 376.6 238.4L376.6 204.6L382 204.6L382 204.7Z" />
			<path id="Layer" class="shp0" d="M411.8 252.4L411.8 204.7L418.2 204.7C431.4 237.7 433.2 242.2 433.8 244.3L433.9 244.3C433.6 237.9 433.5 230.7 433.5 223L433.5 204.8L438.4 204.8L438.4 252.5L432.2 252.5C418.5 217.8 416.8 213.5 416.3 211.6L416.2 211.6C416.6 217.6 416.6 225.4 416.6 234L416.6 252.6L411.8 252.6L411.8 252.4Z" />
			<path id="Layer" fill-rule="evenodd" class="shp0" d="M447.9 204.7L458.5 204.7C469.5 204.7 474.4 212.4 474.4 227.3C474.4 243.5 469.9 252.4 457.7 252.4L447.9 252.4L447.9 204.7ZM457.5 247.9C466.2 247.9 469 241 469 227.5C469 214.8 465.7 209.3 457.6 209.3L453.2 209.3L453.2 247.9L457.5 247.9Z" />
			<path id="Layer" fill-rule="evenodd" class="shp0" d="M483 252.3L477.8 252.3L489.3 204.6L496.1 204.6L508 252.3L502.4 252.3L498.9 237.2L486.5 237.2L483 252.3ZM497.8 232.6C495 220.9 493.2 213.4 492.6 209.6L492.4 209.6C491.7 213.7 489.8 222.3 487.5 232.6L497.8 232.6Z" />
			<path id="Layer" class="shp0" d="M515.5 209.4L504.9 209.4L504.9 204.7L531.4 204.7L531.4 209.4L520.8 209.4L520.8 252.4L515.6 252.4L515.6 209.4L515.5 209.4Z" />
			<path id="Layer" class="shp0" d="M541.7 204.7L541.7 252.4L536.5 252.4L536.5 204.7L541.7 204.7Z" />
			<path id="Layer" fill-rule="evenodd" class="shp0" d="M577.4 228.1C577.4 244.4 573.5 253.1 563.2 253.1C553.4 253.1 549.3 244.7 549.3 228.2C549.3 212 554.1 204 563.4 204C573.4 204 577.4 212 577.4 228.1ZM554.8 228.1C554.8 241.7 557.5 248.5 563.5 248.5C569.6 248.5 572.1 241.8 572.1 228.1C572.1 214.2 569.4 208.5 563.4 208.5C557.5 208.6 554.8 215.1 554.8 228.1Z" />
			<path id="Layer" class="shp0" d="M585 252.4L585 204.7L591.4 204.7C604.6 237.7 606.4 242.2 607 244.3L607.1 244.3C606.8 237.9 606.7 230.7 606.7 223L606.7 204.8L611.6 204.8L611.6 252.5L605.4 252.5C591.7 217.8 590 213.5 589.5 211.6L589.4 211.6C589.8 217.6 589.8 225.4 589.8 234L589.8 252.6L585 252.6L585 252.4Z" />
		</g>
	</g>
	<g id="Layer">
		<path id="Layer" class="shp2" d="M52.9 171.1C52.9 171.1 51.9 196.1 53.9 202.1C55.9 208.1 55.4 214.6 66.7 223.3C78 232 147.9 258.1 147.9 258.1L147.9 172.1L52.9 171.1Z" />
		<path id="Layer" class="shp2" d="M152.9 108.1L152.9 173.1C152.9 173.1 238.9 174.1 238.9 173.1C238.9 172.1 237.9 108.1 237.9 108.1L152.9 108.1Z" />
		<g id="Layer">
			<path id="Layer" fill-rule="evenodd" class="shp0" d="M232.6 227.4C207.7 247.8 178.5 260 147.7 267.9C144.7 268.7 142.6 267.2 140.1 266.5C109 258.1 79.5 244.5 55.3 222.9C41.9 211.6 41.9 191.6 41.9 189.3C42 144.8 42 100.4 42 55.9C42.1 52.1 41.9 49.9 42.3 48.7C42.6 48.2 43 47.8 43.5 47.5C44.7 47.1 46.9 47.2 50.7 47.1C52.8 47 55.1 48 56.9 46.5L217.3 46.5C218.6 47.6 220.5 47.1 222.1 47.1C229.5 47.2 236.9 47.5 244.2 47C249.7 46.7 251 48.5 251 53.8C250.8 95 250.9 136.3 250.9 177.5C250.9 186.4 254.6 210.6 232.6 227.4ZM93.8 150.7C94.1 151 94.5 151.3 94.9 151.6C94.2 156.6 97.1 154.7 99.5 153.9C100.7 154 101.7 153.9 102.3 152.8C103.3 153.5 104.9 154.2 104.4 155.4C103.6 157.2 102.5 155.3 101.5 155.2C100.1 155 98.8 155.8 98.5 156.8C98.2 158.1 99.9 158.4 100.8 158.9C101.7 159.4 103.2 157.6 103.9 159.5C102.8 161.5 100.2 162.5 100.1 165.4C100.1 166 97.9 166.5 99.3 167.9C100.4 168.8 101.2 168.1 102 167.5C109.2 161.7 116.2 150.5 106 140.5C106.9 139.2 107.6 138 108.4 136.8C108.6 133.1 105.2 131 103.3 132C99.7 133.9 96.9 132.3 93.8 131.6C92.9 133.6 94.6 134.4 95 135.6C92.8 139.3 94.1 142.5 95.9 145.8C93.4 144.6 92.8 146.8 92.1 148.1C91.4 149.3 92.3 150.2 93.8 150.7ZM61.4 133.1C64.5 135.4 63.7 143.2 70.8 140.3C71.8 140.1 72.7 139.9 74.5 139.5C72 142.7 69.1 145.2 70 149.4C82.6 142.1 84.6 132.4 76.5 121.1C79.5 119.9 77.9 118.8 76.5 117.7C83.9 117.2 76.5 114.8 76.9 113.3C77.9 109.6 75.4 112.6 75 112.7C71.2 113.2 67.5 115 63.6 112C63.7 114.7 64.5 116 66.6 116.4C65.4 119.6 66.5 123.8 62.4 125.7C62.4 125.8 62.8 126.7 63 127.3C58.8 128.2 59.7 131.8 61.4 133.1ZM134.6 140C132.4 141.9 130.6 143.7 129.8 146.2C129.5 147 127.5 147.4 129 148.7C130.2 149.7 131.3 148.8 132.2 148C135.7 145.1 138.6 141.7 140 137.4C142.7 129.3 139.4 122.8 131.9 120.7C130.8 123.1 133.7 124.8 133.8 127.1C130.5 128 130.9 123.6 128.1 124C126.4 126.9 129.5 128.2 130.4 130.1C131.5 132.2 133.1 134.2 134.7 136.7C131.9 136.5 128.6 135.1 128.4 137.6C128.2 141 132 139 134.6 140ZM129.1 133.5C129 132.6 127.9 132 126.8 132C125.7 132.4 124.1 132.3 124.4 134C124.6 134.8 125.7 136.1 126.2 136C127.5 135.8 129.1 134.9 129.1 133.5ZM139.1 116.2C136.4 116.3 137.9 110.7 133.8 112.5C130.6 113.9 127.1 114.5 122.4 111.4C123.5 113.9 123.6 114.7 124 114.9C128.3 117.1 133.4 115.8 137.9 117.4C138.1 117.5 138.6 116.6 139.1 116.2ZM121.9 129.2C121.4 130.1 122 131.3 123.3 131.1C124.6 130.9 126 130.4 126.5 128.7C125.8 128 125.3 126.7 124.6 126.6C122.9 126.4 122.3 128.1 121.9 129.2ZM143.8 250.1C143.9 227.6 143.9 205.1 143.8 182.6C143.8 180.6 145 173.5 142.7 172.2C115.1 172 89.2 170.6 61.6 170.4C58.6 170.4 55.4 177.8 55.3 180.4C55.2 182.8 54.9 185.3 55.1 187.6C56.6 207.3 66.5 221.1 83.9 230.4C102.7 240.2 122.3 248.1 142.1 255.7C142.3 255.6 142.4 255.6 142.5 255.5C144.8 254.2 143.9 251.8 143.8 250.1ZM158.7 98.8C161.6 101.9 164.3 98.5 167.2 98.6C176 99 184.7 97.8 193.4 99.8C194.3 100 195.5 100.7 195.8 99.2C195.8 98.8 194.8 98.1 194.2 97.6C197.3 97.3 196.4 95.6 195.5 94C196.2 93.6 196.7 92.9 196.4 92.1C193.9 83.7 191.2 75.3 188.6 66.9C188.1 65.4 187 64.9 185.4 64.8C171.8 63.8 159.2 66.7 147.7 73.9C146.3 72.2 145.5 72.5 145.1 74.5C144.6 76.9 146 79.7 144 81.9C144.2 71.4 144.1 71.3 134.8 68.1C130.6 66.7 126.1 66.2 121.6 65.9C115.6 65.5 110.1 65.6 109.1 73.5C108.8 75.7 107 77.9 106 80C102.1 80.2 101.4 83 100.6 85.9C96.4 89.7 94.4 94.7 93.7 100.1C93.5 101.3 95.1 101.1 96 100.5C106.9 99.1 117.5 97.4 128.4 98.6C129.8 98.8 130.2 98.1 130 96.9C132.1 98.3 134.2 98.9 136.4 96.9C139.5 98 142.3 98.5 142.5 93.9C142.6 94.8 142.8 95.9 143.1 98.3C144.3 93.5 145 90.4 145.7 87.1C145.1 92 149.5 98 142.8 101.5C142.3 101.7 141.4 102.1 141.4 102.2C142 104.9 144.1 105.8 146.3 104.8C147.9 104.1 152.6 105.2 150.3 100.4C149.7 99.1 151.6 98.8 152.6 98.3C154.5 100.4 157 97.6 158.7 98.8ZM170.5 192.9C169 190.9 167.2 188.4 164.6 189.3C161.4 190.4 166.3 193 164.4 194.8C162.5 195 162.3 191.7 159.9 192.6C159.3 191.7 159.1 190.7 157.3 191.5C155.3 192.4 154.8 193.6 155.1 195.5C154.8 196.9 153.3 197.9 154 199.5C153.7 201.8 153.4 204.5 155.8 206C159 208.1 159.7 210.7 158.8 214.2C158.5 215.4 159.3 216.5 160.7 216.8C161.2 217.1 161.8 217.8 162.1 217.7C171 215 176 200.2 170.5 192.9ZM162.7 185.5C166 185.4 169.5 185.5 169.1 180.4C159.9 182.5 159.9 182.5 155.4 180.9C155.7 185.9 159.4 185.4 162.7 185.5ZM200.8 212.1C201.7 209.1 199.6 207.1 198 205.1C199.6 205.2 200.9 205.1 201.2 203.3C198.5 203.3 197.4 199 195.2 200.2C191.7 202.2 188.5 200.9 185.1 200.1C185.6 203.4 187.3 204 189.9 203.9C192.3 203.8 194.7 203.3 196.9 204.8C186.6 205 186.6 205 184.5 214.9C184.3 216.1 183 217 183.9 218.2C185.1 219.8 186.5 217.8 187.7 218.1C188.8 218.2 190 218.3 190.6 219.3C188.7 218.8 186.8 219.3 186.5 221.2C186.3 222.6 187.8 223.4 189.4 223.3C189.5 223.8 189.5 224.4 189.6 224.9C190.8 228 193.9 226.5 196.3 227.1C195.2 229.6 192.4 230.4 191.8 233C191.6 234.2 189.8 235.1 191.3 236.4C192.8 237.7 193.4 236 194.2 235.4C202.3 229.1 204.4 221.7 200.8 212.1ZM230.2 192.6C231.9 190.2 227.8 188 230 185.6C228 184.4 228.9 178.9 225.4 180.9C221.6 183 218.6 181.6 215.3 180.6C214.6 182.8 216 183.7 216.6 184.9C216.4 188.4 214.3 192 217.6 195.2C214.1 195.1 213.2 196.7 214.2 199.9C211 201.3 211.7 203.6 214.1 204.4C215 204.7 217.3 209.8 218.7 204.5C219.1 204.3 219.6 204 220 203.8C220 204.2 220.1 204.7 220.1 205.1C219.4 210.2 224.4 206.8 226 208.7C224.3 210.5 222.5 212.1 221.4 214.3C220.9 215.3 219.6 215.7 220.7 217C221.8 218.4 222.7 217.4 223.7 216.7C231.9 211.1 234.4 201.8 230.2 192.6ZM237.4 164.6C237.4 147.7 237.3 130.7 237.6 113.8C237.7 109.7 236.3 108.9 232.4 108.9C207.2 109.1 182.2 109 157 109C155 109.8 155.2 111.5 155.2 113.1C155.2 130.2 155.1 147.3 155.2 164.4C155.2 165.3 155.8 166.2 156.1 167.1C156.2 168.2 156.3 169.3 156.4 170.3C157.3 172.5 159.3 172 161.1 172C185 172 208.7 172 232.5 172C234.2 172 236.3 172.6 237.3 170.5C237.3 168.5 237.3 166.6 237.4 164.6Z" />
			<path id="Layer" class="shp3" d="M142.7 224.3C142.8 208.4 142.7 192.5 142.7 176.7C115.9 176.6 89.1 176.5 62.3 176.2C59.4 176.2 58.3 177.4 58.2 180C58.1 182.4 57.8 184.7 58 187.1C59.4 206.3 69 220 85.9 229.1C104.1 238.9 123.1 246.6 142.3 254C143.4 244.1 142.6 234.2 142.7 224.3ZM83.6 212.2C79.9 209.5 76.6 210.3 72.1 212.7C74.6 208.8 74.2 206.2 70.3 204.5C74.9 204.3 77.2 202.2 78.1 197.5C80.4 201.4 82 205.2 87.2 203.6C84.7 206.2 81.7 208 83.6 212.2ZM122.2 226.3C124.8 230.6 121.6 236 116.6 236.1C114.3 236.1 111.9 236.5 109.4 235.2C110.6 232.5 112.7 232.7 114.8 233.2C116.2 233.6 117.1 233.1 117.6 231.8C118.3 230 117.1 229.3 115.7 228.8C112.8 227.7 110.4 226.8 109.1 223C108.3 220.7 102.9 220.7 100.8 222.7C96.6 226.8 94.1 226.2 91.2 221.5C90.5 220.4 88.7 219.9 87.2 219.1C90 216.6 91.5 218.7 93.2 220.4C94.9 222.1 97 223.6 97.8 219.8C99.1 213.7 103.3 213.4 109.7 215C103.4 206.3 96.2 201.8 87.4 199.6C86.1 199.3 83.4 200.2 83.8 197.8C84.2 195.5 86.4 196.2 88.1 196.9C90.7 197.9 93.3 198.8 96.8 197.7C93.1 194.6 90.6 190.6 85.5 189.9C84.6 189.8 83.3 190.1 83.4 188.6C83.5 187 84.9 187 86.1 187C87.7 187 89.2 187.4 90.3 188.8C92.7 192 96.1 192.5 99.7 192.1C100.8 189.9 98.5 189.3 97.7 188.4C95.3 185.7 98.1 183.2 98.9 183.1C105.4 182.5 111 178.3 118 179.3C122.3 179.9 123.5 182.1 123.9 185.6C124.6 190.6 123.1 195.2 121.4 199.7C121.2 200.1 120.8 200.8 120.5 200.9C111.5 201.2 118.1 205.6 119.2 207.2C121.3 210.2 123.9 212.9 125.3 216.5C125.3 216.6 125.7 216.6 125.8 216.5C126 216.4 126.1 216.2 126.2 216.1C128.8 210.3 128.4 204.2 128.7 198.1C128.8 196.4 128.2 194.5 130.1 193.3C131.5 192.5 133.3 191.8 134.5 193C135.7 194.3 134.3 195.8 133.1 196.3C130.4 197.4 130.8 199.5 130.9 201.6C131.3 206.8 130.9 211.8 127.8 216.3C126.7 218.7 124.9 220.6 122.8 222.1C121.5 223.1 120.8 224.1 122.2 226.3ZM137.3 242.2C135.9 241.5 135.2 241.2 134.6 240.8C133 239.6 131.4 239.7 129.6 240.6C127 241.9 125.9 241.8 127.6 238.4C128.7 236.3 125.3 236.1 124.8 233.7C128.8 233.5 131.2 231.9 131.5 227.2C134.2 230.6 135.6 234.8 140.9 233.1C137.9 235.7 135.6 238 137.3 242.2Z" />
			<path id="Layer" class="shp3" d="M229.7 109.9C205.3 110.1 181 110 156.6 110C155.7 126.6 156.3 143.3 156.3 159.9C156.2 160.9 156.2 161.8 156.1 162.8C156 164.2 155.9 165.6 155.9 167C156 168 156.1 169.1 156.2 170.1C157 170.1 157.9 170.1 158.7 170.1C170.3 170.2 181.9 170.3 193.5 170.4C198.9 170.4 204.3 170.5 209.7 170.5C211.7 170.5 213.7 170.5 215.6 170.5C221 170.4 226.4 170.3 231.8 170.2C232.8 170.2 233.7 170.2 234.7 170.1C234.7 168.2 234.6 166.3 234.6 164.5C234.6 147.9 234.5 131.2 234.8 114.6C234.8 110.7 233.5 109.9 229.7 109.9ZM172.2 166.4C168.2 164 165 164.5 160.5 166.9C163.2 162.7 162.4 160.3 158.6 158.5C163.2 158.1 166.1 156.9 166.5 152.1C168.4 156.1 170.6 158.7 175.6 157.4C174.1 160.7 169.1 161.6 172.2 166.4ZM211.1 159.8C212.5 163 211 165.6 209.7 168.4C209.6 168.4 209.4 168.4 209.3 168.4C206.2 168.4 203.1 168.4 200 168.4C199.6 168.4 199.3 168.4 198.9 168.4C198.1 166.2 199.4 166 201.1 165.8C202.9 165.6 204.9 166.7 206.3 164.7C206.3 164.5 206.3 164.3 206.3 164.2C206 163.6 205.6 163 205.2 162.4C204.7 162.1 204.1 161.9 203.6 161.6C202.2 161 199.6 160.4 199.6 159.6C199.3 153.7 194.1 155.9 191.3 154.3C188.9 156.2 186.4 158.1 183.7 160.2C181.8 156.8 180.3 153.3 176.1 152C180.5 149.6 182.3 153.5 185.5 156C186.4 148.5 190.9 146.3 197.5 147.5C195 142.2 190 139.6 185.7 136.2C181.9 135.3 178.8 132.4 174.7 132.7C173.6 132.8 172 132.7 172.3 131.1C172.6 129.7 173.8 128.8 175.4 129.6C178.6 131.2 181.9 132.2 185.5 131C185.1 130.4 184.8 129.8 184.4 129.1C180.1 127.1 177.6 122.2 172.2 121.8C178.2 117.9 180.9 125.2 185.6 125.6C186.8 125.1 190.5 126.7 187.4 122.8C185.5 120.3 181.6 120.8 180.5 116.9C187.6 119.5 192.7 114 199 113.3C203 112.8 207.4 111.1 210.3 114.1C214.4 118.3 213.2 124.1 211.2 128.9C210.4 130.9 211.4 135.9 205.7 134.5C204.4 134.2 205.6 137.9 206.7 139.3C209.3 142.8 212.7 145.8 213.9 150.3L214 150.4C217.7 144.6 216.6 137.9 217.6 131.6C217.8 130.4 217.4 129.2 217.7 128.1C218.2 126.3 220 126.1 221.5 125.9C222.1 125.8 223.3 126.1 223.5 126.6C224.1 128.2 222.8 129.4 221.7 129.9C219.2 131 219.7 132.8 219.9 134.8C220.3 140.6 219.9 146.2 215.8 150.9C214.9 153.2 213 154.7 211 155.9C208.7 157 210.2 158.4 211.1 159.8ZM228.8 166.4C225.1 164.8 221.8 163.8 218 166.2C220.6 162.3 218.2 160.7 214.8 159.2C218.4 157.3 223 157.9 222.6 151.4C225.2 156.2 227.4 159 232.2 157.5C231.1 160.7 225.2 161.4 228.8 166.4Z" />
			<path id="Layer" class="shp3" d="M276.1 196.8C275.8 196.8 275.5 196.7 275.3 196.6C275.4 196.8 275.5 197 275.5 197.2C275.7 197.1 275.9 196.9 276.1 196.8Z" />
			<path id="Layer" class="shp3" d="M45.5 50.7C45.8 50.2 46.2 49.8 46.7 49.5C46.1 49.6 45.7 50 45.5 50.7Z" />
			<path id="Layer" class="shp4" d="M160.6 204.4C160.8 204.2 161.1 204 161.2 203.8C161 203.9 160.7 204.1 160.6 204.4Z" />
			<path id="Layer" class="shp4" d="M205.3 162.3C205.7 162.9 206 163.5 206.4 164.1C206.4 163.2 205.9 162.7 205.3 162.3Z" />
			<path id="Layer" fill-rule="evenodd" class="shp4" d="M246.4 206.3C243.6 215.3 237 221.3 230.1 227C206 247 177.6 258.3 147.7 266.1C144.8 266.9 142.7 265.4 140.3 264.7C110.2 256.4 82 244.4 58.5 223.2C50.3 215.8 44.6 207 44.1 195.6C46 193.6 45.1 191.1 45.1 188.8C45.2 145.1 45.2 101.5 45.2 57.8C45.3 54 45.1 51.9 45.5 50.7C45.8 50.2 46.2 49.8 46.7 49.5C47.9 49.1 50 49.2 53.7 49.1C55.7 49 58 50 59.7 48.5L215.2 48.5C216.5 49.6 218.3 49.1 219.9 49.1C227 49.2 234.2 49.5 241.3 49C246.6 48.7 247.9 50.5 247.9 55.7C247.7 96.2 247.8 136.7 247.8 177.2C247.8 185.9 248.5 194.6 245.6 203.1C245.2 204.2 245.4 205.4 246.4 206.3ZM95.4 150.6C95.7 150.9 96.1 151.2 96.5 151.5C95.9 156.5 98.7 154.6 101 153.8C102.1 153.9 103.1 153.8 103.7 152.7C104.6 153.4 106.2 154.1 105.7 155.3C104.9 157.1 103.9 155.2 102.9 155.1C101.6 154.9 100.3 155.7 100 156.7C99.7 158 101.3 158.3 102.2 158.8C103.1 159.3 104.5 157.5 105.2 159.4C104.1 161.4 101.6 162.4 101.5 165.2C101.5 165.8 99.3 166.3 100.7 167.7C101.7 168.6 102.5 167.9 103.3 167.3C110.3 161.6 117.1 150.6 107.2 140.8C108 139.6 108.7 138.4 109.5 137.2C109.7 133.6 106.4 131.5 104.6 132.5C101.1 134.4 98.4 132.8 95.4 132.1C94.6 134 96.2 134.8 96.6 136C94.5 139.6 95.8 142.8 97.5 146C95.1 144.9 94.5 147 93.8 148.3C93.1 149.5 94 150.4 95.4 150.6ZM64.1 133.6C67.1 135.9 66.3 143.5 73.2 140.7C74.2 140.5 75.1 140.3 76.8 139.9C74.3 143 71.5 145.5 72.4 149.6C84.6 142.4 86.6 132.9 78.7 121.8C81.6 120.7 80.1 119.6 78.7 118.5C85.9 118 78.7 115.7 79.1 114.2C80.1 110.6 77.7 113.5 77.3 113.6C73.6 114.1 70 115.8 66.2 112.9C66.3 115.5 67.1 116.8 69.1 117.2C67.9 120.3 69 124.4 65 126.3C65 126.4 65.4 127.3 65.6 127.9C61.5 128.8 62.4 132.3 64.1 133.6ZM59.9 174.6C59.9 174.7 59.9 174.9 59.9 175.1C87 175.1 114.2 175.1 141.3 175.1C141.4 175 141.5 174.8 141.6 174.6C114.4 174.6 87.1 174.6 59.9 174.6ZM135.1 140.2C132.9 142.1 131.2 143.8 130.4 146.3C130.1 147.1 128.1 147.5 129.6 148.8C130.8 149.8 131.8 148.9 132.7 148.1C136.1 145.3 138.9 141.9 140.3 137.7C142.9 129.7 139.7 123.4 132.4 121.3C131.3 123.7 134.1 125.3 134.2 127.6C131 128.5 131.4 124.2 128.7 124.6C127 127.5 130 128.7 130.9 130.6C132 132.7 133.5 134.6 135.1 137.1C132.4 136.9 129.2 135.5 129 138C128.8 141.3 132.5 139.4 135.1 140.2ZM129.7 133.9C129.6 133 128.6 132.4 127.5 132.4C126.5 132.8 124.9 132.7 125.2 134.4C125.3 135.2 126.4 136.5 126.9 136.4C128.2 136.2 129.7 135.4 129.7 133.9ZM139.3 117C136.7 117.1 138.2 111.6 134.2 113.4C131.1 114.8 127.7 115.3 123.1 112.3C124.2 114.7 124.3 115.5 124.7 115.7C128.9 117.9 133.8 116.6 138.2 118.2C138.4 118.3 138.9 117.4 139.3 117ZM122.6 129.8C122.2 130.7 122.7 131.9 124 131.7C125.3 131.5 126.6 131 127.1 129.3C126.5 128.6 126 127.3 125.3 127.2C123.7 127 123.1 128.7 122.6 129.8ZM144.1 248.4C144.2 226.3 144.2 204.2 144.1 182.1C144.1 180.2 144.9 178 142.7 176.7C115.9 176.5 89.1 176.4 62.3 176.2C59.4 176.2 58.3 177.4 58.2 180C58.1 182.4 57.8 184.8 58 187.1C59.4 206.4 69 220 85.9 229.1C104.1 238.8 123.1 246.5 142.3 254C142.5 253.9 142.6 253.9 142.7 253.8C144.9 252.5 144.1 250.2 144.1 248.4ZM158.5 100.1C161.3 103.1 163.9 99.8 166.7 99.9C175.2 100.3 183.7 99.1 192.1 101.1C192.9 101.3 194.1 102 194.4 100.5C194.4 100.1 193.4 99.4 192.8 98.9C195.8 98.6 195 97 194.1 95.4C194.8 95 195.3 94.3 195 93.5C192.5 85.2 189.9 77 187.4 68.7C186.9 67.2 185.9 66.7 184.3 66.6C171.1 65.6 158.9 68.4 147.7 75.5C146.4 73.8 145.6 74.1 145.2 76.1C144.7 78.5 146 81.2 144.1 83.4C144.3 73 144.2 72.9 135.2 69.8C131.1 68.4 126.8 67.9 122.4 67.6C116.6 67.2 111.3 67.3 110.3 75.1C110 77.3 108.3 79.4 107.3 81.5C103.6 81.7 102.9 84.5 102.1 87.3C98 91 96.1 95.9 95.4 101.2C95.2 102.4 96.7 102.2 97.6 101.6C108.1 100.2 118.4 98.5 129 99.7C130.4 99.9 130.8 99.2 130.6 98C132.6 99.4 134.7 100 136.8 98C139.8 99.1 142.5 99.6 142.7 95.1C142.8 96 143 97 143.3 99.4C144.4 94.7 145.1 91.6 145.8 88.4C145.2 93.2 149.5 99.1 143 102.5C142.5 102.7 141.6 103.1 141.6 103.2C142.2 105.9 144.3 106.8 146.4 105.8C148 105.1 152.5 106.2 150.3 101.5C149.7 100.2 151.5 99.9 152.5 99.4C154.3 101.5 156.8 98.7 158.5 100.1ZM169.9 192.3C168.5 190.4 166.7 187.9 164.2 188.8C161.1 189.9 165.8 192.4 164 194.2C162.1 194.4 161.9 191.1 159.6 192C159 191.1 158.8 190.1 157.1 190.9C155.2 191.8 154.7 192.9 155 194.8C154.7 196.1 153.2 197.1 153.9 198.7C153.6 201 153.3 203.6 155.6 205.1C158.7 207.2 159.4 209.8 158.5 213.2C158.2 214.4 158.9 215.5 160.3 215.8C160.8 216.1 161.4 216.8 161.7 216.7C170.3 214 175.2 199.5 169.9 192.3ZM162.3 185C165.5 184.9 168.9 185 168.5 180C159.6 182.1 159.6 182.1 155.2 180.5C155.5 185.5 159.1 185 162.3 185ZM199.2 211.2C200.1 208.2 198.1 206.3 196.5 204.3C198 204.4 199.3 204.3 199.6 202.5C197 202.5 195.9 198.3 193.8 199.5C190.4 201.5 187.3 200.2 184 199.4C184.5 202.6 186.2 203.2 188.7 203.1C191 203 193.4 202.5 195.5 204C185.5 204.2 185.5 204.2 183.5 213.9C183.3 215 182 215.9 182.9 217.1C184.1 218.7 185.4 216.7 186.6 217C187.7 217.1 188.8 217.2 189.4 218.2C187.5 217.7 185.7 218.2 185.4 220.1C185.2 221.5 186.6 222.3 188.2 222.2C188.3 222.7 188.3 223.3 188.4 223.8C189.6 226.9 192.6 225.4 194.9 226C193.8 228.5 191.1 229.2 190.5 231.8C190.3 232.9 188.5 233.8 190 235.1C191.4 236.4 192 234.7 192.8 234.1C200.7 227.9 202.7 220.6 199.2 211.2ZM227.8 192.1C229.4 189.7 225.5 187.6 227.6 185.2C225.6 184 226.5 178.6 223.1 180.6C219.4 182.7 216.5 181.3 213.3 180.3C212.7 182.4 214 183.3 214.6 184.5C214.4 187.9 212.4 191.5 215.6 194.6C212.2 194.5 211.3 196.1 212.3 199.2C209.2 200.6 209.9 202.8 212.2 203.6C213.1 203.9 215.3 208.9 216.7 203.7C217.1 203.5 217.6 203.2 218 203C218 203.4 218.1 203.9 218.1 204.3C217.4 209.3 222.2 205.9 223.8 207.8C222.1 209.6 220.4 211.1 219.3 213.3C218.8 214.3 217.5 214.7 218.6 216C219.7 217.4 220.5 216.4 221.5 215.7C229.4 210.2 231.8 201.1 227.8 192.1ZM234.5 164.5C234.5 147.9 234.4 131.2 234.7 114.6C234.8 110.6 233.5 109.8 229.7 109.8C205.3 110 181 109.9 156.6 109.9C154.7 110.7 154.9 112.3 154.9 113.9C154.9 130.7 154.8 147.5 154.9 164.3C154.9 165.2 155.5 166.1 155.8 167C155.9 168 156 169.1 156.1 170.1C157 172.3 159 171.8 160.7 171.8C183.8 171.8 206.8 171.8 229.9 171.8C231.6 171.8 233.6 172.4 234.6 170.3C234.6 168.4 234.6 166.5 234.5 164.5Z" />
			<path id="Layer" class="shp4" d="M214.3 150.2L214.2 150.1C214.2 150.2 214.3 150.2 214.3 150.2C214.2 150.3 214.3 150.2 214.3 150.2Z" />
			<path id="Layer" class="shp4" d="M188.4 211.2C188.4 211.2 188.5 211.2 188.5 211.1C188.5 211.1 188.5 211.1 188.4 211.2L188.4 211.2Z" />
			<path id="Layer" class="shp4" d="M192.3 208.6C192.8 207.9 193.3 207.4 193.7 207C193.4 206.9 193 206.9 192.7 206.9C192.4 207.5 192.3 208.1 192.3 208.6Z" />
			<path id="Layer" class="shp4" d="M217.8 192.5C216.8 193.5 217.1 194.4 217.7 195.3C218 194.6 218.6 193.8 219.4 192.5C219.1 191.9 218.6 191.7 217.8 192.5Z" />
			<path id="Layer" class="shp4" d="M70.4 124.5C70.4 124.6 70.4 124.6 70.4 124.5C70.5 124.6 70.5 124.5 70.4 124.5C70.5 124.6 70.4 124.5 70.4 124.5Z" />
			<path id="Layer" fill-rule="evenodd" class="shp5" d="M224.8 271.7C224.8 271.8 224.8 271.9 224.9 272C229.1 276.6 227.3 279.5 222.6 282.6C207.3 292.8 190.1 296.9 172.3 299.1C147 302.2 122 300.6 97.5 293.3C88.5 290.6 80.3 286.3 72.6 280.9C69.8 278.9 68.8 277.3 71.1 274.3C73.3 271.4 72 269.8 69.1 268C43.1 251.4 22.6 229.9 10.1 201.3C7.1 194.4 4.9 187.2 2.8 178.5C8.3 182.7 12.8 186 17.1 189.4C19.3 191.1 20.2 190.9 21.4 188.3C24.4 181.5 26.4 174.6 26.3 167.1C26.3 165.9 25.3 164 27.3 163.6C29 163.2 29.5 165.1 30.1 166.2C32.2 170 33.2 174.2 33.7 178.6C37.9 212.3 56.6 235.6 85.6 251.6C87.3 252.6 89.2 253.2 90.9 254.2C92.5 255.2 94.5 256.1 94.5 258.5C94.5 259.6 93.2 260.6 90.1 262.6C128.4 277.5 167 278.2 205.8 263.6C206.7 264.3 207.6 265.1 208.5 265.8C207.5 266.4 206.5 267.1 205.4 267.5C163.2 283 121.8 282.2 80.8 262.4C80.8 262.4 80.3 263.3 79.9 264.2C73.1 278.6 73 278.8 87.9 285.5C110.5 295.7 134.5 297.6 158.9 296.5C179.9 295.5 200.2 291.6 218.6 280.6C222.2 278.4 223.9 276.2 221.4 272.3C221.9 271.1 222.6 270.1 223.9 269.7C224.2 270.3 224.5 271 224.8 271.7ZM75 264.4C76.4 258.9 79.8 256.3 85.9 256.8C54.7 239.4 34.5 214.5 29.4 177.4C26.9 184 24.7 189.1 23 194.3C22.1 197.2 21.1 197.1 19 195.4C16.2 193.1 13.2 191.1 9.3 188.2C14.7 205.6 23 219.8 34 232.5C37.4 236.4 40.2 241 45.2 243.4C52.4 252.8 62.4 258.8 71.8 265.4C73.4 266.5 74.5 266 75 264.4Z" />
			<path id="Layer" class="shp6" d="M275.4 187C273 181.7 272.1 176.1 270.8 170.5C270.3 168.1 272.7 164.1 269.9 163.8C266.9 163.5 266.3 167.9 265.4 170.6C264.4 173.4 263.8 176.3 263.6 179.3C263.2 184.9 262 190.3 260.3 195.5C251.4 222.2 233.5 240.8 208.7 253.2C209.9 253.9 211.1 254.6 212.3 255.4C217.2 254.1 220.8 250.3 225.4 248.3C235.8 240.4 245.1 231.5 252.6 220.7C260.5 207.8 266.3 194.2 268.5 178.7C270.8 184.6 273.1 190.5 275.5 196.7C275.8 196.8 276 196.9 276.3 196.9C280.1 194.1 283.6 191.5 288 188.3C284.2 200.8 279.3 211.5 272 221L272 221C262.4 235.5 250.4 247.7 236.2 257.8C232.6 260.6 229 263.3 225.4 266.1C224.6 267.1 223.2 268 224 269.5C224.9 269.8 224.7 270.9 225 271.7C225 271.8 225.1 271.9 225.1 272C224.8 269 227.6 268.7 229.2 267.7C244.8 257.6 258.6 245.5 270 230.8C281.9 215.5 290.1 198.5 294.7 178.6C289.7 182.3 285.2 185.2 281.2 188.7C277.8 191.6 276.9 190.3 275.4 187Z" />
			<path id="Layer" class="shp6" d="M223.9 269.7L223.9 269.7C224.2 270.3 224.4 270.9 224.7 271.6C224.5 270.8 224.7 269.7 223.7 269.4C223.8 269.5 223.9 269.6 223.9 269.7L223.9 269.7Z" />
			<path id="Layer" class="shp6" d="M224.9 271.9C224.9 271.8 224.8 271.7 224.8 271.6C224.8 271.7 224.8 271.8 224.9 271.9Z" />
			<path id="Layer" class="shp7" d="M219.5 48.5C227.4 48.6 235.4 48.7 243.3 48.5C246.9 48.4 248.5 49.1 248.5 53.3C248.3 99.7 248.4 146.1 248.4 192.4C248.4 197.2 246.2 201.6 246.4 206.4C250.2 197.5 249.2 188.1 249.2 178.8C249.2 136.7 249.1 94.6 249.3 52.5C249.3 50.6 249.1 49.3 248.5 48.5L215.6 48.5C216.8 48.9 218.3 48.4 219.5 48.5Z" />
			<path id="Layer" class="shp7" d="M248.5 53.3C248.5 49.1 246.9 48.4 243.3 48.5C235.4 48.7 227.4 48.6 219.5 48.5C218.2 48.5 216.8 49 215.6 48.5L215.2 48.5C216.5 49.7 218.3 49.1 219.9 49.1C227 49.2 234.2 49.5 241.3 49C246.7 48.6 247.9 50.5 247.9 55.7C247.7 96.2 247.8 136.7 247.8 177.2C247.8 185.9 248.5 194.6 245.6 203.1C245.2 204.2 245.4 205.5 246.4 206.4C246.3 201.6 248.4 197.2 248.4 192.4C248.4 146 248.3 99.6 248.5 53.3Z" />
			<path id="Layer" class="shp0" d="M44.6 179.1C44.7 139.2 44.7 99.4 44.7 59.5C44.7 54.8 44.7 52.2 45.5 50.6C45.7 50 46.1 49.6 46.7 49.4C48.2 48.6 50.8 48.5 55.4 48.4C56.7 48.4 58.3 49.1 59.6 48.4L44.2 48.4C43.5 49.3 43.4 50.8 43.4 52.8C43.6 94.5 43.5 136.1 43.5 177.8C43.5 183.7 42.8 189.7 44.1 195.6C45.2 190.2 44.6 184.6 44.6 179.1Z" />
			<path id="Layer" class="shp0" d="M45.2 188.8C45.3 145.1 45.2 101.5 45.3 57.8C45.3 54 45.2 51.9 45.6 50.7C44.8 52.2 44.8 54.9 44.8 59.6C44.8 99.5 44.9 139.3 44.7 179.2C44.7 184.7 45.4 190.3 44.3 195.7C46.1 193.6 45.2 191.1 45.2 188.8Z" />
			<path id="Layer" class="shp0" d="M55.4 48.4C50.8 48.5 48.2 48.5 46.7 49.4C47.9 49 50 49.1 53.7 49C55.7 48.9 58 49.9 59.7 48.4L59.5 48.4C58.3 49.1 56.7 48.4 55.4 48.4Z" />
			<path id="Layer" class="shp8" d="M208.7 265.6C216.1 261.8 216.1 261.8 219.9 269.8C220.2 270.3 220.5 270.9 220.8 271.4C221.2 270.4 221.9 269.7 223.1 269.3C223.2 269.3 223.3 269.3 223.4 269.3C221.9 268 222.7 266.9 223.6 265.8C223.3 265.8 223.1 265.7 223 265.5C221.1 260.2 218.2 256.2 211.8 256.9C211.8 256.7 211.9 256.4 211.9 256.2C210.2 255.8 208.5 255.4 208.5 253.1C201.4 256.5 201.4 256.5 206.4 261.9C206.6 262.1 206 262.9 205.8 263.4C207.8 263.1 208.6 264 208.7 265.6Z" />
			<path id="Layer" class="shp8" d="M223.1 269.3C221.9 269.7 221.2 270.4 220.8 271.4C221 271.7 221.2 272 221.4 272.3C221.9 271.1 222.6 270.1 223.9 269.7C223.7 269.6 223.6 269.4 223.4 269.3C223.3 269.3 223.3 269.3 223.1 269.3Z" />
			<path id="Layer" class="shp8" d="M208.7 265.6C208.6 264 207.7 263.2 205.8 263.5C206.7 264.2 207.6 265 208.5 265.7C208.6 265.7 208.6 265.6 208.7 265.6Z" />
			<path id="Layer" class="shp8" d="M223.4 269.3C223.5 269.3 223.6 269.3 223.7 269.4C222.9 267.8 224.4 267 225.1 266C224.7 265.9 224 265.9 223.6 265.8C222.7 266.9 221.9 268 223.4 269.3Z" />
			<path id="Layer" class="shp8" d="M212 256.2C212.1 255.9 212.1 255.6 212.2 255.3L212.2 255.3C211 254.6 209.8 253.9 208.6 253.1C208.6 255.4 210.3 255.8 212 256.2Z" />
			<path id="Layer" class="shp8" d="M223.9 269.7L223.9 269.7C223.8 269.6 223.8 269.5 223.7 269.4C223.6 269.4 223.5 269.4 223.4 269.3C223.6 269.4 223.7 269.6 223.9 269.7Z" />
			<path id="Layer" class="shp9" d="M187.8 94.9C190 95 192.1 95.4 194.2 95.7C195 95.3 195.4 94.6 195.1 93.8C192.6 85.5 190 77.3 187.5 69C187 67.4 186 67 184.4 66.9C171.2 65.8 159 68.7 147.8 75.8L147.8 75.8C148.1 83.1 148.7 90.4 148.4 97.7C148.3 100.1 149.2 106.2 142.8 102.6C142.3 102.8 141.4 103.2 141.4 103.3C142 106 144.1 106.9 146.2 105.9C147.8 105.2 152.3 106.3 150.1 101.6C149.5 100.3 151.3 99.9 152.3 99.5C163.7 93.5 175.8 94.6 187.8 94.9Z" />
			<path id="Layer" class="shp10" d="M144.3 83.6C144.5 73.3 144.4 73.1 135.4 70C131.2 68.6 126.9 68.1 122.6 67.8C116.7 67.4 111.4 67.4 110.5 75.3C110.2 77.5 108.5 79.6 107.5 81.7C106.5 86.5 103.4 90.7 103.2 96.1C114.6 94.8 126 94.2 137 98.2C140 99.2 142.7 99.7 142.9 95.3C142.7 91.3 143 87.4 144.3 83.6Z" />
			<path id="Layer" class="shp11" d="M74.3 120.1C72.8 123 75.8 125.1 76.3 127.6C73.1 128.3 73.5 124.8 70.6 124.5C70.6 124.5 70.5 124.5 70.5 124.6C70.9 129.8 74.9 132.7 77.2 136.9C75 137.3 72.2 135.4 70.8 137.9C70 139.5 72.8 139.4 73.2 140.7L73.2 140.7L73.2 140.7C74.1 140.5 75.1 140.3 76.8 139.9C74.3 143 71.5 145.5 72.4 149.6C84.6 142.4 86.6 132.9 78.7 121.8C77.1 121.3 76.1 119.7 74.3 120.1Z" />
			<path id="Layer" class="shp12" d="M164.3 188.8C161.2 189.9 165.8 192.4 164.1 194.2C162.2 194.4 162 191.1 159.7 192C159.9 197 164.4 199.7 166.5 204.4C164.8 204.4 162.5 203.3 161.3 203.8C161.1 204 160.9 204.2 160.7 204.4C160.6 204.6 160.5 204.9 160.5 205.2C160.2 208.4 164 206.4 166.1 207.4C164 210.3 160.8 212.1 160.4 215.8L160.4 215.8C160.9 216.1 161.5 216.8 161.8 216.7C170.4 213.9 175.3 199.4 170 192.3C168.5 190.4 166.8 187.9 164.3 188.8Z" />
			<path id="Layer" class="shp13" d="M193.7 207C193.3 207.4 192.8 207.9 192.3 208.6C192.5 210.4 194.4 211.7 193.8 213.5C191.3 214.2 191.3 210.5 188.5 211.1C188.5 211.1 188.4 211.1 188.4 211.2C189.1 215.9 192.8 218.9 195.8 223.3C192.7 222.5 190.3 221.8 188.4 223.8L188.4 223.8C189.6 226.9 192.6 225.5 194.9 226C193.8 228.5 191.1 229.2 190.5 231.8C190.2 232.9 188.5 233.8 190 235.1C191.4 236.4 192 234.7 192.8 234.1C200.7 227.9 202.7 220.6 199.2 211.1C197.6 209.5 196.1 207.6 193.7 207Z" />
			<path id="Layer" class="shp14" d="M130.3 146.3C130.1 147.1 128 147.5 129.5 148.8C130.6 149.8 131.6 148.9 132.6 148.1C136 145.3 138.8 141.9 140.2 137.7C142.8 129.7 139.6 123.4 132.3 121.3C131.2 123.7 134 125.4 134.1 127.6C130.9 128.4 131.3 124.2 128.6 124.6C127 127.5 129.9 128.7 130.8 130.6C131.9 132.7 133.4 134.6 135 137.1C132.3 136.9 129.1 135.5 128.9 138C128.7 141.3 132.4 139.4 135 140.2C132.8 142.1 131.1 143.8 130.3 146.3Z" />
			<path id="Layer" class="shp14" d="M104.8 146.3C104.4 146.4 104 146.6 103.7 146.5C102 146.1 101.7 142.4 99.9 143.8C97.6 145.5 100.6 147.1 101.4 148.6C102.1 150 102.9 151.4 103.7 152.7C104.6 153.4 106.2 154 105.7 155.3C104.9 157.2 103.9 155.2 102.9 155.1C101.6 154.9 100.3 155.7 100 156.7C99.7 158 101.3 158.3 102.2 158.8C103.1 159.3 104.5 157.6 105.2 159.4C104.1 161.4 101.6 162.4 101.5 165.2C101.5 165.8 99.3 166.2 100.7 167.7C101.6 168.6 102.5 167.9 103.3 167.3C110.3 161.6 117.1 150.6 107.2 140.8C105.9 140.4 104.7 139.9 103.4 139.5C102.2 142.3 105.2 143.9 104.8 146.3Z" />
			<path id="Layer" class="shp15" d="M221.6 188.1C220.4 190.9 223.4 192.6 222.9 194.9C221.1 195.5 220.4 193.5 219.5 192.5C218.6 193.7 218 194.6 217.8 195.3C218.5 196.3 219.7 197.3 220.2 198.3C221.1 200.3 222.8 202 224.8 204.7C222 204.3 220 202.9 218.1 204.3C217.4 209.3 222.2 205.9 223.8 207.8C222.1 209.6 220.3 211.1 219.3 213.3C218.8 214.3 217.5 214.7 218.6 216C219.8 217.4 220.6 216.4 221.5 215.7C229.4 210.2 231.8 201.2 227.8 192.1C226.1 190.3 224.1 188.8 221.6 188.1Z" />
			<path id="Layer" class="shp16" d="M219.6 199.7C217.7 197.4 217.3 196.5 217.8 195.2C217.2 194.3 216.9 193.4 217.9 192.4C218.6 191.7 219.1 191.9 219.6 192.4C219.8 192.1 220 191.8 220.2 191.5C221.2 190 220.3 187 223.6 187.7C225.7 188.2 227.7 189.3 227.9 191.9C229.4 189.6 225.5 187.4 227.7 185C223.4 184.7 219.1 183.6 214.7 184.3C214.5 187.7 212.5 191.3 215.7 194.4C216.8 197.6 214.9 198.5 212.4 199L212.4 199C209.4 200.5 210 202.6 212.3 203.4C213.2 203.7 215.5 208.7 216.8 203.5C215.3 202.8 213.7 202.2 215 200.2C215.7 199.2 216.8 198.6 218.1 199.5C219.5 200.5 219.6 201.7 218.2 202.8C218.2 203.2 218.3 203.7 218.3 204.1C218.7 202.8 222 202.7 219.6 199.7Z" />
			<path id="Layer" class="shp16" d="M223.5 187.8C220.2 187.1 221.1 190 220.1 191.6C219.9 191.9 219.7 192.2 219.5 192.5C220.3 193.5 221.1 195.5 222.9 194.9C223.4 192.6 220.3 191 221.6 188.1C224.1 188.8 226.1 190.3 227.9 192C227.6 189.4 225.7 188.3 223.5 187.8Z" />
			<path id="Layer" class="shp16" d="M224.8 204.7C222.8 202 221.1 200.3 220.2 198.3C219.7 197.3 218.5 196.3 217.8 195.3C217.3 196.6 217.8 197.5 219.6 199.8C222 202.8 218.7 202.9 218.1 204.3C220 202.9 222 204.3 224.8 204.7Z" />
			<path id="Layer" class="shp17" d="M65.6 127.9L65.6 127.9L65.6 127.9L65.6 127.9Z" />
			<path id="Layer" fill-rule="evenodd" class="shp17" d="M65.6 127.8C65.3 129 63.6 130 65.2 131.3C66.4 132.4 67.4 131.2 68.3 130.7C69.3 130.1 69.3 129.3 68.8 128.2C67.9 126.3 66.8 127 65.7 127.8C65.6 127.8 65.6 127.8 65.6 127.8C65.4 127.2 65 126.2 65 126.2C69 124.3 67.9 120.2 69.1 117.1C72.4 116.5 75.6 116.7 78.6 118.4C80 119.5 81.4 120.6 78.6 121.7C77.7 119.6 76.1 118.5 73.9 119.5C72 120.3 73.4 123.3 70.5 124.5L70.4 124.5C70.4 124.6 70.4 124.6 70.4 124.6L70.3 124.6C67.7 125.6 70.6 129.1 71.6 131.3C72.3 133 74.8 134.3 71.2 136.5C67.7 138.7 70.4 140.2 73.1 140.7C66.2 143.6 67 135.9 64 133.6C62.4 132.3 61.5 128.8 65.6 127.8ZM67.2 134.3C67.3 135.2 68.1 136.4 70.8 136.4C71 136.2 72 135.2 72.1 134.2C72.1 133 71.1 132 69.7 132.3C68.5 132.5 67.1 132.9 67.2 134.3Z" />
			<path id="Layer" class="shp17" d="M65.7 127.9L65.7 127.9L65.7 127.9C65.6 127.9 65.6 127.9 65.7 127.9C65.6 127.9 65.7 127.9 65.7 127.9Z" />
			<path id="Layer" class="shp17" d="M65.7 127.9C65.6 127.9 65.6 127.9 65.7 127.9C65.6 127.9 65.6 127.9 65.7 127.9C65.6 127.9 65.6 127.9 65.7 127.9Z" />
			<path id="Layer" class="shp17" d="M73.9 119.5C72 120.3 73.4 123.3 70.5 124.5C73.5 124.7 73.1 128.3 76.2 127.6C75.7 125.1 72.8 123 74.2 120.1C76 119.7 77 121.3 78.5 121.8C77.7 119.6 76.1 118.6 73.9 119.5Z" />
			<path id="Layer" class="shp17" d="M70.7 137.8C72 135.3 74.9 137.2 77.1 136.8C74.8 132.7 70.7 129.7 70.4 124.5L70.3 124.5C67.7 125.4 70.6 128.9 71.6 131.2C72.4 132.9 74.9 134.2 71.2 136.4C67.7 138.6 70.4 140.1 73.1 140.6C72.7 139.4 69.9 139.4 70.7 137.8Z" />
			<path id="Layer" class="shp18" d="M158.6 100.4C162.5 99.4 166.3 97.7 170.5 98.2C174.7 98.2 179 98.2 183.2 98.2C186.4 98.5 189.6 98.9 192.9 99.2L192.9 99.2C195.8 99 195 97.4 194.2 95.7C193.1 96.8 191.7 97 190.4 96.8C177.6 94.8 165.1 97.1 152.6 99.4C154.3 101.5 156.8 98.7 158.6 100.4Z" />
			<path id="Layer" class="shp18" d="M190.4 96.8C191.8 97 193.2 96.8 194.2 95.7C192.1 95.4 189.9 94.9 187.8 94.9C175.8 94.6 163.8 93.6 152.6 99.4C165.1 97.1 177.6 94.7 190.4 96.8Z" />
			<path id="Layer" class="shp19" d="M105.7 97.5C101.9 97.7 101.2 95.8 102 92.7C103.1 88.7 104.2 84.7 107.4 81.7C103.7 81.9 103 84.7 102.2 87.5L102.2 87.5C101.6 91.8 99 95.2 97.6 99.2C108.6 99 119.6 96.7 130.7 98.1L130.7 98.1C132.8 99.5 134.8 100.1 136.9 98.1C126.5 97 116.1 96.9 105.7 97.5Z" />
			<path id="Layer" class="shp19" d="M103.1 96C103.3 90.6 106.4 86.4 107.4 81.6C104.2 84.6 103.1 88.6 102 92.6C101.2 95.7 101.8 97.6 105.7 97.4C116.1 96.8 126.5 96.9 136.9 98.1C125.9 94.1 114.5 94.8 103.1 96Z" />
			<path id="Layer" class="shp20" d="M193.1 221.1C190.8 219.7 190.3 217.2 188.8 215.4C187.7 214 186.7 212.2 188.4 211.2L188.4 211.2L188.5 211.2C188.9 211 189.3 210.8 189.9 210.7C190.3 210.6 190.7 210.6 191 210.3C191.5 209.7 191.9 209.2 192.3 208.7C192.2 208.2 192.3 207.6 192.7 207C193.1 207 193.4 207.1 193.7 207.1C195.7 205.3 196.7 206.6 199.2 211.2C200.2 208.2 198.1 206.4 196.5 204.3C196.2 204 195.9 203.9 195.5 204C185.5 204.3 185.5 204.3 183.5 213.9C187.7 211.8 187.2 214.3 186.6 217C187.7 217.1 188.7 217.2 189.4 218.2C190.7 220 189.5 221.1 188.2 222.1C188.3 222.6 188.3 223.2 188.4 223.7L188.4 223.7C189 221.4 191 221.2 193.1 221.1Z" />
			<path id="Layer" class="shp20" d="M195.8 223.3C192.8 218.9 189.1 215.8 188.4 211.2C186.7 212.2 187.7 214 188.8 215.4C190.2 217.2 190.8 219.7 193.1 221.1C191 221.2 189 221.3 188.4 223.8C190.4 221.8 192.7 222.5 195.8 223.3Z" />
			<path id="Layer" class="shp20" d="M190 210.6C189.4 210.7 188.9 210.9 188.6 211.1C191.4 210.4 191.4 214.1 193.9 213.5C194.5 211.7 192.5 210.4 192.4 208.6C192 209.1 191.6 209.6 191.1 210.2C190.8 210.5 190.4 210.5 190 210.6Z" />
			<path id="Layer" class="shp20" d="M193.7 207C196 207.5 197.5 209.4 199.2 211.1C196.7 206.5 195.7 205.3 193.7 207Z" />
			<path id="Layer" fill-rule="evenodd" class="shp21" d="M160.4 216C158.9 215.7 158.3 214.6 158.6 213.4C159.5 209.9 158.8 207.3 155.7 205.3C153.3 203.8 153.6 201.3 154 198.9C156.1 199.4 158.1 199 158.2 196.6C158.2 195.1 157 193.7 155 195C154.6 193.1 155.2 192 157.1 191.1C158.8 190.3 159 191.3 159.6 192.2C158.6 193.1 158.6 194.2 158.9 195.4C159.6 198.2 163.9 200.8 161.2 203.9C161 204 160.8 204.2 160.6 204.5C160.3 204.7 160 205 159.6 205.2C159.3 205.4 159.3 206.1 159.6 206.3C164.6 208.9 160.6 211.2 159.4 213.6C158.9 214.6 159 215.5 160.4 216ZM161 201.1C161 200.1 160.2 199.3 159.1 199.3C157.9 199.3 156.7 200 156.6 201.2C156.5 202.3 157.3 203.4 158.8 203.4C159.9 203 161.1 202.6 161 201.1Z" />
			<path id="Layer" class="shp21" d="M158.9 195.3C159.6 198.1 163.9 200.7 161.2 203.8C162.4 203.3 164.6 204.4 166.4 204.4C164.3 199.7 159.8 197 159.6 192C158.6 193 158.6 194.1 158.9 195.3Z" />
			<path id="Layer" class="shp21" d="M160.4 205.2C160.4 204.9 160.5 204.6 160.6 204.4C160.3 204.6 160 204.9 159.6 205.1C159.3 205.3 159.3 206 159.6 206.2C164.6 208.8 160.6 211.1 159.4 213.5C158.9 214.5 159 215.4 160.3 215.7L160.3 215.7C160.7 212 163.9 210.2 166 207.3C163.9 206.4 160.1 208.4 160.4 205.2Z" />
			<path id="Layer" class="shp21" d="M160.3 215.8L160.3 215.8L160.3 215.8Z" />
			<path id="Layer" class="shp17" d="M95.3 150.7C95.7 151 96.1 151.3 96.4 151.6C98.7 150.7 101 150.1 100.9 153.9C102 154 103 153.9 103.6 152.8C100.5 152 99.5 149.4 98.7 146.8C98.1 145 97.5 142.6 100.9 142.9C101.9 143 102 142.9 102.2 141.9C103 137.3 105.1 139 107.1 141C107.9 139.8 108.6 138.6 109.4 137.4C105.2 136.4 100.9 135.5 96.5 136.2C94.4 139.7 95.7 143 97.4 146.2C98.7 148.5 97 149.6 95.3 150.7Z" />
			<path id="Layer" class="shp17" d="M102.2 141.8C102 142.8 101.9 142.9 100.9 142.8C97.5 142.5 98.1 144.9 98.7 146.7C99.5 149.3 100.5 151.9 103.6 152.7C102.8 151.3 102 150 101.3 148.6C100.5 147 97.5 145.5 99.8 143.8C101.6 142.4 101.9 146.1 103.6 146.5C103.9 146.6 104.3 146.4 104.7 146.3C105.1 144 102.1 142.4 103.3 139.6C104.6 140 105.8 140.5 107.1 140.9C105.1 138.9 103 137.2 102.2 141.8Z" />
			<path id="Layer" class="shp0" d="M141.3 175.1C141.4 174.9 141.5 174.7 141.6 174.6C114.4 174.6 87.2 174.6 59.9 174.6C59.9 174.8 59.9 175 59.9 175.1C87.1 175.1 114.2 175.1 141.3 175.1Z" />
			<path id="Layer" class="shp22" d="M147.8 97.5C148.4 91.9 146.3 86.6 146.6 81.1C146.7 79.2 146 77.1 148 75.7L148 75.7C146.7 74 145.8 74.3 145.5 76.3C145 78.7 146.3 81.4 144.4 83.6C145.2 87.6 144.5 91.5 142.9 95.2C143 96.1 143.1 97 143.5 99.5C144.6 94.8 145.3 91.7 146 88.5C145.3 93.3 149.7 99.2 143.2 102.6L143.2 102.6C146.8 102.9 147.4 100.6 147.8 97.5Z" />
			<path id="Layer" class="shp22" d="M148.6 97.6C148.9 90.3 148.3 83 148 75.7C146 77.1 146.7 79.2 146.6 81.1C146.3 86.6 148.5 91.9 147.8 97.5C147.4 100.6 146.8 102.9 143 102.6C149.4 106.1 148.5 100 148.6 97.6Z" />
			<path id="Layer" class="shp22" d="M144.3 83.6C143 87.4 142.7 91.3 142.8 95.2C144.4 91.5 145.1 87.7 144.3 83.6Z" />
			<path id="Layer" class="shp0" d="M230.9 171.2C207.2 171.2 183.5 171.2 159.8 171.2C158.5 171.2 157 171.9 156.1 170.2C157 172.4 159 171.9 160.7 171.9C183.8 171.9 206.8 171.9 229.9 171.9C231.6 171.9 233.6 172.5 234.6 170.4C233.7 171.8 232.2 171.2 230.9 171.2Z" />
			<path id="Layer" class="shp0" d="M227.8 170.7C223.8 170.3 219.7 170.7 215.6 170.6C213.6 170.6 211.6 170.6 209.7 170.6C204.3 170.6 198.9 170.5 193.5 170.5C182.9 170.9 172.2 170.4 161.6 170.7C160.4 170.7 159.4 170.6 158.7 170.2C157.9 170.2 157 170.2 156.2 170.2C157 171.9 158.6 171.2 159.9 171.2C183.6 171.2 207.3 171.2 231 171.2C232.3 171.2 233.8 171.8 234.8 170.3C233.8 170.3 232.9 170.3 231.9 170.4C230.7 170.8 229.4 170.9 227.8 170.7Z" />
			<path id="Layer" class="shp0" d="M193.5 170.5C181.9 170.4 170.3 170.3 158.7 170.2C159.5 170.6 160.4 170.7 161.6 170.7C172.2 170.4 182.8 170.9 193.5 170.5Z" />
			<path id="Layer" class="shp0" d="M227.8 170.7C229.5 170.9 230.8 170.7 231.8 170.3C226.4 170.4 221 170.5 215.6 170.6C219.7 170.7 223.7 170.3 227.8 170.7Z" />
			<path id="Layer" class="shp0" d="M144.1 182C144.1 180.2 144.9 178 142.7 176.6C144 177.7 143.5 179.2 143.5 180.5C143.5 203.6 143.5 226.7 143.5 249.8C143.5 251.1 144.3 252.8 142.7 253.7C144.9 252.4 144.1 250.1 144.1 248.2C144.2 226.2 144.2 204.1 144.1 182Z" />
			<path id="Layer" class="shp0" d="M143.5 249.9C143.6 226.8 143.6 203.7 143.5 180.6C143.5 179.3 143.9 177.8 142.7 176.7C142.7 192.6 142.9 208.5 142.7 224.3C142.6 234.2 143.4 244.1 142.3 254C142.4 253.9 142.6 253.9 142.7 253.8C144.2 252.9 143.5 251.2 143.5 249.9Z" />
			<path id="Layer" class="shp0" d="M155.8 160.7C155.7 160.3 155.6 159.8 155.5 159.4C155.4 144.3 155.5 129.3 155.5 114.2C155.5 112.8 154.6 111 156.6 110C154.7 110.8 154.9 112.4 154.9 114C154.9 130.8 154.9 147.6 154.9 164.4C154.9 165.3 155.5 166.2 155.8 167.1C155.5 164.9 155 162.7 155.8 160.7Z" />
			<path id="Layer" class="shp0" d="M155.5 114.2C155.5 129.3 155.4 144.3 155.5 159.4C155.6 159.8 155.7 160.2 155.8 160.7C155.9 160.4 156 160.2 156.2 159.9C156.2 143.3 155.6 126.6 156.5 110C154.6 111 155.5 112.8 155.5 114.2Z" />
			<path id="Layer" class="shp0" d="M155.8 160.7C155 162.8 155.4 164.9 155.8 167C155.9 165.6 156 164.2 156 162.8C156 162.1 156 161.4 155.8 160.7Z" />
			<path id="Layer" class="shp0" d="M156.1 162.8C156.2 161.8 156.2 160.9 156.3 159.9C156.1 160.2 156 160.4 155.9 160.7C156 161.4 156 162.1 156.1 162.8Z" />
			<path id="Layer" class="shp23" d="M97.5 99.3C96.1 100.2 96.2 101 97.8 101.8C108.2 100.5 118.6 98.8 129.2 99.9C130.6 100.1 130.9 99.4 130.8 98.2C120.2 98.6 109.5 99.2 98.9 100.2C98.3 99.9 97.8 99.6 97.5 99.3Z" />
			<path id="Layer" class="shp23" d="M97.6 99.2L97.6 99.2C97.8 99.6 98.2 99.9 98.8 100.2C109.4 99.2 120 98.6 130.7 98.2L130.7 98.2C119.6 96.7 108.7 99 97.6 99.2Z" />
			<path id="Layer" class="shp24" d="M183.1 99.1C181.7 99.1 180.3 99.1 178.9 99.1C177.6 99.2 176.4 99.2 175.1 99.1C173.8 99.1 172.4 99.1 171.1 99.1C166.8 98.3 162.9 101 158.7 100.4L158.7 100.4C161.5 103.3 164.1 100.1 166.9 100.2C175.4 100.5 183.9 99.3 192.3 101.4C193.1 101.6 194.4 102.3 194.6 100.8C194.7 100.4 193.6 99.7 193 99.2L193 99.2C189.7 101 186.4 98.7 183.1 99.1Z" />
			<path id="Layer" class="shp24" d="M171 99.1C172.3 99.1 173.7 99.1 175 99.1C173.5 98.9 172 98.6 170.5 98.1C166.3 97.6 162.5 99.3 158.6 100.3L158.6 100.3C162.9 101 166.8 98.3 171 99.1Z" />
			<path id="Layer" class="shp24" d="M183.3 98.2C181.8 98.7 180.4 99 178.9 99.2C180.3 99.2 181.7 99.2 183.1 99.2C186.4 98.7 189.7 101 192.9 99.2L192.9 99.2L192.9 99.2C189.7 98.8 186.5 98.5 183.3 98.2Z" />
			<path id="Layer" class="shp25" d="M134.2 113.4C131 114.8 127.7 115.3 123.1 112.3C124.2 114.6 124.3 115.4 124.7 115.7C128.9 117.9 133.8 116.6 138.2 118.2C138.4 118.3 139 117.4 139.3 117C136.7 117.2 138.2 111.6 134.2 113.4Z" />
			<path id="Layer" class="shp26" d="M162.4 184.9C165.6 184.9 169 185 168.6 179.9C159.6 182 159.6 182 155.3 180.4C155.5 185.5 159.1 185 162.4 184.9Z" />
			<path id="Layer" class="shp27" d="M78.6 118.5C85.8 118 78.6 115.7 79 114.2C80.1 110.6 77.6 113.5 77.2 113.6C73.5 114.1 69.9 115.7 66.1 112.9C66.2 115.6 67 116.8 69 117.2C72.6 115.1 75.8 114.8 78.6 118.5Z" />
			<path id="Layer" class="shp27" d="M78.6 118.5C75.9 114.8 72.6 115.1 69.1 117.2C72.4 116.6 75.6 116.8 78.6 118.5Z" />
			<path id="Layer" class="shp28" d="M227.6 185.2C225.6 184 226.5 178.6 223.1 180.6C219.4 182.7 216.5 181.3 213.3 180.3C212.8 182.3 214 183.3 214.6 184.5C219.1 181.1 223.4 183.3 227.6 185.2Z" />
			<path id="Layer" class="shp28" d="M227.6 185.2C223.3 183.3 219.1 181.1 214.6 184.5C219 183.8 223.3 184.8 227.6 185.2Z" />
			<path id="Layer" class="shp29" d="M196.6 204.2C198.1 204.4 199.4 204.2 199.7 202.4C197.2 202.4 196 198.2 193.9 199.4C190.4 201.3 187.4 200.1 184.1 199.3C184.6 202.5 186.3 203.1 188.8 203C191.1 202.9 193.5 202.4 195.6 203.9C196 203.7 196.4 203.8 196.6 204.2Z" />
			<path id="Layer" class="shp29" d="M196.6 204.2C196.4 203.7 196.1 203.6 195.6 203.9C196 203.8 196.3 203.9 196.6 204.2Z" />
			<path id="Layer" class="shp30" d="M109.5 137.2C109.8 133.6 106.5 131.5 104.6 132.5C101.1 134.4 98.4 132.8 95.4 132.1C94.6 134 96.2 134.8 96.6 136C101.1 134.3 105.5 133.7 109.5 137.2Z" />
			<path id="Layer" class="shp30" d="M109.5 137.2C105.5 133.7 101.1 134.3 96.6 136C101 135.3 105.2 136.2 109.5 137.2Z" />
			<path id="Layer" class="shp31" d="M96.1 100.2C96.1 99.4 96.7 99.1 97.5 99.2C97 98.5 97 97.7 97.6 97C99.9 94.2 100.1 90.4 102.4 87.6L102.4 87.6C98.3 91.3 96.4 96.2 95.7 101.5C95.5 102.7 97 102.5 97.9 101.9C96.6 101.9 96 101.3 96.1 100.2Z" />
			<path id="Layer" class="shp31" d="M97.5 96.9C96.9 97.7 96.9 98.5 97.4 99.1C97.5 99.1 97.5 99.1 97.6 99.1C99 95.2 101.7 91.7 102.2 87.4L102.2 87.4L102.2 87.4C100 90.3 99.8 94.1 97.5 96.9Z" />
			<path id="Layer" class="shp31" d="M97.5 99.3C97.5 99.2 97.4 99.2 97.5 99.3C96.7 99.1 96.1 99.4 96 100.2C95.9 101.3 96.5 101.9 97.7 101.7C96.2 101 96.1 100.2 97.5 99.3Z" />
			<path id="Layer" class="shp31" d="M97.5 99.3L97.5 99.3C97.5 99.2 97.5 99.2 97.5 99.3C97.4 99.2 97.5 99.2 97.5 99.3Z" />
			<path id="Layer" class="shp32" d="M183.6 213.9C183.5 215 182.1 215.9 183 217.1C184.2 218.7 185.4 216.7 186.7 217L186.7 217L186.7 217C185.8 215.8 184.8 214.7 183.6 213.9Z" />
			<path id="Layer" class="shp32" d="M183.6 213.9C184.9 214.7 185.8 215.8 186.7 217L186.7 217C187.3 214.3 187.8 211.7 183.6 213.9Z" />
			<path id="Layer" class="shp33" d="M95.3 150.7C95.8 149 98.7 148.4 97.5 146C95.1 144.9 94.5 147.1 93.8 148.3C93.1 149.5 94 150.4 95.3 150.7Z" />
			<path id="Layer" class="shp33" d="M95.3 150.7C97.1 149.6 98.8 148.5 97.5 146C98.7 148.4 95.8 149 95.3 150.7Z" />
			<path id="Layer" class="shp34" d="M124 131.7C125.3 131.5 126.6 130.9 127.1 129.3C126.5 128.6 126 127.3 125.3 127.2C123.7 127 123.2 128.7 122.6 129.8C122.2 130.7 122.7 131.9 124 131.7Z" />
			<path id="Layer" class="shp35" d="M155 194.8C154.7 196.1 153.3 197.1 153.9 198.7C155 197.6 157.5 196.9 155 194.8Z" />
			<path id="Layer" class="shp35" d="M158.1 196.4C158.2 194.9 156.9 193.5 154.9 194.8C157.4 196.9 154.9 197.6 153.8 198.7C156 199.2 158 198.9 158.1 196.4Z" />
			<path id="Layer" class="shp36" d="M96.4 151.6C95.8 156.6 98.6 154.7 100.9 153.9C99.9 152.2 97.8 152.6 96.4 151.6Z" />
			<path id="Layer" class="shp36" d="M96.4 151.6C97.7 152.7 99.9 152.2 100.9 153.9C101 150 98.8 150.7 96.4 151.6Z" />
			<path id="Layer" class="shp37" d="M127.5 132.3C126.4 132.7 124.9 132.7 125.2 134.3C125.4 135.1 126.4 136.4 126.9 136.3C128.2 136.1 129.7 135.4 129.7 133.8C129.7 132.9 128.7 132.3 127.5 132.3Z" />
			<path id="Layer" class="shp34" d="M212.3 199.2C213.3 197.6 214.4 196.1 215.6 194.6C212.2 194.4 211.3 196.1 212.3 199.2Z" />
			<path id="Layer" class="shp34" d="M215.6 194.6C214.4 196 213.2 197.5 212.3 199.2C214.8 198.7 216.7 197.8 215.6 194.6Z" />
			<path id="Layer" class="shp38" d="M216.9 202.3C216.4 202.6 216.5 203.2 216.7 203.7C217.1 203.5 217.6 203.2 218 203C217.9 202.4 217.5 201.9 216.9 202.3Z" />
			<path id="Layer" class="shp38" d="M218 199.6C216.8 198.7 215.6 199.3 214.9 200.3C213.6 202.3 215.3 203 216.7 203.6C216.5 203.1 216.4 202.5 216.9 202.2C217.5 201.9 217.8 202.3 218 202.9C219.5 201.8 219.4 200.6 218 199.6Z" />
			<path id="Layer" class="shp39" d="M185.5 220.1C185.3 221.4 186.7 222.3 188.3 222.2C188.6 220.9 188.8 219.5 189.5 218.3C187.6 217.7 185.8 218.2 185.5 220.1Z" />
			<path id="Layer" class="shp39" d="M189.5 218.2C188.8 219.4 188.6 220.8 188.3 222.1C189.5 221.1 190.8 220.1 189.5 218.2Z" />
			<path id="Layer" fill-rule="evenodd" class="shp40" d="M220.7 272.3C220.7 272.5 220.6 272.7 220.6 272.9C220.9 276.6 218.7 278.7 215.7 280.3C208.7 284 201.5 287.4 193.8 289.5C171.5 295.5 148.8 296.8 126 293.9C111.4 292 97 288.9 83.9 281.7C75.9 277.3 75.9 276.4 79.9 268.3C81.7 264.6 83.5 264.5 86.8 266.4C91.9 269.4 97.3 271.9 103.1 273.6C121.4 278.9 140.2 280.4 159.1 279.4C173.1 278.6 187.1 276.6 200.4 271.4C203.5 270.1 206.9 269.4 208.8 266.2C208.8 266 208.8 265.8 208.8 265.6C214.3 263.6 217.7 265.8 219.5 271.2C219.6 271.7 220.1 272 220.7 272.3ZM116.6 280.4C113.5 280.3 113.8 283.4 111.5 284.3C110.3 282.5 112.2 279.8 109.5 279C106.6 278.1 106.7 282 104.5 282.4C102.8 281.2 105.4 277.9 101.2 277.3C102.1 280.6 99.8 284.5 103 286.6C105.4 288.2 105.9 283.5 108.1 282.9C110 284.3 107.9 289 111.1 288.3C114.2 287.6 115.9 284 116.6 280.4ZM121.6 282.2C121.6 281.9 120.4 281.4 120.3 281.5C118.4 283.6 118.3 286.4 118 289C118 289.3 118.4 289.7 119.3 291.1C121.1 287.7 121.6 285 121.6 282.2ZM135.7 283.3C131.2 282.8 128.3 282.4 125.3 282.1C130.3 284.1 125.8 289 127.9 291.7C130.7 290.8 130.1 288.6 130.2 287.1C130.5 284.2 133.1 285.2 135.7 283.3ZM146.3 283.1C143.3 288.9 140.4 288.5 137.9 283.1C136.6 289.1 136.6 289.1 138.2 292.2C141.1 287.2 142.2 287.3 146.2 293.6C146.9 290 147.3 287.1 146.3 283.1ZM165.1 283.1C162.1 283.5 159.2 283.8 156.3 284.2C160.2 284.6 159.8 287.5 160.1 290C160.3 291.1 160.1 292.6 161.9 292.3C163.2 292 162.9 290.8 162.6 289.9C161.7 286.9 162.1 284.7 165.1 283.1ZM177.6 282C174.5 280 177 285.1 174.7 285.2C174 285.3 173.3 285.9 172.6 286.2C170.5 286.2 170.9 281 169 283.4C167.6 285.3 168.3 289.5 171.1 291.9C173 290.5 170.7 287.3 173.9 287.2C175.9 286.9 176.5 288.2 177.2 289.7C177.9 291.2 179.5 290.9 179.5 289.5C179.5 286.9 179.7 283.3 177.6 282ZM189.6 277.1C187.3 281.3 184.5 282.9 180.2 280.6C182.4 283.3 185.8 284.1 186.7 287.5C186.7 287.7 187.8 288 188.1 287.8C188.5 287.6 189 286.7 188.9 286.5C186.8 283.5 190.3 281 189.6 277.1Z" />
			<path id="Layer" class="shp40" d="M220.5 272.8C220.7 276.5 218.6 278.6 215.6 280.2C208.6 284 201.4 287.4 193.7 289.4C171.4 295.4 148.7 296.7 125.9 293.8C111.3 291.9 96.9 288.8 83.8 281.6C75.8 277.2 75.8 276.3 79.8 268.2C81.6 264.5 83.4 264.4 86.7 266.3C91.8 269.3 97.2 271.8 103 273.5C121.3 278.9 140.1 280.4 159 279.3C173.1 278.5 187.1 276.6 200.3 271.3C203.4 270.1 206.8 269.3 208.7 266.1C208.7 265.9 208.7 265.7 208.7 265.5C208.6 265.5 208.5 265.6 208.4 265.6C207.4 266.2 206.4 266.9 205.3 267.3C163.2 282.8 121.8 282 80.7 262.2C80.7 262.3 80.2 263.1 79.8 264C73 278.4 73 278.5 87.8 285.3C110.4 295.5 134.4 297.4 158.8 296.3C179.8 295.3 200.1 291.4 218.5 280.4C222.2 278.2 223.8 276.1 221.3 272.1C221 272.1 220.7 272.1 220.4 272C220.6 272.4 220.5 272.6 220.5 272.8Z" />
			<path id="Layer" class="shp40" d="M219.5 271.2C219.7 271.7 220.1 272 220.6 272.1C220.7 271.8 220.8 271.6 220.9 271.3C220.6 270.8 220.2 270.3 220 269.7C216.2 261.8 216.2 261.7 208.8 265.5L208.8 265.5C214.2 263.6 217.6 265.8 219.5 271.2Z" />
			<path id="Layer" class="shp40" d="M220.6 272.1C220.9 272.2 221.2 272.2 221.5 272.2C221.3 271.9 221.1 271.6 220.9 271.3C220.8 271.6 220.7 271.9 220.6 272.1Z" />
			<path id="Layer" class="shp40" d="M208.7 265.6C208.6 265.6 208.5 265.7 208.4 265.7C208.6 265.7 208.6 265.7 208.7 265.6L208.7 265.6Z" />
			<path id="Layer" fill-rule="evenodd" class="shp41" d="M74.9 264.3C74.5 266 73.4 266.4 71.8 265.3C62.3 258.7 52.3 252.7 45.2 243.3L45.3 243.2C49.2 242.4 51 239.2 53.1 236.3C53.1 236.3 52.1 235.2 52 235.3C49.2 237.4 45.9 239.2 45.2 243.2L45.1 243.3C45.2 243.4 45.2 243.4 45.2 243.4C40.3 241 37.4 236.4 34 232.5C23 219.8 14.7 205.6 9.3 188.2C13.2 191.1 16.2 193.1 19 195.4C21.1 197.1 22 197.2 23 194.3C24.8 189 26.9 183.9 29.4 177.4C34.5 214.5 54.7 239.4 85.9 256.8C79.7 256.3 76.4 258.9 74.9 264.3ZM30 220.2C33.1 219.6 35.5 218 35.1 214.8C34.7 212.1 33.4 208.1 30.4 208.5C28 208.8 23.6 210.7 23.8 214C23.9 216.8 26.3 219.7 30 220.2ZM44.1 227C43 224 41.6 220.8 37.6 220.6C34.6 220.5 32.5 222.4 32.5 225.3C32.5 229 34.8 231.8 38.5 232.3C41.7 232.8 43.4 230.4 44.1 227ZM62.7 244.6C60.3 242.5 57.9 240.5 55.5 238.4C57.4 241.6 56.5 243.6 54.1 245.6C53.2 246.4 51.3 247.5 52.7 248.9C54.3 250.4 55.2 248.4 55.8 247.4C57.6 244.9 59.6 243.8 62.7 244.6Z" />
			<path id="Layer" class="shp41" d="M45.3 243.4L45.4 243.3L45.3 243.3L45.3 243.4Z" />
			<path id="Layer" class="shp41" d="M45.2 243.3C45.2 243.4 45.2 243.4 45.2 243.3C45.2 243.4 45.2 243.4 45.2 243.3C45.3 243.4 45.2 243.3 45.2 243.3Z" />
			<path id="Layer" class="shp41" d="M45.3 243.2L45.2 243.3C45.2 243.3 45.2 243.3 45.3 243.2C45.3 243.3 45.3 243.2 45.3 243.2Z" />
			<g id="Layer">
				<path id="Layer" class="shp3" d="M138.4 17.7C140.1 16.9 142.7 16.9 143.2 14.2C142.9 12.4 141.6 12.3 140.2 12.2C137.8 12.1 136.5 13.1 136.6 15.5C136.6 16.6 136.9 18.3 138.4 17.7Z" />
				<path id="Layer" class="shp3" d="M127.8 25.1C127.7 25.2 127.6 25.2 127.5 25.3C127.2 28.9 129.8 27 131.1 27.1C132.8 27.2 134.3 26.5 133.2 24.2C133.1 24.2 133.1 24.2 133 24.2C131.1 23.8 129.4 24 127.8 25.1Z" />
				<path id="Layer" class="shp3" d="M124.7 26.3C124.5 26 124.2 25.6 124 25.3C123.5 24.6 123 23.9 122.5 23.1L122.5 23L122.4 23C120.9 22.8 119.6 23.3 118.6 24.2C118.3 24.5 118 24.8 117.7 25.2C118.7 33.5 122.1 26.9 124.7 26.3Z" />
				<path id="Layer" class="shp3" d="M126.3 19.3C126.3 19.6 126.2 20 126.2 20.3C126.2 20.5 126.2 20.8 126.1 21C126.1 21.2 126.1 21.4 126 21.6C129.5 24.9 130.8 20.3 134.4 19.9C131 17.7 128.7 19 126.3 19.3Z" />
				<path id="Layer" class="shp3" d="M115 17C116.9 16.6 119.7 17.4 120 14.4C120.2 11.9 117.9 12.2 116.1 12.2C113.7 12.1 111.5 12.6 111.4 15.3C111.2 17.8 113.5 16.8 115 17Z" />
				<path id="Layer" class="shp3" d="M129 16.7C130.9 16.5 132.4 15.5 132.3 13.4C132.3 12 131.4 11.4 129.9 11.5C128.7 12.7 125.5 11.2 125.6 14.2C125.7 15.9 127.2 16.9 129 16.7Z" />
				<path id="Layer" class="shp3" d="M116.7 19.3C116.7 20 116.8 20.8 116.8 21.5C117.2 21.5 117.6 21.5 118 21.5C120.4 21.6 123 22 124.8 19.9C125 19.7 125.1 19.5 125.3 19.3C125.2 18.1 125.2 16.7 123.4 17.2C121.2 17.8 119.1 18.5 116.9 19.2C116.9 19.2 116.8 19.2 116.7 19.3Z" />
				<path id="Layer" class="shp3" d="M138.4 23.8C138.4 24.2 138.5 24.7 138.5 25.2C141.5 24.6 143.2 22.4 145 20.2L145.1 20.2L145.1 20.1C139 17.7 138 18 138.4 23.8Z" />
				<path id="Layer" class="shp3" d="M164.4 15.6C161.4 14.9 158.5 14.5 157.5 18.5L157.5 18.5C158.4 22.2 155.4 25 154.8 28.3C154.7 29 154.7 29.6 154.8 30.3C155.5 29.6 156.2 29 156.8 28.2C159.3 24.6 159.1 19.1 164.9 17.8C166.3 17.7 166 16 164.4 15.6Z" />
				<path id="Layer" class="shp3" d="M160.8 27.8C159.6 28.3 158.2 28.8 158.5 30.6C158.6 31.5 159.2 32 160 31.8C161.5 31.4 162.7 30.5 163 28.7C162.7 27.5 161.7 27.4 160.8 27.8Z" />
				<path id="Layer" class="shp3" d="M109.6 24.2C112 23.7 113.6 22.2 113.4 19.6C113.5 19.6 113.5 19.7 113.6 19.7C113.5 19.6 113.5 19.5 113.4 19.3C110.3 17.2 109.1 20.3 107.2 21.5C107.1 21.6 106.9 21.7 106.8 21.7C106.6 23.8 107.9 24.5 109.6 24.2Z" />
				<path id="Layer" class="shp3" d="M152.2 27.2C152.1 27.1 152 27 151.8 26.8C151.3 26.2 150.7 25.7 150.2 25.1C150.2 25.1 150.2 25.1 150.1 25C148.6 25.1 146.8 24.4 145.7 26.4C147.9 28.3 150 28.6 152.2 27.2Z" />
				<path id="Layer" class="shp3" d="M150 21.7C151.2 21.8 152.7 24.6 153.5 21.8C154.1 19.9 152.3 19.3 150.5 19.5C149.9 19.5 149.4 19.5 148.8 19.5C148.5 18.1 149.2 17.4 150.5 16.9C151.6 16.5 152.8 15.8 152.5 14.3C152.3 13.2 151.3 12.7 150.2 12.9C148.9 13.2 147.1 13.2 147 15C146.9 16.9 145.8 18.9 147.5 20.6C148.1 21.6 149.1 21.6 150 21.7Z" />
				<path id="Layer" class="shp3" d="M163.9 39.5C147.3 41.7 130.9 41 114.5 37.8C112.9 37.5 110.6 41 108.6 42.8C109.4 43.2 110.3 43.7 111.1 44.1L111.1 44.1L111.1 44.1L111.1 44.1C124.2 44.1 137.3 42.1 150.3 44.4C149.9 45.1 149.3 45.5 148.8 45.7C149.1 45.7 149.5 45.8 149.8 45.8C150.9 45.7 151.9 45.1 152.8 44.5L152.8 44.5C156.6 40.9 162.3 43 167.1 39.6C165.4 39.5 164.7 39.4 163.9 39.5Z" />
				<path id="Layer" class="shp3" d="M181.3 23.4C182.4 21.8 188.1 23 184.6 18.6C184.6 18.5 184.5 18.5 184.5 18.4C179.9 19.3 179.5 23.7 177.8 27.1C178.9 26.1 180 25 181.1 24C181.1 23.8 181.2 23.6 181.3 23.4Z" />
				<path id="Layer" class="shp3" d="M207.4 29.3C207.9 28.7 208.3 27.9 208.9 27.3C209.4 26.8 210 26.4 210.9 26.5C208.6 23.6 207.5 26 206.2 27.2C205.8 27.5 205.5 27.8 205 27.9C204.8 29 204.4 30.1 206.1 30.3C206.7 30.1 207 29.7 207.4 29.3Z" />
				<path id="Layer" class="shp3" d="M176.5 43.9C180.5 41.1 185.5 42.2 190 39.2C186.4 37.9 184.6 35.3 181.7 33.3C188.8 42.1 176.2 39 176.5 43.9Z" />
				<path id="Layer" class="shp3" d="M118.8 45.9C119.2 45.8 119.6 45.8 120 45.8C117.8 45.8 115.6 45.8 113.4 45.8C115.1 46.3 117 46.1 118.8 45.9Z" />
				<path id="Layer" class="shp3" d="M97.2 34.8C97 33.9 96 34.7 95.3 34.9C95 35.4 94.6 35.9 94.2 36.3C91.2 39.3 86.6 38.8 83.1 40.7C80.6 40.8 78.6 42 76.7 43.4C76.1 43.8 75.6 44.3 75 44.7C74.7 45.4 74.2 46.2 74.3 46.8C74.4 47.6 75.3 47.2 75.5 46.9C78.1 43.6 82 43 85.6 41.7C85.4 41.6 85.1 41.5 84.9 41.4C85.2 41.4 85.4 41.5 85.6 41.7C88.8 40.9 92 40.1 95.1 39.1C97.3 38.5 97.6 36.5 97.2 34.8Z" />
				<path id="Layer" class="shp3" d="M100.3 18.5C104.5 20.1 103 14.5 105.3 13.3C102.7 13.5 99.9 11.7 98.3 14.5C97.8 15.4 98.7 17.9 100.3 18.5Z" />
				<path id="Layer" class="shp0" d="M68.9 9.9C66.9 9.6 64.8 10 63.1 8.7C61.4 9 59.7 7.7 57.9 8.8C61.8 11.7 63.4 11.8 68.9 9.9Z" />
				<path id="Layer" class="shp0" d="M89.2 17.7C89.3 17.8 89.3 17.8 89.4 17.9C91 18 92.5 18.1 94.1 18.2C93.8 18.1 93.4 17.9 93.1 17.8C92.7 17.6 92.3 17.3 91.9 17C89.8 15.2 88.1 12.7 84.7 13.2C85.6 14.1 86.4 15 87.3 15.8C87.9 16.4 88.6 17 89.2 17.7Z" />
				<path id="Layer" class="shp0" d="M81.2 24.3C82.9 23.1 85.1 22.1 82.6 19.1C80.6 16.3 77.6 15.6 74.4 15.1C67.4 14.1 60.1 15.7 53.5 12.1C51.9 11.2 51.2 13.3 49.9 13.5C44.7 11.9 39.3 12.3 33.9 12.2C32.9 12.2 31.9 12.2 30.9 12.1C31.2 12.6 31.4 13.3 31.8 13.5C35.5 15.2 40.8 13.1 43 18.8C43.5 20 44.1 17.9 43.9 16.9C43.2 16.8 42.8 16.5 42.8 15.7L42.9 15.6L43 15.7C43.1 15.7 43.1 15.7 43.2 15.7C49 15.5 55 13.7 60.5 17.2C60.6 17.2 60.5 17.6 60.4 17.7C60.1 17.9 59.8 18.1 59.5 18.3C58.6 18.6 57.7 17.6 56.7 17.4C56.1 17.2 55.6 17.4 55.1 18.3C55 18.5 54.9 18.6 54.9 18.8C57.3 21.9 60.6 22.6 64.3 21.8C64.9 21.7 66 21.3 64.8 20.5C64.4 20.2 63.7 20.4 63.1 20.4C68.9 17.7 74.8 16.2 81 19.2C82.6 25.4 76 23.3 74.1 26C76.1 27 77.9 26.2 79.7 25.5C80.1 25.1 80.6 24.7 81.2 24.3Z" />
				<path id="Layer" class="shp0" d="M105.3 13.3C105.7 13.3 106 13.2 106.4 13.1C105.9 13 105.5 13.1 105.3 13.3Z" />
				<path id="Layer" class="shp0" d="M85.7 41.7C85.5 41.5 85.2 41.4 85 41.4C85.2 41.5 85.5 41.6 85.7 41.7Z" />
				<path id="Layer" fill-rule="evenodd" class="shp0" d="M271.2 33.2C266 37.7 259.4 38.3 253.3 39.7C237.9 43.3 222.5 43.4 207.2 38.4C202.5 36.9 204 41.5 203 43.6C199.3 45.5 194.9 44.9 189.8 46.6C197.4 48.6 203.6 46.6 210 46.6C208.5 45.6 206.8 45.1 205.8 43.6C207.6 43.5 209.4 43.7 211.1 43.4C215.2 42.6 215.2 44.8 214.5 47.6L60.5 47.6C60.5 47.5 60.6 47.5 60.6 47.4C65.8 46.8 68.9 41.9 73.9 41.2C76.5 40.2 78.8 38.3 81.8 38.4C82.1 37.4 82.5 36.5 80.9 36.3C74.9 35.4 69.6 32.7 64.2 30.2C55 25.8 44.8 26.8 35.3 24.3C30.2 23 25.7 22 25.1 15.8C23.7 12 24 8.3 29 9.2C40.9 11.2 51.1 6.6 61.3 1.8C64.4 0.4 66.9 0.3 70.1 1.3C78 3.6 86 5.7 93.6 9.2C98 11.2 102.4 9.5 106.7 9.7C118.4 10.1 130 7.5 141.6 9.3C151.5 10.8 161.8 9.8 171.5 13.5C175.6 15.4 180.1 16.4 184.6 17.1C185.7 17 187.1 16.3 188 16.7C198.9 21.2 210.3 23.2 222 23.9C226.6 25.1 231.2 26.1 235.6 27.5C243.6 30 251.6 30.4 259.6 27.6C261.4 26.2 264.6 27.3 265.3 24.2C265.8 22.1 269.9 20.5 267.4 18.3C265.2 16.4 263.8 11.5 258.9 14.2C257.5 15 255.4 15.1 254.3 12.8C259.7 11.8 264.5 9 270.1 12.6C273.4 14.7 277.5 15.5 277.8 20.4C278.2 25.9 275.2 29.6 271.2 33.2ZM164.9 18.2C166.3 17.9 166 16.2 164.4 15.8C161.5 15 158.5 14.6 157.5 18.7C158.3 22.3 155.3 25.1 154.8 28.5C154.7 29.1 154.7 29.8 154.8 30.5C155.5 29.8 156.3 29.2 156.8 28.4C159.3 24.8 159.2 19.3 164.9 18.2ZM160.9 27.8C159.7 28.3 158.4 28.8 158.6 30.6C158.7 31.5 159.3 32 160.1 31.8C161.6 31.3 162.8 30.4 163.1 28.7C162.7 27.5 161.7 27.4 160.9 27.8ZM145.7 26.5C148 28.3 150 28.7 152.2 27.2C152 27 151.9 26.9 151.8 26.8C151.2 26.3 150.7 25.7 150.1 25.1C150.2 25.1 150.1 25.1 150.1 25.1C148.6 25.2 146.8 24.5 145.7 26.5ZM147.7 20.4C148.1 21.6 149.2 21.6 150.1 21.6C151.3 21.7 152.8 24.5 153.6 21.7C154.2 19.9 152.4 19.3 150.6 19.4C150.1 19.4 149.5 19.4 148.9 19.4C148.6 18 149.3 17.3 150.6 16.8C151.6 16.3 152.8 15.6 152.6 14.2C152.4 13.1 151.4 12.6 150.3 12.8C149 13.1 147.2 13.1 147.1 14.9C147 16.8 145.9 18.8 147.7 20.4ZM145.1 20.1C139 17.7 138 18 138.4 23.7C138.4 24.2 138.5 24.6 138.5 25.1C141.5 24.6 143.3 22.3 145 20.1L145.1 20.1ZM133.2 24.1C133.1 24.1 133.1 24.1 133 24.1C131.2 23.7 129.4 24 127.8 25C127.7 25.1 127.6 25.1 127.5 25.2C127.2 28.8 129.8 26.9 131.1 27C132.7 27.1 134.2 26.4 133.2 24.1ZM117.5 25.2C118.7 33.5 122.1 27 124.6 26.3C124.4 26 124.1 25.6 123.9 25.3C123.4 24.5 122.9 23.8 122.4 23.1L122.4 23L122.3 23C120.8 22.8 119.5 23.3 118.5 24.2C118.2 24.5 117.9 24.8 117.5 25.2ZM136.5 15.6C136.6 16.6 136.9 18.4 138.4 17.7C140.2 16.9 142.8 16.9 143.2 14.2C142.9 12.4 141.6 12.3 140.2 12.2C137.8 12.1 136.4 13.1 136.5 15.6ZM126.3 19.3C126.3 19.6 126.2 20 126.2 20.3C126.1 20.5 126.1 20.8 126.1 21C126 21.2 126 21.4 126 21.6C129.6 24.9 130.9 20.4 134.4 19.9C131 17.7 128.7 19 126.3 19.3ZM125.6 14C125.7 15.8 127.3 16.8 129 16.6C130.8 16.5 132.3 15.5 132.3 13.3C132.3 12 131.4 11.3 129.9 11.4C128.7 12.7 125.5 11.1 125.6 14ZM123.4 17.2C121.2 17.8 119.1 18.5 116.9 19.2C116.9 19.2 116.8 19.3 116.7 19.3C116.7 20 116.8 20.8 116.8 21.5C117.2 21.5 117.6 21.5 118 21.5C120.4 21.6 122.9 22 124.8 19.9C125 19.7 125.1 19.5 125.3 19.3C125.2 18.1 125.2 16.7 123.4 17.2ZM111.2 15.3C111.1 17.7 113.4 16.7 114.9 17C116.8 16.6 119.7 17.4 119.9 14.4C120.1 11.9 117.8 12.2 116 12.2C113.7 12.1 111.4 12.6 111.2 15.3ZM107.2 21.5C107.1 21.6 107 21.6 106.8 21.7C106.6 23.8 107.9 24.6 109.6 24.2C111.9 23.7 113.5 22.2 113.4 19.6C113.5 19.6 113.5 19.7 113.6 19.7C113.5 19.6 113.5 19.4 113.4 19.3C110.4 17.2 109.2 20.3 107.2 21.5ZM100.3 18.5C104.6 20 103.1 14.5 105.3 13.3C105.7 13.3 106.1 13.2 106.4 13.1C105.9 13.1 105.6 13.1 105.3 13.3C102.7 13.5 99.8 11.7 98.3 14.5C97.8 15.4 98.7 17.9 100.3 18.5ZM84.6 13C85.5 13.8 86.3 14.7 87.2 15.6C87.9 16.3 88.5 16.9 89.2 17.6C89.3 17.7 89.3 17.7 89.4 17.8C91 17.9 92.5 18 94.1 18.1C93.7 18 93.4 17.9 93.1 17.7C92.7 17.5 92.3 17.2 91.9 16.9C89.8 15.2 88.1 12.6 84.6 13ZM57.9 8.9C61.8 11.7 63.4 11.8 68.9 9.9C67 9.6 64.9 10 63.1 8.7C61.4 9 59.7 7.7 57.9 8.9ZM79.9 25.6C80.2 25.1 80.7 24.7 81.3 24.3C83 23.1 85.1 22.1 82.7 19.1C80.7 16.2 77.7 15.6 74.5 15.1C67.5 14.1 60.2 15.7 53.6 12.1C51.9 11.2 51.3 13.3 50 13.5C44.7 11.9 39.4 12.3 34 12.2C33 12.2 32 12.2 31 12.1C31.3 12.6 31.5 13.3 31.9 13.5C35.6 15.3 40.9 13.1 43.1 18.8C43.5 20 44.2 17.9 44 16.9C43.3 16.8 42.9 16.5 42.9 15.7L43 15.6L43.1 15.7C43.2 15.7 43.2 15.7 43.3 15.7C49.1 15.5 55.1 13.6 60.6 17.2C60.7 17.2 60.6 17.6 60.5 17.7C60.2 17.9 59.9 18.1 59.6 18.3C58.7 18.6 57.7 17.7 56.8 17.4C56.2 17.3 55.7 17.4 55.2 18.3C55.1 18.4 55.1 18.6 55 18.8C57.5 21.9 60.7 22.5 64.4 21.8C65 21.7 66.1 21.3 64.9 20.5C64.5 20.2 63.8 20.4 63.2 20.4C69 17.7 74.9 16.2 81.1 19.2C82.7 25.4 76.1 23.3 74.2 26C76.2 27 78 26.2 79.9 25.6ZM95.3 39.1C97.3 38.5 97.7 36.6 97.3 34.8C97.1 33.9 96 34.7 95.4 34.9C95.1 35.4 94.7 35.9 94.3 36.3C91.3 39.3 86.7 38.8 83.2 40.7C80.6 40.8 78.7 42 76.8 43.4C76.2 43.8 75.7 44.3 75.1 44.7C74.9 45.4 74.3 46.1 74.4 46.8C74.5 47.6 75.4 47.2 75.6 46.9C78.2 43.5 82.1 43 85.7 41.7C88.9 40.9 92.1 40.1 95.3 39.1ZM120 45.7C117.8 45.7 115.6 45.7 113.4 45.7C115.1 46.4 117.1 46.1 118.8 45.9C119.2 45.8 119.6 45.8 120 45.7ZM167.1 39.5C165.4 39.5 164.7 39.4 163.9 39.5C147.3 41.7 130.9 41 114.5 37.8C112.9 37.5 110.6 41.1 108.6 42.8C109.4 43.2 110.3 43.7 111.1 44.1C124.2 44.1 137.2 42.2 150.3 44.4C149.9 45.1 149.4 45.5 148.8 45.7C149.1 45.7 149.5 45.8 149.8 45.8C150.9 45.7 151.8 45.1 152.8 44.5C156.6 40.9 162.3 42.9 167.1 39.5ZM177.8 27.2C178.9 26.2 180 25.1 181.1 24.1C181.1 23.9 181.2 23.7 181.3 23.5C182.4 21.9 188.1 23.1 184.6 18.7C184.6 18.6 184.5 18.6 184.5 18.5C179.9 19.4 179.5 23.8 177.8 27.2ZM190 39.3C186.4 37.9 184.7 35.4 181.7 33.4C188.8 42.1 176.3 39 176.5 43.9C180.4 41.1 185.5 42.3 190 39.3ZM206.1 30.1C206.7 30 207.1 29.6 207.4 29.2C208 28.6 208.3 27.8 208.9 27.2C209.4 26.7 210 26.4 210.9 26.4C208.6 23.5 207.5 25.8 206.2 27.1C205.8 27.5 205.4 27.7 205 27.8C204.8 28.9 204.4 30.1 206.1 30.1Z" />
			</g>
			<path id="Layer" fill-rule="evenodd" class="shp42" d="M275.3 196.5C275.3 196.7 275.4 196.9 275.5 197.1C275.7 197 275.9 196.8 276.1 196.7C277.9 196.8 280.5 195.3 285 192.4C281.6 202.1 277.1 211.3 271 219.7C270.9 219.9 270.7 220.1 270.6 220.3C269.6 220.3 269 222 267.9 221.9C264.8 220.9 263.3 216.8 258.4 217.4C261 219.7 261.5 221.8 259.6 224.1C257.7 224.8 256.8 222.4 255 222.7C254.5 222.3 254 221.8 253.5 221.4C253.6 221.3 253.7 221.1 253.8 221C257.7 215.3 260.8 209.1 263.3 202.6C265.6 196.4 267.4 190 268.6 183.1C269.1 184.8 269.6 186.1 270.1 187.4C272.3 193 273.5 195.9 275.3 196.5ZM269.3 212C266.6 210.8 267 209 267.5 206.6C264.8 208.8 263.2 211.4 262.3 214.7C264.3 213.1 266 212 268.4 214.1C269.4 215 271.3 217.6 272.6 215.2C273.7 213.2 270.7 212.5 269.3 212Z" />
			<path id="Layer" class="shp42" d="M253.7 221.1C257.6 215.3 260.8 209.2 263.2 202.7C265.5 196.5 267.4 190.1 268.5 183.2C269 184.9 269.5 186.2 270 187.5C272.2 193.1 273.4 196 275.2 196.7C272.8 190.5 270.5 184.6 268.2 178.7C266 194.2 260.2 207.8 252.3 220.7C252.6 221 253 221.3 253.3 221.5C253.5 221.3 253.6 221.2 253.7 221.1Z" />
			<path id="Layer" class="shp42" d="M271 219.8C270.9 220 270.7 220.2 270.6 220.4C270.9 220.4 271.3 220.5 271.8 221L271.8 221C279.1 211.5 284 200.8 287.8 188.3C283.4 191.6 279.9 194.1 276.1 196.9C277.9 197 280.4 195.4 285 192.6C281.6 202.2 277.1 211.4 271 219.8Z" />
			<path id="Layer" fill-rule="evenodd" class="shp43" d="M225.9 249C236.6 241.6 245.7 232.5 253.2 221.9C253.6 222.5 254.1 223 254.7 223.5C254.3 224.9 255.7 225.6 256.7 226.2C258.5 227.4 260.3 230.6 262.2 229.5C265.5 227.6 259 226.6 261 224.1C262.3 223.5 263 220.9 265.1 223.1C266.6 224.8 267.4 224 267.8 222.5C268.4 222.6 268.9 222.4 269.4 222.1C260 235.5 248.6 246.9 235.5 256.7C235.4 256.8 235.3 256.8 235.2 256.9C235 256.8 234.9 256.6 234.7 256.5C236 255.2 235.2 254.2 234.2 253.2C233.4 252.3 233.3 251.6 234.8 251.4C236.4 252.6 238.7 255.4 239.1 251.4C239.3 248.8 239.2 248.8 241.1 249.9C242 250.4 243 250 242.9 249.3C242.3 246.5 239.8 244.9 238.3 242.7C237.7 241.8 236.8 241.6 235.8 242.4C233.3 244.4 235.1 246.2 236 248.1C234.4 250.6 233.5 248 232.5 247.5C229.4 246 228.2 247.3 228.1 250.3C227.1 250.3 226.3 249.8 225.9 249ZM248 238.8C250.2 240.7 252.4 240.3 254.4 238.6C256.4 237 258.6 235.2 257.7 232.3C257.1 230.4 255.5 229.6 253.6 231.3C253.2 231 252.9 230.7 252.6 230.4C253.2 229.8 253.7 228.6 253 228.5C249.7 227.9 248 230.2 246.6 232.6C245.2 235.1 245.9 237.2 248 238.8ZM240.3 238.9C240 239.9 245.5 245.9 247.4 245.9C247.6 245.9 248.2 244.9 247.8 244.4C246 242.1 244.1 239.9 242 237.9C241.3 237.1 240.6 238 240.3 238.9Z" />
			<path id="Layer" class="shp43" d="M253 222C252.7 221.6 252.5 221.1 252.4 220.6C244.9 231.4 235.6 240.3 225.2 248.2C225.4 248.5 225.5 248.8 225.7 249.1C236.4 241.7 245.5 232.6 253 222Z" />
			<path id="Layer" class="shp43" d="M235.4 256.8C235.3 256.9 235.2 256.9 235.1 257C235.4 257.2 235.7 257.5 235.9 257.7C250.1 247.6 262.1 235.4 271.7 220.9C270.7 220.9 270 221.7 269.2 222.2C259.9 235.6 248.5 247 235.4 256.8Z" />
			<path id="Layer" class="shp43" d="M269.3 222.2C269.7 221.6 270.2 221 270.6 220.3C269.6 220.4 268.9 222 267.9 221.9C267.9 222.1 267.8 222.4 267.8 222.6C268.3 222.7 268.8 222.5 269.3 222.2Z" />
			<path id="Layer" class="shp43" d="M254.5 223.6C254.6 223.3 254.7 223.1 254.9 222.7C254.4 222.3 253.9 221.8 253.4 221.4C253.3 221.6 253.1 221.8 253 222C253.4 222.7 253.9 223.2 254.5 223.6Z" />
			<path id="Layer" class="shp43" d="M269.3 222.2C270.1 221.7 270.8 220.9 271.8 220.9C271.3 220.5 271 220.3 270.6 220.3C270.2 221 269.7 221.6 269.3 222.2Z" />
			<path id="Layer" class="shp43" d="M253.4 221.5C253.1 221.2 252.7 220.9 252.4 220.7C252.5 221.2 252.7 221.7 253 222.1C253.1 221.8 253.3 221.7 253.4 221.5Z" />
			<path id="Layer" class="shp44" d="M224.7 264.7C227.7 261.9 231.4 260 234.6 257.4C234.5 257.2 234.4 257.1 234.3 256.9C234.3 256.7 234.4 256.6 234.4 256.4C231.5 255.3 230.8 251.8 228.3 250.4C228.1 250.5 227.9 250.7 227.6 250.8C226.4 250.7 225.4 250.4 225.2 249.4C221.7 251.4 218.8 254.5 214.9 255.7C219.6 256.9 222.7 260.1 224.7 264.7Z" />
			<path id="Layer" class="shp44" d="M234.6 257.5C231.4 260.1 227.7 262 224.7 264.8C224.9 265.2 225 265.6 225.2 266.1C228.8 263.3 232.4 260.6 236 257.8C235.3 258.1 234.9 257.9 234.6 257.5Z" />
			<path id="Layer" class="shp44" d="M225.2 249.4C225.1 249.1 225.1 248.7 225.2 248.2C220.7 250.2 217.1 254 212.1 255.3C213.1 255.4 214 255.5 214.8 255.7C218.7 254.5 221.7 251.4 225.2 249.4Z" />
			<path id="Layer" class="shp44" d="M224.7 264.7C222.7 260.1 219.6 256.9 214.9 255.7C214.1 256 213.2 256.2 212.3 256.2C212.2 256.2 212.1 256.2 212.1 256.1C212.1 256.3 212 256.6 212 256.8C218.5 256.1 221.3 260.1 223.2 265.4C223.2 265.5 223.5 265.6 223.8 265.7C224 265.4 224.3 265.2 224.5 264.9C224.5 264.9 224.6 264.8 224.7 264.7Z" />
			<path id="Layer" class="shp44" d="M212 256.2C212.1 256.2 212.2 256.2 212.2 256.3C213.1 256.2 214 256 214.8 255.8C213.9 255.6 213 255.4 212.1 255.4L212.1 255.4C212.1 255.6 212 255.9 212 256.2Z" />
			<path id="Layer" class="shp44" d="M224.3 265C224.1 265.3 223.8 265.5 223.6 265.8C224.1 265.9 224.7 265.9 225.1 266C224.9 265.6 224.8 265.2 224.6 264.7C224.6 264.8 224.5 264.9 224.3 265Z" />
			<path id="Layer" class="shp44" d="M227.5 250.8C227.7 250.7 228 250.5 228.2 250.4C228.2 250.4 228.1 250.4 228.1 250.3C227 250.2 226.3 249.8 225.7 249.1L225.7 249.1C225.5 249.2 225.3 249.3 225.1 249.4C225.4 250.4 226.3 250.7 227.5 250.8Z" />
			<path id="Layer" class="shp44" d="M234.3 256.4C234.3 256.6 234.3 256.7 234.2 256.9C234.3 257.1 234.4 257.3 234.5 257.4C234.7 257.2 234.9 257.1 235.1 256.9C234.9 256.8 234.8 256.6 234.6 256.5C234.6 256.6 234.5 256.5 234.3 256.4Z" />
			<path id="Layer" class="shp44" d="M225.2 249.4C225.4 249.3 225.6 249.2 225.8 249.1L225.8 249.1C225.6 248.8 225.4 248.5 225.3 248.2C225.1 248.7 225.1 249.1 225.2 249.4Z" />
			<path id="Layer" class="shp44" d="M234.6 257.5C234.9 257.9 235.3 258.2 236 257.8C235.7 257.6 235.4 257.3 235.2 257.1C235 257.1 234.8 257.3 234.6 257.5Z" />
			<path id="Layer" class="shp4" d="M123.1 221.9C125.2 220.4 127 218.5 128.1 216.1C127.5 216 127 216 126.4 215.9C126.3 216 126.1 216.2 126 216.3C125.8 216.4 125.5 216.4 125.5 216.3C124.1 212.8 121.5 210.1 119.4 207C118.2 205.3 111.6 200.9 120.7 200.7C121 200.7 121.4 200 121.6 199.5C123.3 194.9 124.8 190.3 124.1 185.4C123.6 181.9 122.4 179.7 118.2 179.1C111.3 178.1 105.6 182.3 99.1 182.9C98.2 183 95.5 185.5 97.9 188.2C98.7 189.1 101 189.7 99.9 191.9C96.3 192.2 92.9 191.8 90.5 188.6C89.4 187.2 87.9 186.8 86.3 186.8C85.2 186.8 83.8 186.9 83.6 188.4C83.5 189.9 84.8 189.6 85.7 189.7C90.7 190.4 93.3 194.5 97 197.5C93.6 198.6 90.9 197.7 88.3 196.7C86.6 196 84.3 195.3 84 197.6C83.6 199.9 86.3 199 87.6 199.4C96.4 201.7 103.6 206.1 109.9 214.8C103.5 213.2 99.3 213.5 98 219.6C97.2 223.4 95.1 221.9 93.4 220.2C91.7 218.5 90.2 216.4 87.4 218.9C88.9 219.8 90.7 220.2 91.4 221.3C94.2 226 96.8 226.6 101 222.5C103 220.5 108.5 220.5 109.3 222.8C110.6 226.6 113 227.5 115.9 228.6C117.3 229.1 118.5 229.8 117.8 231.6C117.3 232.9 116.4 233.4 115 233C112.9 232.5 110.9 232.4 109.6 235C112.2 236.3 114.6 235.9 116.8 235.9C121.8 235.9 125 230.4 122.4 226.1C120.8 224.1 121.5 223.1 123.1 221.9Z" />
			<path id="Layer" class="shp45" d="M78.1 197.5C77.2 202.3 75 204.3 70.3 204.5C74.2 206.3 74.7 208.8 72.1 212.7C76.6 210.3 79.9 209.5 83.6 212.2C81.7 208 84.7 206.2 87.2 203.6C82 205.1 80.5 201.4 78.1 197.5Z" />
			<path id="Layer" class="shp46" d="M131.5 227.2C131.2 231.9 128.7 233.5 124.8 233.7C125.3 236.1 128.7 236.3 127.6 238.4C125.9 241.7 127 241.8 129.6 240.6C131.4 239.7 132.9 239.6 134.6 240.8C135.2 241.3 136 241.5 137.3 242.2C135.6 238 137.8 235.7 140.9 233C135.6 234.7 134.2 230.5 131.5 227.2Z" />
			<path id="Layer" class="shp47" d="M128.1 216.1C131.2 211.6 131.7 206.6 131.2 201.4C131 199.3 130.6 197.2 133.4 196.1C134.5 195.6 136 194.1 134.8 192.8C133.7 191.6 131.8 192.2 130.4 193.1C128.5 194.2 129 196.2 129 197.9C128.7 204 129 210.2 126.5 215.9C127 215.5 127.6 215.5 128.1 216.1Z" />
			<path id="Layer" class="shp47" d="M126.4 216C127 216.1 127.5 216.1 128.1 216.2C127.6 215.5 127 215.5 126.4 216Z" />
			<path id="Layer" class="shp4" d="M209.9 161.1C209.8 160.9 209.8 160.7 209.7 160.5C207.5 154.9 212 153.1 215 150.4C214.9 150.4 214.9 150.4 214.8 150.4L214.7 150.5C214.6 150.4 214.5 150.4 214.5 150.3C214.4 150.3 214.3 150.3 214.3 150.3C214.3 150.2 214.2 150.2 214.2 150.1C209.7 146.7 207.2 141.7 204.4 137C203.5 135.5 204.3 134.1 205.9 133C210.1 130.1 212.8 122 211.2 117.5C209.9 114.1 207.1 113.5 203.9 113.8C197.5 114.3 191.7 117 185.6 119.2C187.2 120.8 189.7 122.1 189.6 124.8C189.5 126.4 187.7 126.5 186.3 126.5C186.1 126.5 185.9 126.4 185.7 126.4C185.5 127 185.3 127.5 185.1 128.1C185.2 128.3 185.4 128.4 185.5 128.6C186.1 129.6 186.7 130.6 185.9 131.8C185.7 131.9 185.6 132 185.4 132.1C185.4 133.2 186.3 134.2 186.3 135.3C189.8 137.4 193.3 139.4 196 142.5C197.4 144.1 198.8 145.8 198.3 148.2C198 148.2 197.8 148.3 197.5 148.3C196.5 149.7 194.9 149.3 193.5 149.3C192.3 149.7 191.1 150.3 190.1 151.1C190.1 152.9 191.7 152.7 193 152.9C194.7 153.1 196.5 152.3 198.4 153.8C197.4 153.9 196.5 154 195.6 154C200.1 155.2 203.1 158.4 205.6 162.4C206.2 162.8 206.6 163.3 206.7 164.2C206.8 164.3 206.8 164.4 206.9 164.5C207.7 163.3 208.8 162.2 209.9 161.1Z" />
			<path id="Layer" class="shp4" d="M189.8 150.8C189.8 150.9 189.8 150.9 189.8 151C190.8 150.2 192 149.6 193.2 149.2C193 149.2 192.7 149.2 192.5 149.2C191.4 149.4 189.9 149.3 189.8 150.8Z" />
			<path id="Layer" class="shp4" d="M206.4 164.1C206.4 164.3 206.4 164.4 206.4 164.6C206.5 164.5 206.5 164.5 206.6 164.4C206.5 164.4 206.4 164.2 206.4 164.1Z" />
			<path id="Layer" class="shp4" d="M195.3 153.9C193.9 154 192.6 154.1 191.3 154.2C194.1 155.8 199.3 153.6 199.6 159.5C199.6 160.2 202.2 160.9 203.6 161.5C204.2 161.7 204.8 162 205.2 162.3C202.9 158.3 199.9 155.1 195.3 153.9Z" />
			<path id="Layer" class="shp4" d="M198 148C198.5 145.6 197.1 143.9 195.7 142.3C193 139.2 189.5 137.2 186 135.1C186 135.4 185.9 135.7 185.7 136.1C190 139.5 195 142.2 197.5 147.4C197.4 147.7 197.3 147.9 197.1 148.1C197.5 148.1 197.8 148 198 148Z" />
			<path id="Layer" class="shp4" d="M214.7 150.5L214.8 150.4C214.7 150.4 214.6 150.4 214.5 150.4C214.5 150.4 214.6 150.4 214.7 150.5Z" />
			<path id="Layer" class="shp4" d="M185.8 131.7C186.6 130.5 186 129.5 185.4 128.5C185.3 128.3 185.1 128.2 185 128C184.9 128.3 184.8 128.6 184.7 129C185.1 129.6 185.4 130.2 185.8 130.9C185.5 131.3 185.4 131.6 185.4 132C185.4 131.8 185.6 131.8 185.8 131.7Z" />
			<path id="Layer" class="shp4" d="M186.2 126.5C187.6 126.5 189.4 126.4 189.5 124.8C189.7 122.2 187.2 120.9 185.5 119.2C191.6 117 197.4 114.4 203.8 113.8C207 113.5 209.8 114.1 211.1 117.5C212.7 121.9 210 130 205.8 133C204.2 134.1 203.5 135.5 204.3 137C207.1 141.7 209.6 146.7 214.1 150.1C212.9 145.7 209.5 142.7 206.9 139.1C205.8 137.7 204.6 134 205.9 134.3C211.6 135.7 210.6 130.6 211.4 128.7C213.4 123.9 214.6 118.1 210.5 113.9C207.6 110.9 203.2 112.7 199.2 113.1C192.9 113.8 187.8 119.3 180.7 116.7C181.9 120.7 185.7 120.2 187.6 122.6C190.6 126.6 187 124.9 185.8 125.4C185.7 125.7 185.6 126 185.5 126.2C185.7 126.4 185.9 126.4 186.2 126.5Z" />
			<path id="Layer" class="shp4" d="M211.2 155.5C213.2 154.3 215.1 152.8 216 150.5C215.7 150.5 215.4 150.4 215.1 150.4C212 153.1 207.5 154.9 209.8 160.5C209.9 160.7 210 160.9 210 161.1C210.4 160.7 210.8 160.3 211.2 159.8C210.2 158.4 208.7 157 211.2 155.5Z" />
			<path id="Layer" class="shp48" d="M222.6 151.3C222.9 157.9 218.4 157.3 214.8 159.1C218.2 160.7 220.6 162.3 218 166.1C221.8 163.7 225.1 164.7 228.8 166.3C225.1 161.3 231 160.6 232.2 157.3C227.5 158.9 225.2 156.1 222.6 151.3Z" />
			<path id="Layer" class="shp49" d="M166.5 152.2C166.1 157 163.2 158.2 158.6 158.6C162.4 160.4 163.2 162.8 160.5 167C164.9 164.6 168.2 164.1 172.2 166.5C169.2 161.6 174.1 160.7 175.7 157.5C170.7 158.8 168.4 156.1 166.5 152.2Z" />
			<path id="Layer" class="shp50" d="M197 148.2C196.3 148.3 195.5 148.5 194.8 148.7C195.7 148.8 196.4 148.8 197 148.2Z" />
			<path id="Layer" class="shp50" d="M188.9 151.8C188 152.7 187.2 153.8 186.5 155.3C184.8 158.9 182.6 154.3 180.9 153.6C182.9 157.6 185.7 158.2 189.1 154.4C189.7 153.7 190.7 153.5 191.7 153.4C190.4 153.4 189.3 153.1 188.9 151.8Z" />
			<path id="Layer" class="shp50" d="M195 153.3C194.1 153.3 193.1 153.3 192.1 153.3C192.4 153.3 192.6 153.3 192.9 153.4C193.6 153.4 194.3 153.5 195 153.3Z" />
			<path id="Layer" class="shp50" d="M192.9 153.4C192.6 153.4 192.4 153.3 192.1 153.3C192 153.3 192 153.3 191.9 153.3C191.8 153.3 191.8 153.3 191.7 153.3C190.7 153.4 189.8 153.6 189.1 154.3C185.7 158.2 183 157.5 180.9 153.5C182.6 154.1 184.8 158.8 186.5 155.2C187.2 153.7 188 152.6 188.9 151.7C188.9 151.6 188.8 151.4 188.8 151.3C188.6 149.2 190.1 148.9 191.7 148.4C192.7 148.1 193.8 148.5 194.8 148.7C195.5 148.5 196.2 148.4 197 148.2C197.2 148 197.4 147.8 197.6 147.5C191 146.3 186.5 148.5 185.6 156C182.3 153.5 180.6 149.6 176.2 152C180.3 153.2 181.8 156.8 183.8 160.2C186.5 158.1 189 156.2 191.4 154.3C191.8 153.7 192.3 153.5 192.9 153.4Z" />
			<path id="Layer" class="shp50" d="M191.7 153.4C191.8 153.4 191.8 153.4 191.9 153.4C192 153.4 192 153.4 192.1 153.4C193.1 153.4 194.1 153.4 195 153.4C194.4 153.6 193.6 153.4 192.9 153.5C193.8 153.6 194.6 153.7 195.4 154C196.3 153.9 197.2 153.9 198.2 153.8C196.3 152.3 194.5 153.1 192.8 152.9C191.5 152.7 189.9 152.9 189.9 151.1C189.6 151.3 189.3 151.6 189 151.9C189.3 153.1 190.4 153.4 191.7 153.4Z" />
			<path id="Layer" class="shp50" d="M194.9 148.7C194.3 148.8 193.8 149 193.2 149.2C194.7 149.2 196.3 149.6 197.2 148.2C197.1 148.2 197.1 148.2 197 148.2C196.4 148.8 195.7 148.8 194.9 148.7Z" />
			<path id="Layer" class="shp50" d="M191.8 148.4C190.2 149 188.7 149.3 188.9 151.3C188.9 151.5 189 151.6 189 151.7C189.3 151.4 189.6 151.2 189.9 150.9C189.9 150.8 189.9 150.8 189.9 150.7C190 149.1 191.5 149.3 192.6 149.1C192.8 149.1 193.1 149.1 193.3 149.1C193.8 148.9 194.4 148.7 195 148.6C193.8 148.5 192.7 148 191.8 148.4Z" />
			<path id="Layer" class="shp50" d="M191.7 153.4C191.8 153.4 191.8 153.4 191.9 153.4C192 153.4 192 153.4 192.1 153.4C192 153.4 192 153.4 191.9 153.4C191.8 153.3 191.8 153.4 191.7 153.4Z" />
			<path id="Layer" class="shp50" d="M197.3 148.1C197.4 147.9 197.6 147.7 197.7 147.4C197.5 147.7 197.3 148 197.1 148.1C197.1 148.2 197.2 148.2 197.3 148.1Z" />
			<path id="Layer" class="shp50" d="M192.9 153.4C192.4 153.4 191.8 153.6 191.4 154.2C192.7 154.1 194 154 195.4 153.9C194.6 153.7 193.7 153.5 192.9 153.4Z" />
			<path id="Layer" class="shp51" d="M215.4 150C219.6 143.4 218.6 135.8 219.4 128.6C218.1 135.8 219.7 143.6 215 150C215.2 150 215.3 150 215.4 150L215.4 150Z" />
			<path id="Layer" class="shp51" d="M214.3 150.2L214.3 150.2C214.2 150.2 214.2 150.2 214.2 150.3C214.3 150.3 214.3 150.2 214.3 150.2Z" />
			<path id="Layer" class="shp51" d="M215.1 150C219.8 143.6 218.1 135.8 219.5 128.6C218.7 135.8 219.7 143.4 215.5 150C215.5 150 215.4 150 215.4 150.1C215.6 150.2 215.8 150.3 216 150.5C220.1 145.8 220.5 140.2 220.1 134.4C219.9 132.4 219.4 130.6 221.9 129.5C223.1 129 224.3 127.8 223.7 126.2C223.6 125.8 222.4 125.4 221.7 125.5C220.2 125.7 218.4 125.9 217.9 127.7C217.6 128.8 218 130.1 217.8 131.2C216.8 137.5 217.9 144.2 214.2 150C214.2 150 214.2 150 214.3 150C214.6 150 214.9 149.9 215.1 150Z" />
			<path id="Layer" class="shp51" d="M215.1 150C215 150.1 214.9 150.3 214.8 150.4C214.9 150.4 214.9 150.4 215 150.4C215.1 150.3 215.3 150.2 215.4 150.1C215.3 150 215.2 150 215.1 150Z" />
			<path id="Layer" class="shp51" d="M214.2 150.3C214.3 150.3 214.4 150.3 214.4 150.3L214.3 150.2C214.3 150.2 214.3 150.3 214.2 150.3Z" />
			<path id="Layer" class="shp51" d="M215 150.4C215.3 150.4 215.6 150.5 215.9 150.5C215.7 150.3 215.5 150.1 215.3 150.1C215.3 150.2 215.1 150.3 215 150.4Z" />
			<path id="Layer" class="shp51" d="M214.3 150.2L214.4 150.3C214.5 150.3 214.6 150.3 214.7 150.3C214.8 150.2 214.9 150 215 149.9C214.9 149.9 214.6 150 214.3 150.2Z" />
			<path id="Layer" class="shp52" d="M206.8 164.9C206.2 165.9 205.5 166.4 204.6 166.8C206.2 166.8 207.7 167.2 209.3 168.1C209 166.5 209.7 164.8 210 163.2C209.3 164.1 208.2 164.6 206.7 164.6C206.7 164.7 206.8 164.8 206.8 164.9Z" />
			<path id="Layer" class="shp52" d="M206.8 164.9C206.7 164.8 206.7 164.7 206.6 164.6C206.5 164.6 206.4 164.6 206.3 164.6C204.9 166.7 202.8 165.6 201.1 165.7C199.4 165.9 198.1 166.1 198.9 168.3C200.8 167.3 202.7 166.8 204.6 166.8C205.5 166.5 206.3 165.9 206.8 164.9Z" />
			<path id="Layer" class="shp52" d="M209.3 168.1C209.4 168.2 209.6 168.2 209.7 168.3C211 165.6 212.6 162.9 211.1 159.7C211 161.1 210.6 162.3 209.9 163.1C209.7 164.9 209 166.5 209.3 168.1Z" />
			<path id="Layer" class="shp52" d="M204.6 166.9C203.2 167.5 201.5 167.8 200 168.4C203.1 168.4 206.2 168.4 209.3 168.4C209.3 168.3 209.3 168.2 209.3 168.2C207.7 167.3 206.1 166.9 204.6 166.9Z" />
			<path id="Layer" class="shp52" d="M209.3 168.4C209.4 168.4 209.6 168.4 209.7 168.4C209.6 168.3 209.4 168.2 209.3 168.2C209.3 168.2 209.3 168.3 209.3 168.4Z" />
			<path id="Layer" class="shp52" d="M198.9 168.4C199.3 168.4 199.6 168.4 200 168.4C201.4 167.7 203.1 167.5 204.6 166.9C202.7 166.9 200.8 167.4 198.9 168.4Z" />
			<path id="Layer" class="shp52" d="M206.7 164.6C208.2 164.5 209.3 164 210 163.2C210.1 162.5 210.1 161.8 209.9 161.1C208.8 162.2 207.7 163.4 206.6 164.5C206.6 164.5 206.6 164.6 206.7 164.6Z" />
			<path id="Layer" class="shp52" d="M206.6 164.5C206.5 164.6 206.5 164.6 206.4 164.7C206.5 164.7 206.6 164.7 206.7 164.7C206.6 164.6 206.6 164.5 206.6 164.5Z" />
			<path id="Layer" class="shp52" d="M210 163.2C210.7 162.4 211.1 161.2 211.2 159.8C210.8 160.2 210.4 160.6 210 161.1C210.1 161.8 210.1 162.5 210 163.2Z" />
			<path id="Layer" class="shp53" d="M177.2 122C179.5 123.9 182.2 125.3 184.4 127.4C184.4 126.9 184.5 126.5 184.8 126.1C182 125.4 179.6 123.6 177.2 122Z" />
			<path id="Layer" class="shp53" d="M177.2 122C179.6 123.6 182 125.4 184.8 126.2C185 125.9 185.3 125.7 185.8 125.5C181.1 125.1 178.4 117.8 172.4 121.7C177.7 122.1 180.3 127 184.6 129C184.5 128.5 184.4 127.9 184.4 127.5C182.2 125.3 179.5 123.9 177.2 122Z" />
			<path id="Layer" class="shp53" d="M184.4 127.4C184.6 127.6 184.8 127.8 184.9 128C185.1 127.4 185.3 126.9 185.5 126.3C185.3 126.2 185 126.2 184.8 126.1C184.5 126.5 184.4 127 184.4 127.4Z" />
			<path id="Layer" class="shp53" d="M184.4 127.4C184.4 127.9 184.5 128.4 184.6 128.9C184.7 128.6 184.8 128.3 184.9 127.9C184.8 127.8 184.6 127.6 184.4 127.4Z" />
			<path id="Layer" class="shp53" d="M184.8 126.2C185 126.3 185.3 126.3 185.5 126.4C185.6 126.1 185.7 125.8 185.8 125.6C185.4 125.7 185 125.9 184.8 126.2Z" />
			<path id="Layer" class="shp54" d="M184.8 132.2C180.7 133.9 177.1 130.6 172.7 130.4C177.1 131.3 181.1 132.6 184.8 134.4C184.5 133.7 184.4 132.9 184.8 132.2Z" />
			<path id="Layer" class="shp54" d="M172.7 130.4C177.1 130.6 180.6 133.8 184.8 132.2C185 131.8 185.3 131.3 185.7 130.9C182.1 132 178.8 131.1 175.6 129.5C174 128.7 172.7 129.7 172.5 131C172.2 132.6 173.8 132.7 174.9 132.6C179 132.4 182.1 135.3 185.9 136.1C185.4 135.5 185.1 135 184.9 134.4C181.1 132.6 177.1 131.3 172.7 130.4Z" />
			<path id="Layer" class="shp54" d="M184.8 134.4C185.2 134.6 185.7 134.8 186.1 135.1C186.1 135.1 186.1 135.1 186.2 135.1C186.2 134 185.3 133 185.3 131.9C185.1 132 185 132.1 184.8 132.1C184.4 132.9 184.5 133.7 184.8 134.4Z" />
			<path id="Layer" class="shp54" d="M185.3 131.9C185.3 131.5 185.4 131.2 185.7 130.8C185.3 131.2 184.9 131.7 184.8 132.1C184.9 132.1 185.1 132 185.3 131.9Z" />
			<path id="Layer" class="shp54" d="M186.1 135.1C185.7 134.9 185.2 134.6 184.8 134.4C185 135 185.4 135.5 185.8 136.1C186 135.8 186.1 135.5 186.1 135.1L186.1 135.1Z" />
			<path id="Layer" class="shp55" d="M65.8 128.1C65.9 128.3 66 128.5 66.1 128.8C66.5 128.3 66.1 128.2 65.8 128.1Z" />
			<path id="Layer" class="shp55" d="M65.6 127.9C65.6 128 65.7 128 65.8 128C65.7 128 65.7 127.9 65.6 127.9C65.7 127.9 65.6 127.9 65.6 127.9L65.6 127.9Z" />
			<path id="Layer" class="shp55" d="M65.7 127.9L65.7 127.9L65.7 127.9Z" />
			<path id="Layer" class="shp55" d="M66.1 128.8C66 128.6 65.9 128.3 65.8 128.1C65.7 128.1 65.7 128 65.6 128C65.2 129.1 63.6 130.1 65.2 131.5C66.4 132.5 67.4 131.3 68.3 130.9C69.3 130.4 69.3 129.5 68.8 128.4C67.9 126.5 66.8 127.2 65.7 128C65.7 128.1 65.8 128.1 65.8 128.2C66.1 128.2 66.5 128.3 66.1 128.8Z" />
			<path id="Layer" class="shp55" d="M65.6 127.9L65.6 127.9C65.7 127.9 65.7 127.9 65.6 127.9L65.6 127.9L65.6 127.9Z" />
			<path id="Layer" class="shp56" d="M70.8 136.4C70.9 136.2 72 135.2 72.1 134.2C72.2 133.1 71.2 132.1 69.7 132.3C68.6 132.5 67.1 133 67.2 134.3C67.2 135.2 68.1 136.4 70.8 136.4Z" />
			<path id="Layer" class="shp57" d="M183.3 98.2C179.1 98.2 174.8 98.2 170.6 98.2C174.8 98.8 179 98.8 183.3 98.2Z" />
			<path id="Layer" class="shp57" d="M178.9 99.1C177.6 99.1 176.4 99.1 175.1 99.1C176.3 99.3 177.6 99.3 178.9 99.1Z" />
			<path id="Layer" class="shp57" d="M178.9 99.1C180.4 99 181.8 98.6 183.3 98.1C179.1 98.8 174.8 98.7 170.6 98.1C172.1 98.6 173.6 98.9 175.1 99.1C176.3 99.1 177.6 99.1 178.9 99.1Z" />
			<path id="Layer" class="shp58" d="M161.1 201.1C161 200 160.3 199.3 159.2 199.3C157.9 199.3 156.8 200 156.7 201.2C156.6 202.4 157.4 203.4 158.9 203.4C159.9 203 161.1 202.6 161.1 201.1Z" />
			<path id="Layer" class="shp59" d="M111.5 284.3C110.3 282.5 112.2 279.8 109.5 279C106.6 278.1 106.7 282 104.5 282.4C102.8 281.2 105.5 277.8 101.2 277.3C102.1 280.6 99.8 284.6 103 286.6C105.4 288.2 105.9 283.5 108.1 282.9C110 284.4 107.9 289.1 111.1 288.3C114.2 287.6 115.9 284 116.6 280.4C113.5 280.3 113.8 283.4 111.5 284.3Z" />
			<path id="Layer" class="shp60" d="M137.9 283.1C136.6 289.2 136.6 289.2 138.2 292.2C141.2 287.2 142.2 287.3 146.2 293.6C146.9 289.9 147.3 287.1 146.2 283.1C143.2 288.9 140.4 288.4 137.9 283.1Z" />
			<path id="Layer" class="shp61" d="M189.6 277.1C187.3 281.3 184.5 282.9 180.2 280.6C182.4 283.2 185.8 284.1 186.7 287.5C186.8 287.8 187.8 288 188.1 287.8C188.5 287.6 189 286.7 188.9 286.5C186.8 283.5 190.3 281 189.6 277.1Z" />
			<path id="Layer" class="shp62" d="M128 291.6C130.7 290.7 130.1 288.5 130.3 287C130.5 284.1 133.1 285.2 135.8 283.2C131.3 282.7 128.4 282.3 125.4 282C130.4 284.1 125.9 288.9 128 291.6Z" />
			<path id="Layer" class="shp63" d="M177.6 282C174.5 280 177 285.1 174.7 285.2C174 285.2 173.3 285.8 172.6 286.2C173 286.5 173.4 286.9 173.8 287.2C175.7 286.9 176.4 288.2 177.1 289.7C177.8 291.2 179.4 290.9 179.4 289.5C179.5 286.9 179.7 283.3 177.6 282Z" />
			<path id="Layer" class="shp64" d="M160.1 289.9C160.2 291 160.1 292.5 161.9 292.2C163.3 291.9 162.9 290.7 162.6 289.8C161.7 286.9 162.1 284.7 165.1 283C162.2 283.4 159.3 283.7 156.3 284.1C160.2 284.5 159.8 287.4 160.1 289.9Z" />
			<path id="Layer" class="shp64" d="M172.6 286.2C170.5 286.3 170.8 281 169 283.4C167.5 285.3 168.3 289.5 171.1 291.9C172.9 290.5 170.7 287.3 173.9 287.2C173.3 287.1 172.9 286.7 172.6 286.2Z" />
			<path id="Layer" class="shp64" d="M173.9 287.2C173.5 286.9 173.1 286.5 172.7 286.2C172.9 286.7 173.3 287.1 173.9 287.2Z" />
			<path id="Layer" class="shp65" d="M120.3 281.5C118.4 283.6 118.3 286.4 118 289C118 289.3 118.4 289.6 119.3 291.1C121.1 287.8 121.6 285.1 121.6 282.2C121.6 281.9 120.4 281.4 120.3 281.5Z" />
			<path id="Layer" fill-rule="evenodd" class="shp66" d="M44.1 226.9C43.4 230.4 41.7 232.7 38.5 232.3C34.8 231.8 32.5 229 32.5 225.3C32.5 222.4 34.6 220.5 37.6 220.6C41.6 220.8 43 224 44.1 226.9ZM41.6 226.6C41.4 224.7 40.3 223.2 38.3 223.1C36.3 223 34.9 224.3 34.8 226.3C34.7 228.3 36.1 229.8 38 229.9C40 230 41.3 228.7 41.6 226.6Z" />
			<path id="Layer" fill-rule="evenodd" class="shp67" d="M29.8 220.3C26.3 219.8 23.8 216.9 23.7 214.1C23.5 210.7 27.9 208.9 30.3 208.6C33.3 208.2 34.6 212.2 35 214.9C35.5 218.1 33 219.7 29.8 220.3ZM33 214.5C32.9 213.1 32.3 210.9 30.4 211.5C28.8 212 26.3 212.7 26.4 215C26.4 216.4 27.8 217.6 29.5 217.9C31.1 217.2 33 216.6 33 214.5Z" />
			<path id="Layer" class="shp68" d="M54.1 245.6C53.2 246.4 51.3 247.5 52.7 248.9C54.2 250.5 55.2 248.4 55.8 247.4C57.5 244.8 59.5 243.8 62.8 244.6C60.4 242.5 58 240.5 55.6 238.4C57.5 241.6 56.5 243.6 54.1 245.6Z" />
			<path id="Layer" class="shp69" d="M50.7 237.9C49 239.5 47.7 240.9 46.5 242.1C47.7 240.9 49 239.6 50.7 237.9Z" />
			<path id="Layer" class="shp69" d="M45.2 243.3L45.2 243.3L45.2 243.3Z" />
			<path id="Layer" class="shp69" d="M50.7 237.9C49.1 239.6 47.7 240.9 46.5 242.1C46.1 242.5 45.8 242.8 45.5 243.2C49.4 242.4 51.2 239.2 53.3 236.3C53.3 236.2 52.3 235.2 52.2 235.3C49.3 237.4 46 239.2 45.4 243.2C45.8 242.9 46.1 242.5 46.5 242.2C47.6 240.9 49 239.6 50.7 237.9Z" />
			<path id="Layer" class="shp69" d="M45.4 243.3C45.7 242.9 46.1 242.6 46.4 242.2C46.1 242.5 45.7 242.9 45.4 243.3C45.3 243.3 45.3 243.3 45.4 243.3L45.4 243.3Z" />
			<path id="Layer" class="shp69" d="M45.3 243.3L45.3 243.3L45.3 243.3L45.3 243.4L45.3 243.3Z" />
			<path id="Layer" class="shp70" d="M269.3 211.9C266.5 210.7 266.9 208.9 267.5 206.5C264.8 208.7 263.2 211.3 262.3 214.6C264.3 213 266 211.9 268.4 214C269.4 214.9 271.3 217.5 272.6 215.1C273.7 213.2 270.7 212.5 269.3 211.9Z" />
			<path id="Layer" class="shp68" d="M260.4 224.6C260.4 224.5 260.5 224.4 260.5 224.4C260.3 224.6 260.1 224.7 259.8 224.9C258.4 225.4 257.1 225.1 255.9 224.5C256.8 225.4 258 226 259.1 226.5C261.3 227.5 259.6 225 260.4 224.6Z" />
			<path id="Layer" class="shp68" d="M259.8 224.8C260 224.7 260.3 224.5 260.5 224.3L260.5 224.2C260.2 224.2 259.8 224.2 259.5 224.2C257.6 224.8 256.7 222.4 254.9 222.8C255.1 223.5 255.5 224 255.9 224.5C257.2 225 258.4 225.3 259.8 224.8Z" />
			<path id="Layer" class="shp68" d="M260.5 224.4C260.5 224.5 260.4 224.6 260.4 224.6C259.6 225 261.3 227.5 259.1 226.4C258 225.9 256.8 225.3 255.9 224.4C255.6 224.2 255.2 224.1 254.9 223.9C254.8 223.8 254.6 223.7 254.5 223.6C254.1 225 255.6 225.6 256.5 226.3C258.4 227.5 260.1 230.7 262 229.6C265.2 227.7 258.7 226.7 260.8 224.2C260.7 224.2 260.6 224.2 260.5 224.2C260.5 224.3 260.5 224.3 260.5 224.4Z" />
			<path id="Layer" class="shp68" d="M254.9 223.9C255.2 224.1 255.6 224.3 255.9 224.4C255.5 223.9 255.1 223.4 254.9 222.7C254.7 223 254.6 223.3 254.5 223.6C254.7 223.7 254.8 223.8 254.9 223.9Z" />
			<path id="Layer" class="shp68" d="M260.5 224.3L260.5 224.4C260.5 224.3 260.5 224.3 260.5 224.3C260.6 224.3 260.5 224.3 260.5 224.3Z" />
			<path id="Layer" class="shp71" d="M264.9 221.7C263.9 221.1 262.9 220.4 261.9 219.5C261.9 220.5 261.8 221.4 261.7 222.2C262.6 221.5 263.7 221.6 264.9 221.7Z" />
			<path id="Layer" class="shp71" d="M260.6 224C260.9 223.2 261.2 222.6 261.7 222.2C261.9 221.4 261.9 220.5 261.9 219.5C262.9 220.3 263.9 221.1 264.9 221.7C265.9 221.8 266.9 222 267.8 221.9C264.7 220.9 263.1 216.7 258.3 217.4C260.9 219.7 261.4 221.9 259.5 224.1C259.9 223.9 260.2 223.8 260.6 224Z" />
			<path id="Layer" class="shp71" d="M264.9 221.7C263.7 221.5 262.5 221.5 261.6 222.2C261.4 222.9 261.1 223.6 260.6 224.1C260.7 224.1 260.7 224.2 260.8 224.2C262.1 223.6 262.8 221 264.9 223.2C266.5 224.8 267.3 224.1 267.6 222.6L267.5 222.6C266.6 222.5 265.8 222.2 264.9 221.7Z" />
			<path id="Layer" class="shp71" d="M264.9 221.7C265.7 222.2 266.6 222.5 267.6 222.6L267.7 222.6C267.8 222.4 267.8 222.2 267.8 221.9C266.9 222.1 265.9 221.9 264.9 221.7Z" />
			<path id="Layer" class="shp71" d="M261.7 222.2C261.3 222.6 260.9 223.1 260.6 224L260.7 224.1C261.2 223.6 261.5 223 261.7 222.2Z" />
			<path id="Layer" class="shp71" d="M260.6 224C260.3 223.8 259.9 223.9 259.6 224.2L259.6 224.2C259.9 224.2 260.3 224.2 260.6 224.2C260.5 224.2 260.6 224.1 260.6 224Z" />
			<path id="Layer" class="shp71" d="M260.6 224.3C260.7 224.3 260.8 224.3 260.9 224.3C260.8 224.2 260.8 224.2 260.7 224.2C260.7 224.2 260.6 224.2 260.6 224.3Z" />
			<path id="Layer" class="shp71" d="M260.7 224.1L260.6 224C260.6 224.1 260.6 224.1 260.5 224.2C260.5 224.2 260.5 224.2 260.6 224.2C260.6 224.2 260.7 224.2 260.7 224.1Z" />
			<path id="Layer" class="shp72" d="M248 238.9C250.2 240.7 252.4 240.3 254.4 238.7C256.3 237.1 258.6 235.3 257.7 232.4C257.1 230.4 255.5 229.7 253.6 231.4C254.7 232.1 248.9 234 254.1 233.9C256.7 233.8 255.2 235.3 254.7 235.9C253.8 237.2 252.5 238.2 250.7 237.5C249.3 237 248.2 235.9 248.3 234.5C248.5 232.1 250.1 230.7 252.6 230.5C253.2 229.9 253.7 228.7 253 228.6C249.7 228 248 230.3 246.6 232.7C245.2 235.1 245.9 237.2 248 238.9Z" />
			<path id="Layer" class="shp73" d="M235.1 251.1C237 251.6 237.7 250.1 238.8 249.1C240 248.1 240 247.3 239.1 246.2C238.6 245.6 237.9 244.9 237.2 245.5C236.4 246.2 236.8 247.3 236.6 248.3C236.6 248.4 236.5 248.5 236.4 248.6C237.6 250 235.9 250.4 235.1 251.1Z" />
			<path id="Layer" class="shp73" d="M236.4 248.6C236.5 248.5 236.5 248.4 236.6 248.3C236.8 247.4 236.4 246.2 237.2 245.5C237.9 244.9 238.6 245.6 239.1 246.2C240 247.3 240 248.1 238.8 249.1C237.7 250.1 237 251.6 235.1 251.1C234.9 251.2 234.8 251.4 234.8 251.6C236.3 252.8 238.7 255.5 239.1 251.6C239.4 249 239.2 249 241.1 250.1C242 250.6 243 250.2 242.9 249.5C242.3 246.7 239.9 245.1 238.3 242.9C237.7 242 236.8 241.8 235.8 242.6C233.3 244.6 235.1 246.4 236 248.3C236.2 248.3 236.3 248.4 236.4 248.6Z" />
			<path id="Layer" class="shp74" d="M234.6 251.2C234.2 250.1 236.2 249.8 236.2 248.8C235.4 250.1 234.1 250 232.7 249.5C230.9 248.8 229.5 249.4 228.1 250.3C230.7 250.9 232.4 252.5 233.6 254.5C233.2 253.4 232.7 252.1 234.6 251.2Z" />
			<path id="Layer" class="shp74" d="M233.8 254.6C234.2 255.2 234.5 255.9 234.8 256.6C236.1 255.3 235.3 254.3 234.3 253.3C233.4 252.4 233.4 251.7 234.9 251.5C234.8 251.4 234.8 251.3 234.8 251.2C232.7 252.1 233.2 253.4 233.8 254.6Z" />
			<path id="Layer" class="shp74" d="M228.3 250.4C229.7 249.5 231.1 248.9 232.9 249.6C234.2 250.1 235.6 250.2 236.4 248.9C236.4 248.7 236.3 248.5 236.1 248.2C234.5 250.8 233.6 248.1 232.6 247.6C229.5 246.1 228.3 247.3 228.3 250.4L228.3 250.4C228.2 250.3 228.2 250.4 228.3 250.4Z" />
			<path id="Layer" class="shp74" d="M228.3 250.4C228.2 250.4 228.2 250.4 228.3 250.4C230.8 251.9 231.5 255.3 234.4 256.5C234.4 255.9 234.1 255.3 233.8 254.7C232.6 252.5 230.9 251 228.3 250.4Z" />
			<path id="Layer" class="shp74" d="M233.8 254.6C234.1 255.2 234.4 255.8 234.4 256.4C234.5 256.5 234.6 256.5 234.8 256.6C234.4 255.9 234.1 255.2 233.8 254.6Z" />
			<path id="Layer" class="shp74" d="M228.1 250.3L228.1 250.3C228.2 250.3 228.2 250.4 228.1 250.3C228.2 250.4 228.2 250.3 228.2 250.3C228.2 250.4 228.2 250.3 228.1 250.3Z" />
			<path id="Layer" class="shp74" d="M234.6 251.2C234.7 251.1 234.9 251.1 235 251L235 251C235.8 250.3 237.5 249.9 236.3 248.5C236.3 248.6 236.2 248.7 236.2 248.8C236.3 249.8 234.3 250.1 234.6 251.2Z" />
			<path id="Layer" class="shp74" d="M235.1 251.1C234.9 251.2 234.8 251.2 234.7 251.3C234.7 251.4 234.8 251.5 234.8 251.6C234.8 251.3 234.9 251.2 235.1 251.1L235.1 251.1Z" />
			<path id="Layer" class="shp74" d="M236.4 248.6C236.3 248.5 236.2 248.3 236 248.2C236.2 248.5 236.3 248.7 236.3 248.9C236.3 248.8 236.4 248.7 236.4 248.6Z" />
			<path id="Layer" class="shp75" d="M251.8 236.1C250.5 233.7 251.6 232.4 253.5 231.4C253.2 231.1 252.9 230.8 252.5 230.5C251.7 232.2 248.6 233.6 251.8 236.1Z" />
			<path id="Layer" class="shp75" d="M248.3 234.4C248.2 235.8 249.3 236.9 250.7 237.4C252.5 238.1 253.8 237.1 254.7 235.8C255.1 235.2 256.7 233.8 254.1 233.8C249 233.9 254.8 232 253.6 231.3C251.6 232.3 250.5 233.7 251.9 236C248.6 233.5 251.8 232.1 252.7 230.4C250.2 230.7 248.5 232 248.3 234.4Z" />
			<path id="Layer" class="shp66" d="M247.4 245.8C247.6 245.8 248.2 244.8 247.8 244.3C246 242 244 239.9 242 237.8C241.3 237.1 240.6 237.9 240.3 238.7C240 239.8 245.5 245.8 247.4 245.8Z" />
			<path id="Layer" class="shp76" d="M38.3 223.1C36.3 223 34.8 224.3 34.8 226.3C34.7 228.3 36.1 229.8 38 229.9C39.9 230 41.2 228.7 41.6 226.7C41.4 224.6 40.4 223.2 38.3 223.1Z" />
			<path id="Layer" class="shp77" d="M30.3 211.5C28.7 212 26.2 212.7 26.3 215C26.4 216.4 27.7 217.6 29.4 217.9C31 217.2 33 216.6 32.8 214.5C32.8 213.1 32.2 210.8 30.3 211.5Z" />
		</g>
	</g>
</svg>