<svg width="32" height="32" viewBox="0 0 32 32" fill="none" xmlns="http://www.w3.org/2000/svg">
<path d="M10.4 2.66699H21.6C25.8666 2.66699 29.3333 6.13366 29.3333 10.4003V21.6003C29.3333 23.6513 28.5185 25.6183 27.0683 27.0686C25.618 28.5189 23.651 29.3337 21.6 29.3337H10.4C6.13329 29.3337 2.66663 25.867 2.66663 21.6003V10.4003C2.66663 8.34932 3.48139 6.38231 4.93167 4.93203C6.38195 3.48175 8.34895 2.66699 10.4 2.66699ZM10.1333 5.33366C8.86025 5.33366 7.63935 5.83937 6.73918 6.73955C5.83901 7.63972 5.33329 8.86062 5.33329 10.1337V21.867C5.33329 24.5203 7.47996 26.667 10.1333 26.667H21.8666C23.1397 26.667 24.3606 26.1613 25.2607 25.2611C26.1609 24.3609 26.6666 23.14 26.6666 21.867V10.1337C26.6666 7.48033 24.52 5.33366 21.8666 5.33366H10.1333ZM23 7.33366C23.442 7.33366 23.8659 7.50925 24.1785 7.82181C24.491 8.13437 24.6666 8.5583 24.6666 9.00033C24.6666 9.44235 24.491 9.86628 24.1785 10.1788C23.8659 10.4914 23.442 10.667 23 10.667C22.5579 10.667 22.134 10.4914 21.8214 10.1788C21.5089 9.86628 21.3333 9.44235 21.3333 9.00033C21.3333 8.5583 21.5089 8.13437 21.8214 7.82181C22.134 7.50925 22.5579 7.33366 23 7.33366ZM16 9.33366C17.7681 9.33366 19.4638 10.036 20.714 11.2863C21.9642 12.5365 22.6666 14.2322 22.6666 16.0003C22.6666 17.7684 21.9642 19.4641 20.714 20.7144C19.4638 21.9646 17.7681 22.667 16 22.667C14.2318 22.667 12.5362 21.9646 11.2859 20.7144C10.0357 19.4641 9.33329 17.7684 9.33329 16.0003C9.33329 14.2322 10.0357 12.5365 11.2859 11.2863C12.5362 10.036 14.2318 9.33366 16 9.33366ZM16 12.0003C14.9391 12.0003 13.9217 12.4218 13.1715 13.1719C12.4214 13.922 12 14.9395 12 16.0003C12 17.0612 12.4214 18.0786 13.1715 18.8288C13.9217 19.5789 14.9391 20.0003 16 20.0003C17.0608 20.0003 18.0782 19.5789 18.8284 18.8288C19.5785 18.0786 20 17.0612 20 16.0003C20 14.9395 19.5785 13.922 18.8284 13.1719C18.0782 12.4218 17.0608 12.0003 16 12.0003Z" fill="white"/>
</svg>
