<svg width="158" height="156" viewBox="0 0 158 156" fill="none" xmlns="http://www.w3.org/2000/svg">
<path d="M10.5469 96.0655L9.03151 96.3814L8.43272 93.5092C8.30537 92.8983 8.08259 92.4177 7.76437 92.0673C7.43441 91.7193 7.04303 91.4883 6.59023 91.3743C6.13499 91.2486 5.6548 91.2383 5.14966 91.3436C4.63277 91.4514 4.19079 91.6539 3.82371 91.951C3.45419 92.2365 3.19358 92.6034 3.0419 93.0518C2.89022 93.5002 2.87805 94.0298 3.0054 94.6407L3.60419 97.5129L2.08877 97.8288L1.55611 95.2738C1.33569 94.2165 1.32235 93.2999 1.51609 92.5241C1.69562 91.7389 2.05287 91.1005 2.58781 90.609C3.12276 90.1175 3.80727 89.7848 4.64133 89.6109L4.92327 89.5521C5.74559 89.3807 6.50602 89.4122 7.20456 89.6466C7.89134 89.8834 8.47977 90.3246 8.96984 90.9701C9.44571 91.6064 9.79385 92.4532 10.0143 93.5105L10.5469 96.0655ZM15.3092 96.5069L2.37531 99.2033L2.0153 97.4764L14.9492 94.78L15.3092 96.5069ZM13.2392 85.537L0.146487 86.6509L1.07697e-06 84.9291L13.0927 83.8152L13.2392 85.537ZM1.62248 87.8622L0.259403 87.9781L1.07697e-06 84.9291L1.36308 84.8132L1.62248 87.8622ZM13.1943 74.8775L10.3156 74.79L10.3068 75.0779L6.97838 74.9768C6.31868 74.9568 5.81563 75.1156 5.46922 75.4533C5.12318 75.7789 4.94014 76.2716 4.92011 76.9313C4.90882 77.3031 4.90316 77.6871 4.90314 78.0833C4.90311 78.4795 4.90363 78.8577 4.9047 79.2179C4.90577 79.5781 4.91429 79.8905 4.93027 80.1551L3.41896 80.1092C3.40299 79.8446 3.39337 79.5681 3.39012 79.2799C3.37524 78.9793 3.37253 78.6731 3.382 78.3612C3.37947 78.049 3.38258 77.749 3.39132 77.4611C3.42119 76.4776 3.56553 75.6776 3.82436 75.0611C4.0712 74.4444 4.46305 73.994 4.99991 73.7102C5.53677 73.4264 6.25499 73.2981 7.15458 73.3254L13.2358 73.5101L13.1943 74.8775ZM13.3505 78.0336C13.3287 78.7533 13.1898 79.3734 12.9339 79.8939C12.6663 80.402 12.2943 80.7929 11.8178 81.0665C11.3416 81.3282 10.7737 81.449 10.114 81.429C9.43031 81.4082 8.86512 81.241 8.41844 80.9273C7.97212 80.6016 7.64393 80.1414 7.43388 79.5468C7.21184 78.9518 7.11338 78.2404 7.13851 77.4128L7.21773 74.804L8.51313 74.8434L8.43173 77.5241C8.41061 78.2198 8.56232 78.7587 8.88688 79.1407C9.21143 79.5227 9.63759 79.7217 10.1653 79.7378C10.6931 79.7538 11.1246 79.5808 11.4597 79.2188C11.7948 78.8568 11.973 78.328 11.9941 77.6323C12.0065 77.2245 11.9463 76.8325 11.8137 76.4563C11.6691 76.0797 11.4265 75.7662 11.0859 75.5158C10.7337 75.2529 10.2461 75.1001 9.62316 75.0571L10.321 74.6101C11.0029 74.6909 11.5735 74.8763 12.033 75.1663C12.4807 75.4441 12.8173 75.8264 13.0426 76.3135C13.2683 76.7886 13.3709 77.362 13.3505 78.0336ZM17.1387 71.8956L15.6154 71.6197L15.8625 70.2559C15.9352 69.8544 15.943 69.5083 15.8859 69.2174C15.8428 68.9169 15.7192 68.6567 15.5151 68.4368C15.3132 68.2051 15.0281 67.995 14.6598 67.8063L5.17396 63.0148L5.47554 61.3499L15.3721 66.3987C15.9637 66.701 16.4233 67.0586 16.751 67.4717C17.0904 67.8868 17.3038 68.3584 17.3911 68.8864C17.4923 69.4047 17.4841 69.9886 17.3664 70.6381L17.1387 71.8956ZM13.765 68.3028L12.3481 68.0461L12.7202 65.9915L14.1372 66.2482L13.765 68.3028ZM13.7329 68.4799L3.87461 70.1881L4.18902 68.4523L14.0217 66.8858L13.7329 68.4799ZM18.9497 52.058L16.2873 50.9599L16.1774 51.2262L13.099 49.9565C12.4889 49.7049 11.9621 49.6758 11.5188 49.8695C11.0801 50.052 10.7349 50.4483 10.4833 51.0584C10.3414 51.4023 10.2006 51.7596 10.0607 52.1303C9.92077 52.5009 9.78774 52.8549 9.66157 53.1923C9.5354 53.5297 9.43308 53.825 9.35461 54.0782L7.95683 53.5017C8.0353 53.2485 8.12389 52.9865 8.22261 52.7157C8.31481 52.4292 8.42039 52.1417 8.53935 51.8533C8.64721 51.5603 8.75605 51.2807 8.86586 51.0144C9.24104 50.1047 9.65853 49.4072 10.1183 48.9219C10.567 48.432 11.0926 48.149 11.6951 48.073C12.2976 47.9969 13.0149 48.1305 13.8469 48.4737L19.4713 50.7934L18.9497 52.058ZM17.9816 55.0662C17.7071 55.7318 17.3582 56.2629 16.9351 56.6595C16.5053 57.0404 16.0193 57.2748 15.4768 57.3626C14.9389 57.4393 14.3649 57.3518 13.7548 57.1002C13.1224 56.8394 12.6527 56.4834 12.3455 56.0322C12.0429 55.5699 11.8983 55.0235 11.9118 54.393C11.9141 53.7579 12.0731 53.0576 12.3888 52.2922L13.3839 49.8793L14.582 50.3735L13.5594 52.8529C13.2941 53.4963 13.2458 54.054 13.4146 54.526C13.5833 54.998 13.9118 55.3347 14.3999 55.536C14.888 55.7373 15.3528 55.7278 15.7941 55.5074C16.2355 55.2871 16.5888 54.8552 16.8542 54.2118C17.0098 53.8346 17.0919 53.4466 17.1006 53.0478C17.0983 52.6444 16.982 52.2654 16.7518 51.9109C16.515 51.5407 16.1128 51.2255 15.5451 50.9654L16.3559 50.7935C16.9653 51.1098 17.4338 51.4847 17.7612 51.9183C18.0821 52.3362 18.2619 52.8128 18.3008 53.3481C18.3442 53.8722 18.2378 54.4449 17.9816 55.0662ZM23.9458 43.0744L14.1688 40.3299L15.1884 38.8465L24.9246 41.6503L23.9458 43.0744ZM24.1905 42.7184L23.0631 41.9436L24.2458 40.2228L25.3732 40.9976L24.1905 42.7184ZM24.6595 42.036L18.3184 34.2924L19.2767 32.898L25.5873 40.6861L24.6595 42.036ZM28.8301 36.4016L21.5915 30.0776L22.7284 28.7762L29.967 35.1002L28.8301 36.4016ZM21.6506 32.0892L20.6204 31.1891L22.7284 28.7762L23.7586 29.6763L21.6506 32.0892ZM20.7455 28.6931C20.4928 28.9823 20.2265 29.1321 19.9466 29.1424C19.6745 29.1438 19.421 29.0418 19.1861 28.8365C18.9511 28.6313 18.816 28.3937 18.7808 28.124C18.7535 27.8452 18.8662 27.5612 19.1188 27.272C19.3715 26.9828 19.6338 26.8375 19.9059 26.8362C20.1858 26.8258 20.4433 26.9233 20.6782 27.1285C20.9132 27.3338 21.0443 27.5759 21.0716 27.8547C21.1069 28.1244 20.9981 28.4039 20.7455 28.6931ZM35.428 30.4683C34.9143 30.9199 34.3579 31.2412 33.7589 31.4323C33.16 31.6233 32.5477 31.6902 31.9222 31.633C31.3057 31.5678 30.7092 31.3892 30.1328 31.097C29.5654 30.7969 29.0519 30.3855 28.5924 29.8628L28.3785 29.6194C27.9269 29.1057 27.5886 28.5483 27.3637 27.9471C27.1388 27.346 27.029 26.7395 27.0343 26.1276C27.0487 25.5078 27.1845 24.9171 27.4417 24.3555C27.7 23.7769 28.0905 23.2578 28.6132 22.7983C29.163 22.315 29.7661 21.9924 30.4228 21.8306C31.0715 21.6597 31.7539 21.6909 32.4702 21.924C33.1864 22.1572 33.9033 22.6454 34.6207 23.3888L33.3193 22.999L29.0528 18.1458L30.3506 17.0048L39.0263 26.8735L37.9989 27.7767L35.1823 24.5728L35.5608 24.24C36.2457 25.0919 36.6608 25.9093 36.806 26.6924C36.9433 27.4665 36.8806 28.1767 36.6179 28.823C36.3564 29.4524 35.9597 30.0008 35.428 30.4683ZM34.6054 29.1782C35.047 28.79 35.3609 28.3383 35.5471 27.8231C35.7333 27.3079 35.7721 26.7705 35.6636 26.2108C35.5471 25.6421 35.267 25.1054 34.8233 24.6007L34.2767 23.9789C33.8409 23.4832 33.3598 23.1631 32.8334 23.0187C32.3081 22.8574 31.7815 22.849 31.2535 22.9936C30.7266 23.1213 30.2469 23.3753 29.8143 23.7556C29.3366 24.1755 29.0121 24.6605 28.8406 25.2107C28.6782 25.7529 28.6716 26.318 28.8209 26.9057C28.9791 27.4856 29.2999 28.0504 29.7832 28.6002C30.2665 29.15 30.7941 29.541 31.3658 29.7734C31.9296 29.9967 32.4954 30.0586 33.0629 29.959C33.6226 29.8505 34.1368 29.5902 34.6054 29.1782ZM45.2005 23.1989C44.4829 23.6355 43.7878 23.8898 43.1152 23.9618C42.4427 24.0338 41.8208 23.9697 41.2495 23.7694C40.672 23.5589 40.1484 23.2524 39.6788 22.8498C39.2194 22.441 38.8307 21.9752 38.5126 21.4523L38.3442 21.1755C38.0199 20.6424 37.7819 20.0779 37.6301 19.482C37.4885 18.8799 37.4601 18.2791 37.545 17.6797C37.6236 17.07 37.8423 16.4945 38.2012 15.9531C38.5642 15.3952 39.0891 14.9074 39.776 14.4895C40.6679 13.9469 41.5194 13.6958 42.3305 13.7361C43.1456 13.76 43.8756 13.9901 44.5204 14.4266C45.1754 14.8569 45.7118 15.4154 46.1297 16.1023L46.5319 16.7636L39.2427 21.1978L38.5691 20.0906L44.7819 16.3112L44.8084 17.1168C44.4529 16.5324 44.0551 16.0862 43.6148 15.7781C43.1684 15.4598 42.6889 15.295 42.1763 15.2837C41.6638 15.2724 41.1256 15.4383 40.5618 15.7813C39.9774 16.1368 39.5715 16.5663 39.3441 17.0698C39.1269 17.5671 39.0612 18.1057 39.1471 18.6855C39.2432 19.2591 39.4752 19.8484 39.8432 20.4533C40.1987 21.0376 40.6121 21.5095 41.0836 21.8688C41.559 22.2117 42.0808 22.3999 42.649 22.4335C43.211 22.4568 43.7996 22.2814 44.4147 21.9072C45.0606 21.5143 45.4961 21.0527 45.7213 20.5224C45.9568 19.9858 46.0002 19.503 45.8514 19.0738L47.2354 18.2318C47.4657 18.8643 47.5364 19.4885 47.4475 20.1044C47.3587 20.7202 47.1234 21.2918 46.7418 21.8189C46.3602 22.346 45.8464 22.806 45.2005 23.1989ZM55.1612 18.3644C54.3789 18.6704 53.6392 18.8051 52.942 18.7686C52.2447 18.732 51.6041 18.5767 51.0202 18.3026C50.443 18.013 49.9412 17.6359 49.5146 17.1713C49.0993 16.7024 48.7801 16.183 48.5572 15.613L48.4392 15.3113C48.2162 14.7413 48.1038 14.141 48.102 13.5104C48.0957 12.8685 48.2141 12.2488 48.4572 11.6513C48.6958 11.0425 49.061 10.4938 49.5528 10.0051C50.0402 9.50516 50.6638 9.10659 51.4237 8.80934C52.1837 8.5121 52.9123 8.38174 53.6095 8.41827C54.3023 8.44363 54.9429 8.59895 55.5312 8.88423C56.1152 9.15834 56.6227 9.53326 57.0536 10.009C57.4801 10.4735 57.8048 10.9908 58.0278 11.5607L58.1458 11.8625C58.3687 12.4324 58.4811 13.0327 58.483 13.6634C58.496 14.2896 58.3832 14.9072 58.1446 15.5159C57.9127 16.1091 57.5531 16.6557 57.0657 17.1556C56.5783 17.6555 55.9435 18.0584 55.1612 18.3644ZM54.5973 16.9228C55.2678 16.6605 55.781 16.2923 56.1367 15.8181C56.4992 15.3284 56.705 14.784 56.7542 14.185C56.8145 13.5815 56.7223 12.9669 56.4775 12.3411C56.2283 11.7041 55.8769 11.1844 55.4231 10.782C54.9694 10.3797 54.4454 10.1272 53.8512 10.0246C53.2682 9.91761 52.647 9.99308 51.9876 10.251C51.3395 10.5045 50.8319 10.8706 50.465 11.3491C50.0981 11.8276 49.8845 12.3686 49.8242 12.972C49.7639 13.5755 49.8583 14.1957 50.1075 14.8327C50.3522 15.4585 50.6959 15.9748 51.1385 16.3815C51.5922 16.7839 52.1128 17.0441 52.7002 17.1623C53.2944 17.2649 53.9268 17.185 54.5973 16.9228ZM64.8762 10.9494L64.4588 8.7934L66.5088 8.39656L66.9262 10.5525L64.8762 10.9494ZM75.9155 9.01042L75.9014 7.46248L78.8353 7.43589C79.4593 7.43023 79.9742 7.30556 80.38 7.06187C80.7857 6.80618 81.0886 6.46743 81.2888 6.04559C81.501 5.62365 81.6047 5.15469 81.6001 4.63871C81.5953 4.11074 81.483 3.63773 81.2632 3.21971C81.0554 2.80158 80.7464 2.47436 80.3363 2.23807C79.9261 2.00178 79.409 1.88646 78.7851 1.89212L75.8512 1.91871L75.8371 0.37077L78.447 0.347115C79.527 0.337326 80.4285 0.503162 81.1517 0.844622C81.8867 1.17397 82.443 1.64895 82.8206 2.26955C83.1983 2.89016 83.391 3.62644 83.3987 4.47841L83.4013 4.76639C83.4089 5.60636 83.2296 6.34602 82.8634 6.98536C82.4971 7.61271 81.9495 8.10369 81.2207 8.45831C80.5037 8.80082 79.6053 8.97697 78.5253 8.98676L75.9155 9.01042ZM74.5529 13.595L74.4332 0.383495L76.1971 0.367507L76.3169 13.579L74.5529 13.595ZM85.7169 13.7109L87.216 0.656713L88.9328 0.853866L87.4336 13.9081L85.7169 13.7109ZM85.7367 1.86381L85.8927 0.504741L88.9328 0.853866L88.7767 2.21293L85.7367 1.86381ZM96.1769 15.7671L96.8287 12.9618L96.5482 12.8966L97.3018 9.65304C97.4511 9.01017 97.3944 8.48571 97.1314 8.07967C96.8802 7.67635 96.4331 7.4 95.7903 7.25064C95.4279 7.16645 95.0525 7.08539 94.6641 7.00746C94.2756 6.92953 93.9047 6.85567 93.5513 6.78589C93.198 6.7161 92.89 6.66303 92.6274 6.62666L92.9696 5.15389C93.2322 5.19026 93.5051 5.23519 93.7883 5.28868C94.086 5.33319 94.3868 5.39075 94.6907 5.46136C94.9973 5.52028 95.2909 5.58233 95.5714 5.64751C96.5299 5.8702 97.2858 6.16904 97.8393 6.54403C98.3955 6.90734 98.76 7.38009 98.9327 7.96228C99.1055 8.54448 99.09 9.2739 98.8863 10.1505L97.5094 16.0767L96.1769 15.7671ZM93.0516 15.2997C92.3503 15.1367 91.7696 14.8786 91.3096 14.5254C90.8641 14.1631 90.554 13.7215 90.3794 13.2005C90.2164 12.6821 90.2096 12.1015 90.359 11.4587C90.5138 10.7924 90.7889 10.2711 91.1843 9.89487C91.5914 9.52131 92.1072 9.29002 92.7315 9.20101C93.3586 9.10031 94.0753 9.14365 94.8819 9.33104L97.4241 9.92171L97.1308 11.1841L94.5184 10.5771C93.8405 10.4196 93.2823 10.4624 92.8439 10.7055C92.4055 10.9486 92.1266 11.3273 92.0071 11.8416C91.8876 12.3559 91.9724 12.8129 92.2614 13.2127C92.5504 13.6125 93.0339 13.8911 93.7119 14.0486C94.1093 14.141 94.5055 14.1591 94.9004 14.103C95.298 14.0353 95.6531 13.8591 95.9657 13.5744C96.2926 13.2808 96.5384 12.8328 96.703 12.2304L97.004 13.0026C96.7908 13.6552 96.4968 14.1783 96.122 14.5717C95.7617 14.9561 95.3206 15.2109 94.7987 15.336C94.2885 15.4639 93.7062 15.4518 93.0516 15.2997ZM98.318 20.2199L98.89 18.7814L100.178 19.2936C100.557 19.4444 100.895 19.5206 101.191 19.5222C101.494 19.5395 101.774 19.4698 102.03 19.3133C102.297 19.1613 102.559 18.9234 102.817 18.5998L109.392 10.2504L110.964 10.8756L104.056 19.5767C103.642 20.0967 103.201 20.4764 102.731 20.7158C102.257 20.9663 101.753 21.0821 101.218 21.0631C100.69 21.0597 100.119 20.936 99.5055 20.6921L98.318 20.2199ZM102.508 17.6244L103.04 16.2863L104.98 17.0579L104.448 18.396L102.508 17.6244ZM102.34 17.5579L102.618 7.55649L104.257 8.20835L103.846 18.1565L102.34 17.5579ZM117.409 25.9125L119.01 23.5187L118.771 23.3586L120.622 20.5907C120.989 20.0421 121.122 19.5314 121.019 19.0587C120.927 18.5926 120.606 18.1761 120.058 17.8091C119.748 17.6023 119.426 17.3938 119.09 17.1836C118.754 16.9734 118.433 16.7732 118.128 16.583C117.822 16.3928 117.552 16.2343 117.32 16.1075L118.16 14.8507C118.393 14.9776 118.632 15.1161 118.878 15.2662C119.141 15.413 119.402 15.5732 119.661 15.7467C119.927 15.9102 120.18 16.072 120.42 16.2321C121.237 16.7792 121.839 17.3259 122.224 17.8724C122.616 18.4088 122.79 18.9799 122.746 19.5855C122.702 20.1912 122.429 20.8681 121.929 21.6161L118.546 26.6731L117.409 25.9125ZM114.651 24.3706C114.052 23.9703 113.6 23.5237 113.295 23.0306C113.006 22.5343 112.872 22.0115 112.893 21.4624C112.924 20.92 113.123 20.3744 113.49 19.8258C113.87 19.2573 114.312 18.8669 114.814 18.6547C115.327 18.4491 115.891 18.4151 116.507 18.5525C117.129 18.6799 117.784 18.9738 118.473 19.4342L120.642 20.8853L119.921 21.9625L117.692 20.4713C117.114 20.0844 116.576 19.9271 116.08 19.9996C115.584 20.072 115.19 20.3277 114.896 20.7666C114.602 21.2054 114.52 21.6629 114.649 22.1391C114.778 22.6152 115.132 23.0468 115.711 23.4337C116.05 23.6606 116.414 23.8175 116.803 23.9047C117.199 23.9818 117.594 23.9425 117.987 23.7867C118.396 23.6276 118.784 23.2954 119.151 22.79L119.16 23.6188C118.73 24.1539 118.27 24.5393 117.78 24.7749C117.307 25.0071 116.805 25.0895 116.272 25.0221C115.75 24.9614 115.209 24.7443 114.651 24.3706ZM125.241 32.5714L129.855 23.5252L131.109 24.8166L126.445 33.8112L125.241 32.5714ZM125.542 32.8814L126.524 31.9284L127.978 33.4264L126.997 34.3794L125.542 32.8814ZM126.119 33.4754L134.959 28.7812L136.137 29.9951L127.26 34.6506L126.119 33.4754ZM130.828 38.6714L138.44 32.8027L139.495 34.1712L131.883 40.0399L130.828 38.6714ZM136.455 32.469L137.539 31.6337L139.495 34.1712L138.412 35.0065L136.455 32.469ZM139.963 32.2424C139.728 31.9383 139.633 31.648 139.678 31.3714C139.729 31.1042 139.879 30.8754 140.126 30.6849C140.373 30.4945 140.632 30.4082 140.904 30.4262C141.182 30.4537 141.439 30.6195 141.673 30.9236C141.908 31.2278 141.999 31.5134 141.948 31.7805C141.903 32.0571 141.758 32.2906 141.51 32.4811C141.263 32.6716 141 32.7531 140.722 32.7256C140.45 32.7076 140.197 32.5466 139.963 32.2424ZM135.349 46.306C135.008 45.7133 134.803 45.1044 134.734 44.4795C134.665 43.8546 134.72 43.2412 134.9 42.6393C135.085 42.0478 135.378 41.4983 135.778 40.9909C136.184 40.4939 136.689 40.0718 137.292 39.7245L137.573 39.5628C138.166 39.2215 138.779 38.9999 139.413 38.8981C140.047 38.7962 140.663 38.8083 141.262 38.9344C141.866 39.0708 142.419 39.3205 142.918 39.6835C143.435 40.0509 143.866 40.5362 144.214 41.1393C144.579 41.7737 144.776 42.4287 144.805 43.1043C144.845 43.774 144.679 44.4369 144.309 45.093C143.939 45.7492 143.319 46.3555 142.449 46.9121L143.088 45.7133L148.688 42.4887L149.55 43.9861L138.163 50.5432L137.48 49.3577L141.177 47.2289L141.429 47.6656C140.459 48.169 139.575 48.4145 138.779 48.4023C137.993 48.384 137.309 48.1824 136.727 47.7973C136.162 47.4167 135.703 46.9196 135.349 46.306ZM136.776 45.7543C137.07 46.2639 137.451 46.6607 137.919 46.945C138.387 47.2292 138.907 47.3733 139.477 47.3774C140.057 47.3755 140.638 47.2069 141.221 46.8715L141.938 46.4583C142.51 46.129 142.919 45.7205 143.165 45.233C143.426 44.7499 143.539 44.2353 143.501 43.6892C143.48 43.1474 143.326 42.627 143.038 42.1278C142.721 41.5767 142.309 41.1628 141.804 40.8861C141.304 40.6199 140.752 40.5019 140.146 40.5322C139.546 40.5728 138.929 40.7758 138.295 41.1411C137.661 41.5064 137.173 41.9463 136.832 42.461C136.502 42.9696 136.33 43.512 136.315 44.088C136.311 44.6581 136.465 45.2135 136.776 45.7543ZM140.549 57.3217C140.262 56.5321 140.15 55.8005 140.212 55.127C140.274 54.4535 140.459 53.8564 140.768 53.3358C141.089 52.811 141.492 52.3581 141.98 51.9771C142.471 51.6073 143.004 51.318 143.579 51.1092L143.884 50.9987C144.471 50.7858 145.071 50.6636 145.685 50.6322C146.303 50.6121 146.898 50.7027 147.469 50.904C148.051 51.1012 148.572 51.4291 149.032 51.8877C149.508 52.3534 149.882 52.9642 150.157 53.72C150.513 54.7013 150.591 55.5856 150.392 56.3729C150.208 57.1673 149.838 57.8376 149.283 58.3837C148.732 58.9411 148.079 59.3569 147.323 59.6312L146.596 59.8952L143.685 51.8751L144.903 51.433L147.384 58.2687L146.589 58.1359C147.232 57.9026 147.748 57.6005 148.137 57.2296C148.537 56.8546 148.793 56.417 148.905 55.9168C149.017 55.4165 148.961 54.8562 148.735 54.2358C148.502 53.5928 148.161 53.1102 147.712 52.788C147.267 52.4771 146.752 52.3066 146.167 52.2765C145.586 52.2577 144.962 52.369 144.297 52.6106C143.654 52.8439 143.11 53.1563 142.664 53.5476C142.235 53.9462 141.947 54.4207 141.802 54.9711C141.669 55.5175 141.725 56.1291 141.97 56.8059C142.228 57.5165 142.595 58.0345 143.07 58.3598C143.55 58.6964 144.015 58.834 144.465 58.7728L145.018 60.2956C144.352 60.3967 143.726 60.343 143.14 60.1345C142.554 59.926 142.04 59.5828 141.598 59.1047C141.157 58.6267 140.807 58.0324 140.549 57.3217ZM143.32 68.0409C143.175 67.2135 143.189 66.4618 143.363 65.7856C143.537 65.1094 143.816 64.5123 144.201 63.9942C144.599 63.4858 145.068 63.0686 145.608 62.7425C146.149 62.4283 146.722 62.2184 147.325 62.1127L147.644 62.0568C148.247 61.9512 148.857 61.9599 149.476 62.083C150.106 62.204 150.69 62.4428 151.228 62.7994C151.777 63.1538 152.243 63.6205 152.624 64.1993C153.018 64.7761 153.285 65.4663 153.426 66.2701C153.567 67.0738 153.55 67.8138 153.376 68.4899C153.214 69.164 152.935 69.7612 152.539 70.2814C152.154 70.7995 151.686 71.2226 151.135 71.5507C150.595 71.8768 150.024 72.0926 149.421 72.1983L149.102 72.2542C148.499 72.3598 147.888 72.3511 147.27 72.228C146.653 72.1167 146.07 71.8839 145.521 71.5294C144.985 71.1846 144.521 70.7239 144.127 70.1471C143.734 69.5704 143.465 68.8683 143.32 68.0409ZM144.845 67.7738C144.969 68.4829 145.228 69.0588 145.622 69.5014C146.031 69.9538 146.523 70.2633 147.101 70.4302C147.68 70.6088 148.301 70.6402 148.963 70.5242C149.637 70.4061 150.216 70.1646 150.7 69.7995C151.184 69.4344 151.536 68.9708 151.754 68.4087C151.974 67.8585 152.023 67.2346 151.901 66.5372C151.781 65.8517 151.523 65.2817 151.126 64.8273C150.73 64.3729 150.242 64.0564 149.662 63.8777C149.083 63.6991 148.456 63.6688 147.782 63.7868C147.121 63.9028 146.546 64.1374 146.06 64.4907C145.576 64.8557 145.218 65.3144 144.986 65.8668C144.767 66.4289 144.72 67.0646 144.845 67.7738ZM148.664 79.0395L150.86 79.0606L150.84 81.1485L148.644 81.1274L148.664 79.0395ZM148.406 90.2393L149.927 90.5315L149.373 93.4127C149.255 94.0255 149.276 94.5549 149.434 95.0009C149.605 95.4491 149.877 95.813 150.251 96.0926C150.623 96.384 151.062 96.5784 151.568 96.6758C152.087 96.7754 152.573 96.7588 153.026 96.626C153.477 96.5049 153.859 96.2667 154.171 95.9113C154.484 95.5559 154.699 95.0719 154.817 94.4591L155.371 91.5778L156.891 91.87L156.399 94.4331C156.195 95.4937 155.854 96.3446 155.376 96.986C154.908 97.6415 154.333 98.0929 153.65 98.3405C152.967 98.588 152.207 98.6314 151.37 98.4706L151.087 98.4162C150.262 98.2577 149.573 97.9358 149.018 97.4504C148.476 96.9673 148.103 96.3335 147.899 95.549C147.705 94.7785 147.71 93.863 147.914 92.8024L148.406 90.2393ZM144.182 87.9976L157.156 90.4912L156.823 92.2235L143.849 89.7299L144.182 87.9976ZM141.869 98.9201L154.388 102.912L153.863 104.558L141.345 100.566L141.869 98.9201ZM153.49 101.227L154.793 101.643L153.863 104.558L152.56 104.143L153.49 101.227ZM137.791 108.768L140.41 109.965L140.53 109.703L143.558 111.087C144.159 111.361 144.684 111.41 145.134 111.233C145.58 111.067 145.939 110.684 146.214 110.084C146.368 109.746 146.522 109.394 146.676 109.029C146.83 108.664 146.976 108.315 147.115 107.982C147.254 107.65 147.367 107.359 147.455 107.109L148.83 107.737C148.742 107.987 148.644 108.246 148.535 108.513C148.432 108.796 148.316 109.079 148.186 109.363C148.067 109.651 147.948 109.927 147.828 110.189C147.419 111.084 146.976 111.765 146.498 112.233C146.031 112.705 145.496 112.969 144.891 113.022C144.286 113.075 143.574 112.915 142.755 112.541L137.222 110.012L137.791 108.768ZM138.871 105.798C139.17 105.143 139.539 104.625 139.976 104.245C140.42 103.88 140.915 103.664 141.46 103.597C142 103.541 142.571 103.649 143.171 103.924C143.793 104.208 144.249 104.581 144.539 105.044C144.824 105.517 144.948 106.069 144.911 106.698C144.885 107.333 144.7 108.027 144.356 108.78L143.271 111.153L142.092 110.615L143.207 108.175C143.496 107.542 143.565 106.987 143.414 106.509C143.264 106.031 142.948 105.682 142.468 105.463C141.987 105.243 141.523 105.235 141.073 105.439C140.624 105.643 140.255 106.061 139.965 106.694C139.796 107.065 139.699 107.45 139.676 107.848C139.663 108.251 139.765 108.634 139.982 108.997C140.204 109.376 140.594 109.706 141.152 109.987L140.335 110.128C139.738 109.79 139.284 109.397 138.973 108.952C138.668 108.522 138.506 108.039 138.487 107.503C138.464 106.977 138.592 106.409 138.871 105.798ZM132.999 109.983L134.296 110.829L133.538 111.99C133.315 112.331 133.173 112.647 133.113 112.938C133.036 113.231 133.049 113.519 133.151 113.801C133.247 114.093 133.428 114.397 133.694 114.714L140.573 122.815L139.648 124.232L132.491 115.734C132.063 115.226 131.779 114.718 131.638 114.21C131.486 113.696 131.473 113.178 131.598 112.658C131.706 112.141 131.94 111.606 132.301 111.053L132.999 109.983ZM134.712 114.605L135.918 115.392L134.776 117.14L133.57 116.353L134.712 114.605ZM134.81 114.454L144.558 116.711L143.593 118.188L133.925 115.81L134.81 114.454ZM123.65 127.583L125.684 129.622L125.888 129.419L128.239 131.777C128.705 132.244 129.18 132.474 129.664 132.466C130.139 132.466 130.61 132.234 131.078 131.768C131.341 131.505 131.609 131.23 131.881 130.941C132.153 130.653 132.412 130.378 132.658 130.115C132.905 129.852 133.113 129.619 133.283 129.416L134.351 130.487C134.181 130.69 133.998 130.898 133.802 131.11C133.607 131.338 133.399 131.563 133.178 131.783C132.965 132.012 132.757 132.228 132.553 132.432C131.857 133.126 131.202 133.609 130.591 133.88C129.988 134.159 129.394 134.218 128.809 134.056C128.224 133.894 127.613 133.494 126.978 132.857L122.682 128.549L123.65 127.583ZM125.703 125.18C126.212 124.672 126.739 124.316 127.282 124.113C127.826 123.927 128.365 123.898 128.899 124.026C129.425 124.163 129.921 124.465 130.387 124.932C130.87 125.416 131.166 125.926 131.276 126.46C131.377 127.004 131.3 127.564 131.044 128.14C130.798 128.725 130.381 129.31 129.795 129.895L127.947 131.738L127.031 130.82L128.931 128.926C129.423 128.435 129.683 127.939 129.709 127.438C129.735 126.938 129.562 126.501 129.189 126.127C128.816 125.753 128.383 125.583 127.891 125.616C127.399 125.649 126.907 125.911 126.414 126.403C126.125 126.691 125.9 127.017 125.738 127.382C125.585 127.755 125.546 128.15 125.622 128.566C125.698 128.998 125.947 129.444 126.371 129.903L125.556 129.749C125.116 129.223 124.828 128.696 124.693 128.17C124.558 127.66 124.576 127.151 124.746 126.643C124.908 126.142 125.227 125.655 125.703 125.18ZM115.587 133.96L123.559 140.25L122.048 141.228L114.137 134.899L115.587 133.96ZM115.225 134.195L115.968 135.343L114.215 136.478L113.472 135.329L115.225 134.195ZM114.529 134.645L117.409 144.23L115.988 145.149L113.154 135.534L114.529 134.645ZM108.51 138.239L112.735 146.872L111.183 147.632L106.958 138.998L108.51 138.239ZM113.459 144.995L114.06 146.224L111.183 147.632L110.581 146.403L113.459 144.995ZM112.979 148.477C113.323 148.308 113.627 148.273 113.889 148.372C114.14 148.476 114.335 148.668 114.472 148.948C114.609 149.228 114.642 149.5 114.57 149.762C114.487 150.03 114.273 150.248 113.928 150.417C113.583 150.585 113.285 150.618 113.034 150.514C112.771 150.415 112.572 150.225 112.435 149.945C112.298 149.665 112.27 149.391 112.353 149.123C112.425 148.861 112.634 148.645 112.979 148.477ZM100.129 141.156C100.777 140.938 101.415 140.857 102.041 140.913C102.667 140.969 103.258 141.144 103.812 141.439C104.355 141.737 104.836 142.133 105.255 142.625C105.662 143.122 105.976 143.7 106.198 144.36L106.301 144.667C106.518 145.315 106.614 145.96 106.589 146.601C106.564 147.243 106.431 147.845 106.189 148.407C105.936 148.973 105.582 149.465 105.127 149.883C104.665 150.317 104.104 150.644 103.445 150.866C102.751 151.099 102.07 151.163 101.402 151.058C100.737 150.964 100.12 150.671 99.5498 150.179C98.9796 149.687 98.5075 148.96 98.1336 147.996L99.1828 148.859L101.239 154.986L99.6007 155.535L95.4197 143.078L96.7166 142.643L98.074 146.687L97.5962 146.848C97.2942 145.797 97.2278 144.883 97.397 144.105C97.57 143.338 97.9026 142.707 98.3949 142.213C98.8796 141.734 99.4576 141.381 100.129 141.156ZM100.388 142.664C99.8306 142.851 99.3664 143.146 98.9953 143.549C98.6243 143.952 98.3805 144.433 98.264 144.991C98.1514 145.56 98.2019 146.163 98.4158 146.801L98.6792 147.585C98.8892 148.211 99.209 148.692 99.6385 149.029C100.06 149.381 100.543 149.593 101.086 149.664C101.621 149.75 102.161 149.701 102.708 149.518C103.31 149.316 103.797 148.994 104.168 148.553C104.528 148.116 104.753 147.598 104.843 146.998C104.921 146.402 104.844 145.757 104.611 145.063C104.378 144.369 104.043 143.804 103.606 143.369C103.172 142.945 102.674 142.669 102.113 142.541C101.554 142.424 100.98 142.465 100.388 142.664ZM88.305 144.073C89.1358 143.949 89.8751 143.984 90.523 144.178C91.1708 144.372 91.7192 144.673 92.1682 145.079C92.619 145.497 92.9827 145.982 93.2596 146.535C93.5245 147.09 93.7022 147.67 93.7927 148.276L93.8406 148.596C93.9329 149.213 93.9335 149.826 93.8424 150.434C93.7394 151.044 93.5327 151.609 93.2221 152.128C92.9133 152.66 92.4885 153.105 91.9478 153.465C91.3969 153.839 90.7239 154.085 89.9288 154.204C88.8962 154.358 88.014 154.26 87.2819 153.908C86.5398 153.57 85.9562 153.075 85.5311 152.423C85.0941 151.772 84.8162 151.049 84.6973 150.254L84.5828 149.489L93.0211 148.227L93.2127 149.509L86.0206 150.584L86.3085 149.831C86.4096 150.508 86.6033 151.073 86.8897 151.528C87.1779 151.994 87.556 152.332 88.024 152.541C88.4921 152.75 89.0525 152.806 89.7052 152.709C90.3817 152.607 90.9224 152.369 91.3272 151.993C91.7202 151.619 91.9896 151.148 92.1352 150.58C92.269 150.014 92.2836 149.381 92.1789 148.681C92.0777 148.004 91.8796 147.409 91.5843 146.895C91.279 146.395 90.871 146.019 90.3602 145.767C89.8512 145.528 89.2407 145.462 88.5286 145.568C87.7809 145.68 87.2005 145.936 86.7873 146.338C86.3622 146.741 86.1351 147.17 86.1058 147.623L84.5036 147.862C84.5365 147.19 84.7134 146.587 85.034 146.054C85.3547 145.521 85.7931 145.085 86.3493 144.747C86.9054 144.409 87.5573 144.184 88.305 144.073ZM77.2484 144.681C78.0882 144.7 78.8227 144.861 79.4519 145.164C80.0811 145.466 80.6122 145.857 81.0454 146.335C81.4662 146.825 81.7838 147.366 81.9982 147.959C82.2006 148.552 82.2948 149.154 82.2807 149.766L82.2732 150.09C82.2591 150.702 82.1314 151.299 81.8899 151.882C81.6481 152.476 81.2999 153.003 80.8453 153.46C80.3903 153.93 79.8418 154.295 79.1996 154.557C78.5571 154.83 77.828 154.957 77.0122 154.938C76.1964 154.92 75.474 154.759 74.8447 154.456C74.2153 154.166 73.6841 153.775 73.2513 153.285C72.8182 152.807 72.4946 152.266 72.2804 151.661C72.066 151.067 71.9659 150.465 71.98 149.853L71.9874 149.529C72.0015 148.917 72.1293 148.32 72.3708 147.738C72.6002 147.155 72.9424 146.628 73.3974 146.159C73.84 145.701 74.3826 145.335 75.0251 145.062C75.6675 144.789 76.4086 144.662 77.2484 144.681ZM77.2128 146.229C76.493 146.212 75.8775 146.354 75.3665 146.654C74.8432 146.966 74.4433 147.389 74.167 147.923C73.8786 148.456 73.7267 149.059 73.7112 149.731C73.6955 150.415 73.8194 151.03 74.0829 151.576C74.3463 152.122 74.7324 152.557 75.2411 152.881C75.7378 153.205 76.3401 153.374 77.0479 153.391C77.7437 153.407 78.3531 153.265 78.8762 152.965C79.3992 152.665 79.8049 152.248 80.0933 151.714C80.3816 151.181 80.5337 150.572 80.5494 149.888C80.5649 149.217 80.4469 148.608 80.1954 148.062C79.9319 147.516 79.5519 147.075 79.0555 146.739C78.5468 146.415 77.9326 146.245 77.2128 146.229ZM65.4213 147.775L64.9732 149.925L62.9291 149.499L63.3773 147.349L65.4213 147.775ZM54.477 145.318L53.8892 146.75L51.1749 145.636C50.5977 145.399 50.0747 145.314 49.6062 145.381C49.133 145.459 48.7224 145.654 48.3742 145.965C48.0149 146.271 47.7372 146.663 47.5413 147.141C47.3408 147.629 47.2607 148.109 47.301 148.579C47.3303 149.045 47.488 149.467 47.7743 149.844C48.0606 150.221 48.4924 150.528 49.0697 150.765L51.7839 151.879L51.1961 153.311L48.7816 152.32C47.7825 151.91 47.016 151.407 46.4821 150.811C45.9325 150.223 45.6041 149.569 45.4969 148.851C45.3897 148.132 45.4979 147.379 45.8214 146.59L45.9308 146.324C46.2498 145.547 46.7021 144.935 47.2877 144.488C47.8688 144.052 48.564 143.812 49.3733 143.768C50.167 143.73 51.0634 143.917 52.0625 144.327L54.477 145.318ZM57.512 141.622L52.4949 153.844L50.8631 153.174L55.8801 140.952L57.512 141.622ZM47.2655 137.188L40.8616 148.662L39.3527 147.82L45.7567 136.346L47.2655 137.188ZM42.6914 148.117L42.0247 149.311L39.3527 147.82L40.0194 146.625L42.6914 148.117ZM38.4189 131.242L36.7287 133.574L36.9619 133.743L35.0076 136.439C34.6202 136.974 34.4689 137.479 34.5534 137.955C34.6283 138.425 34.9329 138.853 35.4673 139.24C35.7685 139.459 36.083 139.679 36.4106 139.902C36.7383 140.125 37.0514 140.337 37.3499 140.538C37.6485 140.74 37.9117 140.908 38.1395 141.044L37.2521 142.268C37.0243 142.133 36.7903 141.985 36.55 141.826C36.293 141.669 36.0382 141.499 35.7856 141.316C35.526 141.143 35.2795 140.972 35.0463 140.803C34.2496 140.225 33.6691 139.656 33.3047 139.096C32.9332 138.545 32.781 137.968 32.848 137.364C32.9149 136.76 33.2125 136.094 33.7407 135.366L37.3112 130.44L38.4189 131.242ZM41.1172 132.887C41.7002 133.31 42.135 133.773 42.4217 134.277C42.6916 134.784 42.8058 135.311 42.7643 135.859C42.7132 136.4 42.4939 136.938 42.1066 137.472C41.7051 138.026 41.2492 138.4 40.7387 138.593C40.2184 138.779 39.6534 138.792 39.0435 138.631C38.4265 138.48 37.7828 138.162 37.1124 137.676L34.9992 136.144L35.7597 135.095L37.9313 136.669C38.4948 137.077 39.0258 137.255 39.5242 137.201C40.0226 137.147 40.4267 136.907 40.7366 136.479C41.0465 136.052 41.1459 135.598 41.0348 135.117C40.9237 134.636 40.5865 134.192 40.0229 133.783C39.6926 133.544 39.3345 133.373 38.9488 133.272C38.5561 133.18 38.1604 133.204 37.7619 133.345C37.3466 133.489 36.9461 133.806 36.5604 134.297L36.5829 133.469C37.0329 132.95 37.507 132.582 38.0051 132.365C38.4865 132.151 38.9919 132.088 39.5214 132.175C40.0412 132.255 40.5731 132.493 41.1172 132.887ZM38.1689 126.304L37.0849 127.409L36.0954 126.438C35.8041 126.153 35.5222 125.952 35.2495 125.836C34.9767 125.703 34.692 125.659 34.3954 125.704C34.0903 125.741 33.7562 125.859 33.3933 126.057L24.1005 131.213L22.8925 130.029L32.6289 124.677C33.2113 124.358 33.7654 124.178 34.2911 124.139C34.8253 124.092 35.3353 124.18 35.8211 124.405C36.3068 124.612 36.7853 124.947 37.2565 125.409L38.1689 126.304ZM33.3013 127.076L32.293 128.105L30.8023 126.642L31.8106 125.614L33.3013 127.076ZM33.4298 127.203L29.305 136.318L28.0457 135.083L32.2733 126.068L33.4298 127.203ZM22.7383 113.69L20.3404 115.285L20.4999 115.525L17.7274 117.369C17.1778 117.735 16.8596 118.156 16.7726 118.631C16.6789 119.097 16.8149 119.605 17.1804 120.154C17.3865 120.464 17.6041 120.781 17.8335 121.104C18.0628 121.427 18.2821 121.735 18.4915 122.028C18.7009 122.321 18.8887 122.571 19.0549 122.777L17.796 123.615C17.6298 123.408 17.462 123.188 17.2925 122.955C17.1063 122.719 16.9268 122.471 16.754 122.211C16.5712 121.958 16.4001 121.711 16.2406 121.471C15.6955 120.652 15.3501 119.916 15.2044 119.264C15.0486 118.618 15.1074 118.024 15.3809 117.482C15.6543 116.94 16.1657 116.419 16.9151 115.921L21.9806 112.551L22.7383 113.69ZM24.6928 116.173C25.0916 116.773 25.3373 117.359 25.4299 117.931C25.5059 118.5 25.4288 119.034 25.1987 119.533C24.9619 120.022 24.5687 120.45 24.0192 120.815C23.4497 121.194 22.8921 121.385 22.3462 121.388C21.7938 121.381 21.2598 121.195 20.7443 120.832C20.2188 120.475 19.7267 119.952 19.2681 119.263L17.8225 117.09L18.9015 116.372L20.387 118.605C20.7725 119.185 21.2082 119.536 21.694 119.66C22.1798 119.783 22.6425 119.699 23.0821 119.407C23.5217 119.114 23.7734 118.723 23.8371 118.234C23.9008 117.745 23.7399 117.211 23.3544 116.631C23.1284 116.291 22.8525 116.007 22.5266 115.777C22.1906 115.553 21.8113 115.438 21.3887 115.431C20.9493 115.421 20.4633 115.578 19.9304 115.904L20.2407 115.135C20.8435 114.806 21.4161 114.627 21.9586 114.598C22.4845 114.565 22.9803 114.682 23.446 114.949C23.905 115.205 24.3206 115.614 24.6928 116.173ZM18.0783 104.528L10.3199 111.08L9.66423 109.404L17.4489 102.919L18.0783 104.528ZM17.921 104.126L16.647 104.624L15.8864 102.68L17.1605 102.181L17.921 104.126ZM17.6194 103.355L7.65146 104.258L7.03517 102.682L17.0228 101.829L17.6194 103.355Z" fill="white"/>
</svg>
