<svg width="56" height="56" viewBox="0 0 56 56" fill="none" xmlns="http://www.w3.org/2000/svg">
<path d="M38.8693 21.6683C42.2286 23.7679 43.9083 24.8177 44.4843 26.1618C44.9874 27.3356 44.9874 28.6644 44.4843 29.8382C43.9083 31.1823 42.2286 32.2321 38.8693 34.3317L23.0907 44.1933C19.3621 46.5237 17.4979 47.6888 15.9594 47.5652C14.6184 47.4573 13.3891 46.776 12.587 45.696C11.6667 44.4569 11.6667 42.2585 11.6667 37.8616V18.1384C11.6667 13.7415 11.6667 11.5431 12.587 10.304C13.3891 9.22394 14.6184 8.54263 15.9594 8.43482C17.4979 8.31114 19.3621 9.47631 23.0907 11.8066L38.8693 21.6683Z" stroke="white" stroke-width="3" stroke-linejoin="round"/>
</svg>
