<svg width="32" height="32" viewBox="0 0 32 32" fill="none" xmlns="http://www.w3.org/2000/svg">
<path d="M30.0534 8.55967C29.8868 7.93605 29.5597 7.36696 29.1047 6.90914C28.6497 6.45131 28.0826 6.12073 27.46 5.95034C25.1734 5.33301 16 5.33301 16 5.33301C16 5.33301 6.82671 5.33301 4.54004 5.95034C3.91745 6.12073 3.35039 6.45131 2.89537 6.90914C2.44035 7.36696 2.11326 7.93605 1.94671 8.55967C1.33337 10.8637 1.33337 15.6663 1.33337 15.6663C1.33337 15.6663 1.33337 20.469 1.94671 22.773C2.11306 23.3969 2.44006 23.9662 2.89509 24.4243C3.35012 24.8824 3.91729 25.2132 4.54004 25.3837C6.82804 25.9997 16 25.9997 16 25.9997C16 25.9997 25.1734 25.9997 27.46 25.3837C28.0828 25.2132 28.65 24.8824 29.105 24.4243C29.56 23.9662 29.887 23.3969 30.0534 22.773C30.6667 20.4717 30.6667 15.6663 30.6667 15.6663C30.6667 15.6663 30.6667 10.8637 30.0534 8.55967ZM13 20.0277V11.3063L20.6667 15.6677L13 20.0277Z" stroke="white" stroke-width="2" stroke-miterlimit="10" stroke-linejoin="round"/>
</svg>
